<svg width="597" height="505" viewBox="0 0 597 505" fill="none" xmlns="http://www.w3.org/2000/svg">
<path opacity="0.128511" fill-rule="evenodd" clip-rule="evenodd" d="M224.05 198.13C225.759 192.885 231.393 190.014 236.641 191.715L450.751 261.103C456.011 262.807 458.889 268.456 457.176 273.713L406.404 429.567C404.696 434.813 399.061 437.684 393.813 435.983L179.703 366.595C174.444 364.89 171.565 359.241 173.278 353.984L224.05 198.13Z" fill="url(#paint0_linear_13_3478)"/>
<path opacity="0.216285" fill-rule="evenodd" clip-rule="evenodd" d="M300.198 52.366C301.907 47.1204 307.541 44.2497 312.79 45.9505L552.488 123.631C557.747 125.335 560.626 130.984 558.913 136.241L501.983 311C500.274 316.246 494.64 319.116 489.392 317.416L249.693 239.735C244.434 238.031 241.555 232.382 243.268 227.125L300.198 52.366Z" fill="url(#paint1_linear_13_3478)"/>
<g opacity="0.226656" filter="url(#filter0_f_13_3478)">
<path fill-rule="evenodd" clip-rule="evenodd" d="M63.1162 17.7962C64.825 12.5507 70.4591 9.67996 75.7073 11.3808L200.733 51.8985C205.992 53.603 208.871 59.252 207.158 64.5089L178.249 153.25C176.54 158.496 170.906 161.367 165.658 159.666L40.6325 119.148C35.3729 117.444 32.4946 111.795 34.2072 106.538L63.1162 17.7962Z" fill="url(#paint2_linear_13_3478)"/>
</g>
<path opacity="0.216285" fill-rule="evenodd" clip-rule="evenodd" d="M459.009 373.355C460.718 368.11 466.352 365.239 471.6 366.94L525.548 384.423C530.807 386.128 533.685 391.777 531.973 397.033L503.064 485.775C501.355 491.021 495.721 493.891 490.473 492.191L436.525 474.707C431.266 473.003 428.387 467.354 430.1 462.097L459.009 373.355Z" fill="url(#paint3_linear_13_3478)"/>
<path opacity="0.128511" fill-rule="evenodd" clip-rule="evenodd" d="M544.273 276.284C545.982 271.038 551.616 268.168 556.864 269.869L587.119 279.673C592.379 281.378 595.257 287.027 593.544 292.284L576.029 346.051C574.32 351.297 568.686 354.168 563.438 352.467L533.183 342.662C527.923 340.957 525.045 335.308 526.757 330.052L544.273 276.284Z" fill="url(#paint4_linear_13_3478)"/>
<path fill-rule="evenodd" clip-rule="evenodd" d="M131.012 108.871C131.012 94.9884 142.266 83.7341 156.149 83.7341H306.633C320.516 83.7341 331.77 94.9883 331.77 108.871V475.328C331.77 489.211 320.516 500.465 306.633 500.465H156.149C142.266 500.465 131.012 489.211 131.012 475.328V108.871Z" fill="#00CFE8" fill-opacity="0.225361"/>
<path fill-rule="evenodd" clip-rule="evenodd" d="M138.252 120.606C138.252 110.377 146.545 102.084 156.774 102.084H305.349C315.579 102.084 323.871 110.377 323.871 120.606V469.067C323.871 479.296 315.579 487.589 305.349 487.589H156.774C146.545 487.589 138.252 479.296 138.252 469.067V120.606Z" fill="white"/>
<mask id="mask0_13_3478" style="mask-type:alpha" maskUnits="userSpaceOnUse" x="138" y="102" width="186" height="386">
<path fill-rule="evenodd" clip-rule="evenodd" d="M138.252 120.606C138.252 110.377 146.545 102.084 156.774 102.084H305.349C315.579 102.084 323.871 110.377 323.871 120.606V469.067C323.871 479.296 315.579 487.589 305.349 487.589H156.774C146.545 487.589 138.252 479.296 138.252 469.067V120.606Z" fill="white"/>
</mask>
<g mask="url(#mask0_13_3478)">
<ellipse cx="222.556" cy="324.082" rx="15.9208" ry="15.9236" fill="#68DE9E" fill-opacity="0.642073"/>
<path fill-rule="evenodd" clip-rule="evenodd" d="M158.623 325.077C201.076 325.077 235.491 359.498 235.491 401.958C235.491 444.418 201.076 478.839 158.623 478.839C116.171 478.839 81.7559 444.418 81.7559 401.958C81.7559 359.498 116.171 325.077 158.623 325.077ZM158.623 358.666C134.718 358.666 115.339 378.048 115.339 401.958C115.339 425.868 134.718 445.25 158.623 445.25C182.529 445.25 201.908 425.868 201.908 401.958C201.908 378.048 182.529 358.666 158.623 358.666Z" fill="url(#paint5_linear_13_3478)"/>
</g>
<path d="M250.234 90.5322C251.952 90.5322 253.344 91.869 253.344 93.5179C253.344 95.1302 252.013 96.444 250.348 96.5016L250.234 96.5036H195.172C193.455 96.5036 192.062 95.1669 192.062 93.5179C192.062 91.9056 193.393 90.5918 195.058 90.5342L195.172 90.5322H250.234Z" fill="#56CDD9"/>
<path d="M260.347 90.0344C262.064 90.0344 263.456 91.4269 263.456 93.1445C263.456 94.824 262.125 96.1925 260.461 96.2525L260.347 96.2546H260.184C258.466 96.2546 257.074 94.8622 257.074 93.1445C257.074 91.465 258.405 90.0965 260.07 90.0365L260.184 90.0344H260.347Z" fill="#56CDD9"/>
<path fill-rule="evenodd" clip-rule="evenodd" d="M307.012 308.734C307.012 305.42 309.698 302.734 313.012 302.734H343.376L355.012 314.734V353.734C355.012 357.048 352.325 359.734 349.012 359.734H313.012C309.698 359.734 307.012 357.048 307.012 353.734V308.734Z" fill="#FB9C9D"/>
<path fill-rule="evenodd" clip-rule="evenodd" d="M317.052 344.734V339.964H320.076C321.456 339.964 322.53 339.616 323.298 338.92C324.066 338.224 324.45 337.252 324.45 336.004C324.45 334.756 324.066 333.784 323.298 333.088C322.53 332.392 321.456 332.044 320.076 332.044H314.244V344.734H317.052ZM319.716 337.84H317.052V334.186H319.716C320.424 334.186 320.952 334.336 321.3 334.636C321.648 334.936 321.822 335.398 321.822 336.022C321.822 337.234 321.12 337.84 319.716 337.84ZM331.2 344.734C332.592 344.734 333.786 344.482 334.782 343.978C335.778 343.474 336.537 342.745 337.059 341.791C337.581 340.837 337.842 339.7 337.842 338.38C337.842 337.06 337.578 335.926 337.05 334.978C336.522 334.03 335.76 333.304 334.764 332.8C333.768 332.296 332.58 332.044 331.2 332.044H326.268V344.734H331.2ZM331.002 342.466H329.076V334.312H331.002C333.702 334.312 335.052 335.668 335.052 338.38C335.052 341.104 333.702 342.466 331.002 342.466ZM342.774 344.734V339.388H348.21V337.174H342.774V334.258H348.57V332.044H340.002V344.734H342.774Z" fill="white"/>
<path opacity="0.33996" d="M355.011 314.734H346.375C344.718 314.734 343.375 313.391 343.375 311.734V302.734L355.011 314.734Z" fill="#EA5455"/>
<path fill-rule="evenodd" clip-rule="evenodd" d="M169.012 384.734C169.012 381.42 171.698 378.734 175.012 378.734H205.376L217.012 390.734V429.734C217.012 433.048 214.325 435.734 211.012 435.734H175.012C171.698 435.734 169.012 433.048 169.012 429.734V384.734Z" fill="#FFBC7C"/>
<path fill-rule="evenodd" clip-rule="evenodd" d="M177.012 411.234C177.012 410.958 177.236 410.734 177.512 410.734H184.512C184.788 410.734 185.012 410.958 185.012 411.234V425.234C185.012 425.51 184.788 425.734 184.512 425.734H177.512C177.236 425.734 177.012 425.51 177.012 425.234V411.234Z" fill="white"/>
<path fill-rule="evenodd" clip-rule="evenodd" d="M189.012 401.234C189.012 400.958 189.236 400.734 189.512 400.734H196.512C196.788 400.734 197.012 400.958 197.012 401.234V425.234C197.012 425.51 196.788 425.734 196.512 425.734H189.512C189.236 425.734 189.012 425.51 189.012 425.234V401.234Z" fill="white"/>
<path fill-rule="evenodd" clip-rule="evenodd" d="M201.012 408.234C201.012 407.958 201.236 407.734 201.512 407.734H208.512C208.788 407.734 209.012 407.958 209.012 408.234V425.234C209.012 425.51 208.788 425.734 208.512 425.734H201.512C201.236 425.734 201.012 425.51 201.012 425.234V408.234Z" fill="white"/>
<path opacity="0.732678" d="M217.011 390.734H208.375C206.718 390.734 205.375 389.391 205.375 387.734V378.734L217.011 390.734Z" fill="#FC9735"/>
<path fill-rule="evenodd" clip-rule="evenodd" d="M237.012 347.734C237.012 344.42 239.698 341.734 243.012 341.734H273.376L285.012 353.734V392.734C285.012 396.048 282.325 398.734 279.012 398.734H243.012C239.698 398.734 237.012 396.048 237.012 392.734V347.734Z" fill="#B7B0FF"/>
<circle cx="253.304" cy="378.884" r="4.8" fill="white"/>
<circle cx="264.812" cy="376.812" r="4.8" fill="white"/>
<path fill-rule="evenodd" clip-rule="evenodd" d="M269.612 361.338V376.451H267.812L267.811 365.012L258.089 368.163V378.74H256.289L256.29 365.655L269.612 361.338Z" fill="white"/>
<path opacity="0.33996" d="M285.011 353.734H276.375C274.718 353.734 273.375 352.391 273.375 350.734V341.734L285.011 353.734Z" fill="#564EA6"/>
<path opacity="0.272833" fill-rule="evenodd" clip-rule="evenodd" d="M292.121 158.486C292.121 152.548 287.307 147.734 281.369 147.734H180.214C174.276 147.734 169.462 152.548 169.462 158.486V279.347C169.462 285.285 174.276 290.099 180.214 290.099H281.369C287.307 290.099 292.121 285.285 292.121 279.347V158.486Z" fill="#00CFE8"/>
<path fill-rule="evenodd" clip-rule="evenodd" d="M282.844 169.163C282.844 163.225 278.03 158.411 272.092 158.411H190.88C184.942 158.411 180.128 163.225 180.128 169.163V179.413C180.128 185.351 184.942 190.165 190.88 190.165H272.092C278.03 190.165 282.844 185.351 282.844 179.413V169.163Z" fill="#F4FEFF"/>
<path fill-rule="evenodd" clip-rule="evenodd" d="M275.9 174.177C275.9 168.419 271.232 163.75 265.473 163.75H264.107C258.348 163.75 253.68 168.419 253.68 174.177C253.68 179.936 258.348 184.604 264.107 184.604H265.473C271.232 184.604 275.9 179.936 275.9 174.177Z" fill="#7367F0" fill-opacity="0.210173"/>
<path fill-rule="evenodd" clip-rule="evenodd" d="M282.844 210.872C282.844 204.934 278.03 200.12 272.092 200.12H190.88C184.942 200.12 180.128 204.934 180.128 210.872V221.122C180.128 227.06 184.942 231.874 190.88 231.874H272.092C278.03 231.874 282.844 227.06 282.844 221.122V210.872Z" fill="#F4FEFF"/>
<path fill-rule="evenodd" clip-rule="evenodd" d="M275.9 215.886C275.9 210.127 271.232 205.458 265.473 205.458H264.107C258.348 205.458 253.68 210.127 253.68 215.886C253.68 221.644 258.348 226.313 264.107 226.313H265.473C271.232 226.313 275.9 221.644 275.9 215.886Z" fill="#7367F0" fill-opacity="0.210173"/>
<path fill-rule="evenodd" clip-rule="evenodd" d="M282.844 252.58C282.844 246.642 278.03 241.828 272.092 241.828H190.88C184.942 241.828 180.128 246.642 180.128 252.58V262.83C180.128 268.768 184.942 273.582 190.88 273.582H272.092C278.03 273.582 282.844 268.768 282.844 262.83V252.58Z" fill="#F4FEFF"/>
<path fill-rule="evenodd" clip-rule="evenodd" d="M275.9 257.594C275.9 251.835 271.232 247.167 265.473 247.167H264.107C258.348 247.167 253.68 251.835 253.68 257.594C253.68 263.353 258.348 268.021 264.107 268.021H265.473C271.232 268.021 275.9 263.353 275.9 257.594Z" fill="#7367F0" fill-opacity="0.210173"/>
<path fill-rule="evenodd" clip-rule="evenodd" d="M394.012 138.44C394.012 136.231 395.803 134.44 398.012 134.44L404.307 134.44C406.516 134.44 408.307 136.231 408.307 138.44V141.274C408.307 141.947 408.853 142.493 409.526 142.493H454.938C457.147 142.493 458.938 144.284 458.938 146.493V185.307C458.938 187.516 457.147 189.307 454.938 189.307H398.012C395.803 189.307 394.012 187.516 394.012 185.307V138.44Z" fill="#FF9F43"/>
<path fill-rule="evenodd" clip-rule="evenodd" d="M409.414 139.277C409.509 138.685 410.019 138.25 410.618 138.25H460.213C460.963 138.25 461.535 138.921 461.417 139.661L453.966 186.375C453.872 186.967 453.361 187.402 452.762 187.402H403.167C402.417 187.402 401.845 186.731 401.963 185.991L409.414 139.277Z" fill="url(#paint6_linear_13_3478)"/>
<path fill-rule="evenodd" clip-rule="evenodd" d="M462.706 150.732C465.221 150.732 467.113 153.027 466.633 155.496L461.197 183.453C460.466 187.212 457.173 189.926 453.344 189.926H398.864C396.349 189.926 394.458 187.632 394.938 185.163L400.374 157.206C401.105 153.446 404.397 150.732 408.227 150.732L462.706 150.732Z" fill="#FABB7E"/>
<path fill-rule="evenodd" clip-rule="evenodd" d="M360.012 230.734C360.012 227.42 362.698 224.734 366.012 224.734H422.012C425.325 224.734 428.012 227.42 428.012 230.734V275.734C428.012 279.048 425.325 281.734 422.012 281.734H366.012C362.698 281.734 360.012 279.048 360.012 275.734V230.734Z" fill="#77ECAB"/>
<path fill-rule="evenodd" clip-rule="evenodd" d="M387.186 244.306C386.643 244.042 386.012 244.437 386.012 245.04V261.397C386.012 262.008 386.658 262.403 387.201 262.124L403.559 253.729C404.157 253.422 404.148 252.563 403.543 252.269L387.186 244.306Z" fill="white"/>
<rect x="367.012" y="229.734" width="6" height="6" fill="white"/>
<rect x="379.012" y="229.734" width="6" height="6" fill="white"/>
<rect x="391.012" y="229.734" width="6" height="6" fill="white"/>
<rect x="403.012" y="229.734" width="6" height="6" fill="white"/>
<rect x="415.012" y="229.734" width="6" height="6" fill="white"/>
<rect x="367.012" y="269.734" width="6" height="6" fill="white"/>
<rect x="379.012" y="269.734" width="6" height="6" fill="white"/>
<rect x="391.012" y="269.734" width="6" height="6" fill="white"/>
<rect x="403.012" y="269.734" width="6" height="6" fill="white"/>
<rect x="415.012" y="269.734" width="6" height="6" fill="white"/>
<path fill-rule="evenodd" clip-rule="evenodd" d="M38.4266 478.192L34.8232 499.949L47.2517 499.882L47.6719 477.851L38.4266 478.192Z" fill="#B8B6C9"/>
<path fill-rule="evenodd" clip-rule="evenodd" d="M33.8357 491.736L33.7477 493.569C32.4206 495.036 31.8532 498.069 32.0456 502.667C32.0456 505.743 49.8274 505.651 50.814 502.667C51.1507 497.676 50.546 494.578 49 493.373L48.9903 491.602C48.9841 490.454 48.2068 489.452 47.0915 489.153L44.8411 488.551C42.8993 485.728 40.253 485.828 37.9853 488.904L35.8532 489.365C34.7186 489.61 33.8911 490.583 33.8357 491.736Z" fill="#2F2B57"/>
<path fill-rule="evenodd" clip-rule="evenodd" d="M80.5781 306.683C80.5781 306.683 64.5083 394.963 61.6905 404.156C58.8727 413.349 51.0581 482.494 51.0581 482.494L34.1785 482.542C34.1785 482.542 33.8189 429.315 35.524 420.761C37.2291 412.207 41.078 398.118 41.078 398.118C41.078 398.118 43.9376 346.973 45.6485 335.042C47.3588 323.112 52.8496 305.428 52.8496 305.428L80.5781 306.683Z" fill="#2F2B57"/>
<path fill-rule="evenodd" clip-rule="evenodd" d="M68.3484 372.171L69.8906 360.155L68.7623 363.463C63.1447 380.037 59.3251 392.903 57.3035 402.06C55.6022 409.766 55.2445 423.069 56.2304 441.971L57.3511 432.709C58.9669 419.593 60.5379 408.082 61.6487 404.298L61.7584 403.93C62.8022 400.336 65.4026 387.445 68.3484 372.171Z" fill="white" fill-opacity="0.192499"/>
<path fill-rule="evenodd" clip-rule="evenodd" d="M79.2529 481.284L90.5969 481.36L90.6 481.678C90.6375 483.24 91.0631 490.13 95.6181 492.775L96.527 493.312C101.656 496.385 108.752 501.328 108.752 501.328L78.3872 502.36L79.2529 481.284Z" fill="#B8B6C9"/>
<path fill-rule="evenodd" clip-rule="evenodd" d="M80.8225 489.001C78.1627 488.756 76.8328 493.858 76.8328 504.307L90.4508 504.357L91.3736 502.36L92.2407 502.709C94.0873 503.434 95.3988 503.835 96.175 503.91L96.8956 503.976C100.714 504.306 106.005 504.46 112.77 504.439L112.792 504.323C112.907 503.614 113.21 499.834 107.33 496.96L107.054 496.828C100.35 493.687 95.4385 489.251 94.3777 488.661L94.3263 488.634C93.3763 488.167 93.996 487.902 92.6462 489.001C91.2964 490.099 91.0741 492.987 88.0155 493.077C84.0787 493.194 84.8122 489.368 80.8225 489.001Z" fill="#2F2B57"/>
<path fill-rule="evenodd" clip-rule="evenodd" d="M65.103 348.29C69.4538 363.979 73.0002 402.289 73.0002 402.289C73.0002 402.289 73.4006 406.325 71.6674 417.505C69.9341 428.686 76.7636 483.087 76.7636 483.087L94.7397 483.124C94.7397 483.124 96.9569 410.04 97.0621 402.354C97.2263 390.369 101.113 307.273 101.113 307.273L63.7269 306.422C63.7269 306.422 60.7522 332.602 65.103 348.29Z" fill="#353160"/>
<path fill-rule="evenodd" clip-rule="evenodd" d="M91.3156 338.72L91.3862 339.027C93.9686 349.887 89.5398 398.015 90.8007 409.458L91.3029 413.552C92.1793 420.91 93.6624 434.323 95.7522 453.791L96.2055 437.495C96.6216 422.009 96.9753 407.437 97.0519 403.005L97.0621 402.354C97.2263 390.369 101.113 307.273 101.113 307.273L94.1192 307.115L93.8134 308.459C90.726 322.228 89.8934 332.315 91.3156 338.72Z" fill="white" fill-opacity="0.192499"/>
<path d="M97.2254 491.736L98.0859 490.243" stroke="white" stroke-width="2" stroke-linecap="round"/>
<path d="M99.7625 493.443L100.623 491.95" stroke="white" stroke-width="2" stroke-linecap="round"/>
<path d="M102.298 495.149L103.158 493.656" stroke="white" stroke-width="2" stroke-linecap="round"/>
<path fill-rule="evenodd" clip-rule="evenodd" d="M91.9782 198.904C95.883 199.33 95.6061 206.19 90.8528 206.548C89.8812 213.161 86.4165 216.312 82.1923 216.676L82.4266 226.679L63.7419 226.668C63.7419 226.668 69.0035 219.602 68.7412 209.928C68.4789 200.255 68.9172 191.167 68.9172 191.167L93.1181 191.601L91.9782 198.904Z" fill="url(#paint7_linear_13_3478)"/>
<path fill-rule="evenodd" clip-rule="evenodd" d="M93.8514 194.829C95.535 195.641 94.1946 199.314 93.3421 199.314C89.4309 197.769 86.1882 203.334 84.5398 208.923C79.8584 213.513 69.5149 213.614 68.4463 209.775C64.4007 201.366 64.2023 189.208 68.9234 188.269C65.2174 178.498 115.267 173.386 93.8514 194.829Z" fill="url(#paint8_linear_13_3478)"/>
<path fill-rule="evenodd" clip-rule="evenodd" d="M89.6712 210.295C89.479 209.874 88.3327 212.758 86.4798 214.304C84.5622 215.904 81.6838 216.373 82.1907 216.676C86.081 219.005 91.2373 213.728 89.6712 210.295Z" fill="url(#paint9_linear_13_3478)"/>
<path fill-rule="evenodd" clip-rule="evenodd" d="M17.5116 245.307C17.5116 245.307 18.3325 239.779 18.072 236.142C17.5901 229.416 18.5117 223.741 17.0222 222.859C15.1117 221.727 14.6339 231.77 14.6339 231.77C14.6339 231.77 3.72306 214.009 1.44838 216.155C-0.826298 218.3 3.91861 227.634 3.16624 230.333C2.41387 233.031 9.93231 246.085 9.93231 246.085L17.5116 245.307Z" fill="url(#paint10_linear_13_3478)"/>
<path fill-rule="evenodd" clip-rule="evenodd" d="M57.846 248.5C57.846 248.5 41.319 274.206 37.6678 279.192C33.8381 284.42 27.0743 286.735 22.2744 278.395C18.0289 271.016 8.93842 252.539 7.78791 246.795C6.92956 242.51 15.7215 236.122 19.947 242.526C24.1726 248.929 30.8462 258.558 30.8462 258.558C30.8462 258.558 41.8202 238.677 45.2413 233.986C54.4671 221.335 68.5238 232.695 57.846 248.5Z" fill="#02C4DC"/>
<path fill-rule="evenodd" clip-rule="evenodd" d="M30.8457 258.558L27.2144 264.81L28.5377 255.16L30.8457 258.558Z" fill="black" fill-opacity="0.159856"/>
<path d="M19.6396 242.733C15.8001 241.519 12.2845 242.165 9.47902 246.89" stroke="#5386BF" stroke-linecap="round"/>
<path fill-rule="evenodd" clip-rule="evenodd" d="M65.7663 221.805L85.0733 221.93L85.8636 222.248C89.0485 223.554 100.877 228.64 103.08 232.995C106.762 240.273 101.911 298.58 104.026 302.099C108.487 309.521 102.66 314.64 83.2959 316.576L82.7049 316.634C62.869 318.525 45.2712 316.976 48.4645 306.971C51.6587 296.965 41.8859 232.518 51.0502 228.066L65.7663 221.805Z" fill="#00CFE8"/>
<path fill-rule="evenodd" clip-rule="evenodd" d="M86.5888 236.572C83.7285 242.799 89.4098 259.004 103.633 285.187L103.809 279.338C104.274 264.738 104.958 246.941 104.099 237.985C95.1159 231.186 89.2795 230.715 86.5888 236.572Z" fill="black" fill-opacity="0.159856"/>
<path fill-rule="evenodd" clip-rule="evenodd" d="M86.3724 220.096C85.1713 219.768 65.0585 220.096 64.2594 220.096C63.4603 220.096 63.4603 223.514 64.2594 223.514C64.748 223.514 70.9855 223.421 86.3738 223.234C87.7624 223.218 91.4668 224.788 91.4668 224.788C91.4668 224.788 87.5735 220.424 86.3724 220.096Z" fill="url(#paint11_linear_13_3478)"/>
<path fill-rule="evenodd" clip-rule="evenodd" d="M164.396 279.495C164.396 279.495 174.926 281.166 176.912 279.524C178.898 277.883 186.81 266.723 185.946 264.802C185.082 262.882 177.863 266.943 177.248 265.722C176.457 264.153 180.539 258.557 176.962 258.231C176.041 258.146 175.39 261.591 172.796 263.86C170.203 266.13 163.942 271.163 163.942 271.163L164.396 279.495Z" fill="url(#paint12_linear_13_3478)"/>
<path fill-rule="evenodd" clip-rule="evenodd" d="M100.761 230.365C109.861 239.024 122.745 259.47 125.491 261.271C128.236 263.073 162.58 266.706 165.814 269.639C168.515 272.088 168.758 279.542 165.814 281.61C162.869 283.677 124.202 280.905 117.11 278.839C110.018 276.773 97.8713 257.84 92.4454 251.93C77.2714 235.403 91.6609 221.707 100.761 230.365Z" fill="#02C4DC"/>
<path d="M162.242 268.438C163.942 270.428 164.8 273.327 163.942 278.991" stroke="#5386BF" stroke-linecap="round"/>
<defs>
<filter id="filter0_f_13_3478" x="22.8398" y="0.0178642" width="195.686" height="171.011" filterUnits="userSpaceOnUse" color-interpolation-filters="sRGB">
<feFlood flood-opacity="0" result="BackgroundImageFix"/>
<feBlend mode="normal" in="SourceGraphic" in2="BackgroundImageFix" result="shape"/>
<feGaussianBlur stdDeviation="5.43656" result="effect1_foregroundBlur_13_3478"/>
</filter>
<linearGradient id="paint0_linear_13_3478" x1="68.2298" y1="392.784" x2="344.216" y2="540.197" gradientUnits="userSpaceOnUse">
<stop stop-color="#FAFEFF"/>
<stop offset="1" stop-color="#28C76F"/>
</linearGradient>
<linearGradient id="paint1_linear_13_3478" x1="167.137" y1="191.207" x2="326.377" y2="344.628" gradientUnits="userSpaceOnUse">
<stop stop-color="#FAFEFF"/>
<stop offset="1" stop-color="#00CFE8"/>
</linearGradient>
<linearGradient id="paint2_linear_13_3478" x1="-31.8552" y1="134.056" x2="138.616" y2="225.213" gradientUnits="userSpaceOnUse">
<stop stop-color="#FAFEFF"/>
<stop offset="1" stop-color="#77ECAB"/>
</linearGradient>
<linearGradient id="paint3_linear_13_3478" x1="408.134" y1="453.423" x2="465.346" y2="488.992" gradientUnits="userSpaceOnUse">
<stop stop-color="#FAFEFF"/>
<stop offset="1" stop-color="#00CFE8"/>
</linearGradient>
<linearGradient id="paint4_linear_13_3478" x1="498.343" y1="357.309" x2="559.884" y2="383.659" gradientUnits="userSpaceOnUse">
<stop stop-color="#FAFEFF"/>
<stop offset="1" stop-color="#28C76F"/>
</linearGradient>
<linearGradient id="paint5_linear_13_3478" x1="114.08" y1="505.65" x2="239.749" y2="441.009" gradientUnits="userSpaceOnUse">
<stop stop-color="#F8FDFF"/>
<stop offset="1" stop-color="#88EFB6"/>
</linearGradient>
<linearGradient id="paint6_linear_13_3478" x1="456.574" y1="153.674" x2="456.574" y2="124.744" gradientUnits="userSpaceOnUse">
<stop stop-color="#F8FDFF"/>
<stop offset="1" stop-color="#AAD4FF"/>
</linearGradient>
<linearGradient id="paint7_linear_13_3478" x1="100.038" y1="182.523" x2="96.9094" y2="224.81" gradientUnits="userSpaceOnUse">
<stop stop-color="#FDC6C6"/>
<stop offset="1" stop-color="#FAB2B2"/>
</linearGradient>
<linearGradient id="paint8_linear_13_3478" x1="96.4316" y1="190.363" x2="58.6157" y2="190.363" gradientUnits="userSpaceOnUse">
<stop stop-color="#3F4044"/>
<stop offset="1" stop-color="#222735"/>
</linearGradient>
<linearGradient id="paint9_linear_13_3478" x1="92.4179" y1="221.028" x2="77.6825" y2="223.34" gradientUnits="userSpaceOnUse">
<stop stop-color="#4D63A0"/>
<stop offset="1" stop-color="#222735"/>
</linearGradient>
<linearGradient id="paint10_linear_13_3478" x1="21.1162" y1="208.645" x2="17.1213" y2="244.249" gradientUnits="userSpaceOnUse">
<stop stop-color="#FDC6C6"/>
<stop offset="1" stop-color="#FAB2B2"/>
</linearGradient>
<linearGradient id="paint11_linear_13_3478" x1="142.375" y1="213.055" x2="142.319" y2="236.818" gradientUnits="userSpaceOnUse">
<stop stop-color="#D7FFFF"/>
<stop offset="1" stop-color="#648BF0"/>
</linearGradient>
<linearGradient id="paint12_linear_13_3478" x1="189.831" y1="252.87" x2="188.142" y2="279.123" gradientUnits="userSpaceOnUse">
<stop stop-color="#FDC6C6"/>
<stop offset="1" stop-color="#FAB2B2"/>
</linearGradient>
</defs>
</svg>
