<svg
  width="31"
  height="30"
  viewBox="0 0 31 30"
  fill="none"
  xmlns="http://www.w3.org/2000/svg"
>
  <rect x="0.65625" width="30" height="30" rx="6" fill="#3B5998" />
  <path
    fill-rule="evenodd"
    clip-rule="evenodd"
    d="M19.7168 11.5C19.7168 11.85 19.4841 12.0833 19.1352 12.0833H17.3905V13.25H19.1352C19.3097 13.25 19.4841 13.25 19.6005 13.425C19.7168 13.6 19.7749 13.775 19.7168 13.95L19.1352 16.2833C19.077 16.575 18.8444 16.75 18.5536 16.75H17.3905V20.8333C17.3905 21.1833 17.1578 21.4166 16.8089 21.4166H14.4826C14.1336 21.4166 13.901 21.1833 13.901 20.8333V16.75H12.7378C12.3889 16.75 12.1562 16.5166 12.1562 16.1666V13.8333C12.1562 13.4833 12.3889 13.25 12.7378 13.25H13.901V12.0833C13.901 10.1583 15.4712 8.58331 17.3905 8.58331H19.1352C19.4841 8.58331 19.7168 8.81665 19.7168 9.16665V11.5ZM18.3791 14.4166H16.8089C16.4599 14.4166 16.2273 14.1833 16.2273 13.8333V12.0833C16.2273 11.4416 16.7507 10.9166 17.3905 10.9166H18.5536V9.74998H17.3905C16.111 9.74998 15.0641 10.8 15.0641 12.0833V13.8333C15.0641 14.1833 14.8315 14.4166 14.4826 14.4166H13.3194V15.5833H14.4826C14.8315 15.5833 15.0641 15.8166 15.0641 16.1666V20.25H16.2273V16.1666C16.2273 15.8166 16.4599 15.5833 16.8089 15.5833H18.0883L18.3791 14.4166Z"
    fill="black"
  />
  <mask
    id="mask0_6_323"
    style="mask-type: alpha"
    maskUnits="userSpaceOnUse"
    x="12"
    y="8"
    width="8"
    height="14"
  >
    <path
      fill-rule="evenodd"
      clip-rule="evenodd"
      d="M19.7168 11.5C19.7168 11.85 19.4841 12.0833 19.1352 12.0833H17.3905V13.25H19.1352C19.3097 13.25 19.4841 13.25 19.6005 13.425C19.7168 13.6 19.7749 13.775 19.7168 13.95L19.1352 16.2833C19.077 16.575 18.8444 16.75 18.5536 16.75H17.3905V20.8333C17.3905 21.1833 17.1578 21.4166 16.8089 21.4166H14.4826C14.1336 21.4166 13.901 21.1833 13.901 20.8333V16.75H12.7378C12.3889 16.75 12.1562 16.5166 12.1562 16.1666V13.8333C12.1562 13.4833 12.3889 13.25 12.7378 13.25H13.901V12.0833C13.901 10.1583 15.4712 8.58331 17.3905 8.58331H19.1352C19.4841 8.58331 19.7168 8.81665 19.7168 9.16665V11.5ZM18.3791 14.4166H16.8089C16.4599 14.4166 16.2273 14.1833 16.2273 13.8333V12.0833C16.2273 11.4416 16.7507 10.9166 17.3905 10.9166H18.5536V9.74998H17.3905C16.111 9.74998 15.0641 10.8 15.0641 12.0833V13.8333C15.0641 14.1833 14.8315 14.4166 14.4826 14.4166H13.3194V15.5833H14.4826C14.8315 15.5833 15.0641 15.8166 15.0641 16.1666V20.25H16.2273V16.1666C16.2273 15.8166 16.4599 15.5833 16.8089 15.5833H18.0883L18.3791 14.4166Z"
      fill="white"
    />
  </mask>
  <g mask="url(#mask0_6_323)">
    <rect x="8.65625" y="8" width="14" height="14" fill="white" />
  </g>
</svg>
