<svg
  width="31"
  height="30"
  viewBox="0 0 31 30"
  fill="none"
  xmlns="http://www.w3.org/2000/svg"
>
  <rect x="0.65625" width="30" height="30" rx="6" fill="#211F1F" />
  <path
    d="M18.62 18.1024C18.7391 18.4515 18.7986 18.8587 18.7986 19.2077V21.4183C18.7986 21.7673 18.5605 22 18.2032 22C17.8459 22 17.6077 21.7673 17.6077 21.4183V19.1495C17.6673 18.6842 17.4887 18.3351 17.1909 18.0443C17.0123 17.8697 16.9528 17.637 17.0718 17.4625C17.1314 17.2298 17.3696 17.1135 17.5482 17.0553C19.275 16.8808 20.8827 16.2991 20.8827 13.565C20.8827 12.9251 20.6445 12.2852 20.1682 11.7616C19.9895 11.5871 19.9895 11.3544 20.0491 11.1799C20.2277 10.7145 20.2277 10.2491 20.1086 9.78377C19.8109 9.84194 19.3345 10.0165 18.5605 10.54C18.4414 10.6564 18.2627 10.6564 18.0841 10.5982C16.8337 10.2491 15.4642 10.2491 14.2137 10.5982C14.0351 10.6564 13.8565 10.6564 13.6778 10.54C12.9633 10.0165 12.4274 9.84194 12.1297 9.78377C12.0106 10.2491 12.0106 10.7145 12.1892 11.1799C12.2488 11.4126 12.2488 11.6453 12.0701 11.7616C11.5938 12.2852 11.3556 12.9251 11.3556 13.565C11.3556 16.2991 12.9633 16.8808 14.6901 17.0553C14.9283 17.0553 15.1069 17.2298 15.1664 17.4625C15.226 17.6952 15.1664 17.9279 15.0473 18.0443C14.7496 18.3351 14.6305 18.6842 14.6305 19.0914V19.6149V19.6731V21.3601C14.6305 21.7091 14.3924 21.9418 14.0351 21.9418C13.6778 21.9418 13.4397 21.7091 13.4397 21.3601V20.3712C11.6533 20.662 10.8792 19.6731 10.3433 19.0332C10.1052 18.7423 9.92654 18.5096 9.68836 18.4515C9.39064 18.3933 9.15246 18.0443 9.27155 17.7534C9.3311 17.4625 9.68836 17.2298 9.98608 17.3462C10.5815 17.5207 10.9388 17.9279 11.2961 18.3351C11.7724 18.975 12.1892 19.4404 13.4397 19.2077V19.1495C13.4397 18.8005 13.4992 18.3933 13.6183 18.1024C11.951 17.7534 10.1647 16.7063 10.1647 13.6231C10.1647 12.7506 10.4624 11.9361 10.9983 11.2963C10.7602 10.4818 10.8197 9.7256 11.177 8.96936C11.2365 8.79484 11.3556 8.67849 11.5342 8.62032C11.7724 8.56215 12.5465 8.4458 14.1542 9.43473C15.4642 9.14387 16.8337 9.14387 18.0841 9.43473C19.6323 8.4458 20.4659 8.56215 20.704 8.62032C20.8827 8.67849 21.0018 8.79484 21.0613 8.96936C21.359 9.7256 21.4186 10.4818 21.2399 11.2381C21.7758 11.878 22.0736 12.6924 22.0736 13.565C22.0736 16.8808 20.0491 17.8116 18.62 18.1024Z"
    fill="black"
  />
  <mask
    id="mask0_6_314"
    style="mask-type: alpha"
    maskUnits="userSpaceOnUse"
    x="9"
    y="8"
    width="14"
    height="14"
  >
    <path
      d="M18.62 18.1024C18.7391 18.4515 18.7986 18.8587 18.7986 19.2077V21.4183C18.7986 21.7673 18.5605 22 18.2032 22C17.8459 22 17.6077 21.7673 17.6077 21.4183V19.1495C17.6673 18.6842 17.4887 18.3351 17.1909 18.0443C17.0123 17.8697 16.9528 17.637 17.0718 17.4625C17.1314 17.2298 17.3696 17.1135 17.5482 17.0553C19.275 16.8808 20.8827 16.2991 20.8827 13.565C20.8827 12.9251 20.6445 12.2852 20.1682 11.7616C19.9895 11.5871 19.9895 11.3544 20.0491 11.1799C20.2277 10.7145 20.2277 10.2491 20.1086 9.78377C19.8109 9.84194 19.3345 10.0165 18.5605 10.54C18.4414 10.6564 18.2627 10.6564 18.0841 10.5982C16.8337 10.2491 15.4642 10.2491 14.2137 10.5982C14.0351 10.6564 13.8565 10.6564 13.6778 10.54C12.9633 10.0165 12.4274 9.84194 12.1297 9.78377C12.0106 10.2491 12.0106 10.7145 12.1892 11.1799C12.2488 11.4126 12.2488 11.6453 12.0701 11.7616C11.5938 12.2852 11.3556 12.9251 11.3556 13.565C11.3556 16.2991 12.9633 16.8808 14.6901 17.0553C14.9283 17.0553 15.1069 17.2298 15.1664 17.4625C15.226 17.6952 15.1664 17.9279 15.0473 18.0443C14.7496 18.3351 14.6305 18.6842 14.6305 19.0914V19.6149V19.6731V21.3601C14.6305 21.7091 14.3924 21.9418 14.0351 21.9418C13.6778 21.9418 13.4397 21.7091 13.4397 21.3601V20.3712C11.6533 20.662 10.8792 19.6731 10.3433 19.0332C10.1052 18.7423 9.92654 18.5096 9.68836 18.4515C9.39064 18.3933 9.15246 18.0443 9.27155 17.7534C9.3311 17.4625 9.68836 17.2298 9.98608 17.3462C10.5815 17.5207 10.9388 17.9279 11.2961 18.3351C11.7724 18.975 12.1892 19.4404 13.4397 19.2077V19.1495C13.4397 18.8005 13.4992 18.3933 13.6183 18.1024C11.951 17.7534 10.1647 16.7063 10.1647 13.6231C10.1647 12.7506 10.4624 11.9361 10.9983 11.2963C10.7602 10.4818 10.8197 9.7256 11.177 8.96936C11.2365 8.79484 11.3556 8.67849 11.5342 8.62032C11.7724 8.56215 12.5465 8.4458 14.1542 9.43473C15.4642 9.14387 16.8337 9.14387 18.0841 9.43473C19.6323 8.4458 20.4659 8.56215 20.704 8.62032C20.8827 8.67849 21.0018 8.79484 21.0613 8.96936C21.359 9.7256 21.4186 10.4818 21.2399 11.2381C21.7758 11.878 22.0736 12.6924 22.0736 13.565C22.0736 16.8808 20.0491 17.8116 18.62 18.1024Z"
      fill="white"
    />
  </mask>
  <g mask="url(#mask0_6_314)">
    <rect x="8.65625" y="8" width="14" height="14" fill="white" />
  </g>
</svg>
