<svg
  width="746"
  height="544"
  viewBox="0 0 746 544"
  fill="none"
  xmlns="http://www.w3.org/2000/svg"
>
  <path
    opacity="0.0845424"
    d="M674.32 164.249C683.698 151.73 701.453 149.18 713.979 158.552C726.379 167.83 729.005 185.315 719.957 197.81L719.679 198.187L645.379 297.373C635.916 310.007 618.34 313.21 605.04 304.802L604.639 304.544L557.865 273.948L510.705 342.593C501.937 355.356 484.564 358.693 471.702 350.17L471.313 349.908C458.543 341.146 455.204 323.783 463.732 310.928L463.994 310.539L525.793 220.586C534.999 207.185 553.141 203.492 566.841 212.144L567.255 212.41L614.898 243.574L674.32 164.249Z"
    fill="#7367F0"
  />
  <path
    opacity="0.0845424"
    d="M431.118 3.29424C433.496 -0.160162 438.232 -1.03872 441.696 1.33194C445.115 3.67139 446.018 8.30087 443.756 11.7421L443.664 11.8791L425.148 38.779C422.433 42.5698 417.181 43.4829 413.345 40.8606L413.208 40.7654L402.574 33.1946L391.048 51.4538C388.839 54.9536 384.234 56.0368 380.696 53.9185L380.557 53.8332C377.047 51.6305 375.96 47.0392 378.085 43.5109L378.17 43.3722L393.455 19.158C395.973 15.169 401.257 13.9705 405.258 16.4812L405.467 16.6168L405.673 16.7584L416.53 24.4883L431.118 3.29424Z"
    fill="#7367F0"
  />
  <path
    opacity="0.070266"
    fill-rule="evenodd"
    clip-rule="evenodd"
    d="M633.402 129.308C634.782 129.308 635.902 128.189 635.902 126.808V108.831H653.891C655.271 108.831 656.391 107.711 656.391 106.331V97.676C656.391 96.2953 655.271 95.176 653.891 95.176H635.902V77.0663C635.902 75.6856 634.782 74.5663 633.402 74.5663H624.606C623.226 74.5663 622.106 75.6856 622.106 77.0663V95.176H604.117C602.736 95.176 601.617 96.2953 601.617 97.676V106.331C601.617 107.711 602.736 108.831 604.117 108.831H622.106V126.808C622.106 128.189 623.226 129.308 624.606 129.308H633.402Z"
    fill="#00CFE8"
  />
  <path
    opacity="0.0739397"
    fill-rule="evenodd"
    clip-rule="evenodd"
    d="M92.602 20C143.193 20 184.206 60.9886 184.206 111.551C184.206 162.113 143.193 203.101 92.602 203.101C42.0105 203.101 0.998047 162.113 0.998047 111.551C0.998047 60.9886 42.0105 20 92.602 20ZM92.602 65.3034C67.0455 65.3034 46.3278 86.0089 46.3278 111.551C46.3278 137.092 67.0455 157.798 92.602 157.798C118.159 157.798 138.876 137.092 138.876 111.551C138.876 86.0089 118.159 65.3034 92.602 65.3034Z"
    fill="#00CFE8"
  />
  <path
    fill-rule="evenodd"
    clip-rule="evenodd"
    d="M61.5957 101C61.5957 92.1634 68.7591 85 77.5957 85H547.724C556.561 85 563.724 92.1634 563.724 101V305.224C563.724 314.061 556.561 321.224 547.724 321.224H77.5957C68.7592 321.224 61.5957 314.061 61.5957 305.224V101Z"
    fill="#E7FCFF"
  />
  <path
    opacity="0.383371"
    fill-rule="evenodd"
    clip-rule="evenodd"
    d="M69.1465 101C69.1465 92.1634 76.3099 85 85.1465 85H547.724C556.561 85 563.724 92.1634 563.724 101V305.224C563.724 314.061 556.561 321.224 547.724 321.224H85.1465C76.31 321.224 69.1465 314.061 69.1465 305.224V101Z"
    fill="#00CFE8"
  />
  <path
    fill-rule="evenodd"
    clip-rule="evenodd"
    d="M76.6973 102.559C76.6973 97.0363 81.1744 92.5592 86.6973 92.5592H546.173C551.696 92.5592 556.173 97.0363 556.173 102.559V303.665C556.173 309.188 551.696 313.665 546.173 313.665H86.6973C81.1744 313.665 76.6973 309.188 76.6973 303.665L76.6973 102.559Z"
    fill="#E7FCFF"
  />
  <path
    fill-rule="evenodd"
    clip-rule="evenodd"
    d="M275.85 299.822C275.85 296.509 278.536 293.822 281.85 293.822H351.021C354.334 293.822 357.021 296.509 357.021 299.822V313.665H275.85V299.822Z"
    fill="#D4EFFF"
  />
  <path
    d="M283.4 299.822C283.4 296.509 286.087 293.822 289.4 293.822H358.572C361.885 293.822 364.572 296.509 364.572 299.822V321.224H283.4V299.822Z"
    fill="#91D6FF"
  />
  <g filter="url(#filter0_dd_6_349)">
    <path
      fill-rule="evenodd"
      clip-rule="evenodd"
      d="M90.8555 107.397C90.8555 104.421 93.2681 102.008 96.2442 102.008H221.268C224.244 102.008 226.657 104.421 226.657 107.397V148.047C226.657 151.023 224.244 153.436 221.268 153.436H96.2442C93.2681 153.436 90.8555 151.023 90.8555 148.047V107.397Z"
      fill="white"
    />
  </g>
  <path
    opacity="0.454078"
    fill-rule="evenodd"
    clip-rule="evenodd"
    d="M131.037 132.559C131.037 131.716 131.721 131.032 132.565 131.032H157.992C158.836 131.032 159.52 131.716 159.52 132.559C159.52 133.403 158.836 134.087 157.992 134.087H132.565C131.721 134.087 131.037 133.403 131.037 132.559Z"
    fill="#C7C1FF"
  />
  <path
    fill-rule="evenodd"
    clip-rule="evenodd"
    d="M131.037 123.903C131.037 123.059 131.721 122.376 132.565 122.376H147.82C148.663 122.376 149.347 123.059 149.347 123.903C149.347 124.747 148.663 125.431 147.82 125.431H132.565C131.721 125.431 131.037 124.747 131.037 123.903Z"
    fill="#8478FF"
  />
  <path
    fill-rule="evenodd"
    clip-rule="evenodd"
    d="M205.813 120.284C207.983 117.429 212.053 116.876 214.904 119.049C215.56 119.548 216.115 120.169 216.539 120.876C216.758 121.241 216.639 121.714 216.275 121.933C215.911 122.151 215.439 122.033 215.22 121.668C214.897 121.128 214.473 120.655 213.973 120.274C211.842 118.651 208.819 119.022 207.14 121.085L207.037 121.216L204.652 124.353C200.927 129.254 194.624 131.414 188.693 129.848L188.439 129.779L186.521 129.237C186.397 129.202 186.273 129.171 186.147 129.143C182.639 128.369 179.168 130.541 178.309 134.011L178.269 134.182L177.873 135.98C177.733 136.617 177.462 137.217 177.076 137.741C175.551 139.817 172.633 140.262 170.559 138.735C170.217 138.483 170.144 138.001 170.396 137.659C170.647 137.316 171.129 137.243 171.471 137.495C172.86 138.518 174.815 138.22 175.837 136.829C176.063 136.521 176.231 136.175 176.332 135.808L176.371 135.649L176.767 133.851C177.735 129.451 182.083 126.67 186.478 127.639L186.709 127.694L186.938 127.755L188.857 128.297C194.172 129.799 199.857 127.946 203.272 123.622L203.428 123.421L205.813 120.284Z"
    fill="#8478FF"
  />
  <path
    fill-rule="evenodd"
    clip-rule="evenodd"
    d="M198.882 119.353C200.452 115.857 204.557 114.297 208.049 115.869C208.751 116.184 209.395 116.615 209.956 117.143C211.275 118.384 212.497 120.347 213.642 123.035C213.808 123.426 213.627 123.878 213.236 124.045C212.845 124.212 212.394 124.03 212.227 123.639C211.158 121.13 210.043 119.338 208.902 118.264C208.466 117.854 207.965 117.519 207.419 117.273C204.75 116.072 201.623 117.22 200.353 119.838L200.285 119.985L199.79 121.086C199.675 121.343 199.542 121.591 199.394 121.83C197.566 124.766 193.707 125.664 190.774 123.834C190.425 123.616 190.042 123.458 189.641 123.366C187.689 122.919 185.745 124.102 185.23 126.022L185.197 126.157L184.341 129.899C184.083 131.026 183.535 132.067 182.753 132.917C180.312 135.571 176.214 135.785 173.513 133.434L173.369 133.305L169.883 130.092C169.57 129.804 169.55 129.317 169.838 129.004C170.107 128.712 170.548 128.675 170.86 128.906L170.925 128.959L174.411 132.173C176.484 134.084 179.713 133.95 181.621 131.875C182.176 131.271 182.577 130.543 182.792 129.754L182.841 129.555L183.697 125.813C184.344 122.985 187.159 121.217 189.984 121.865C190.481 121.979 190.958 122.165 191.4 122.416L191.588 122.527C193.8 123.907 196.71 123.23 198.088 121.016C198.163 120.896 198.232 120.772 198.296 120.646L198.387 120.455L198.882 119.353Z"
    fill="#C7C1FF"
  />
  <ellipse cx="113.489" cy="128.231" rx="10.4267" ry="10.4383" fill="#8478FF" />
  <g filter="url(#filter1_dd_6_349)">
    <path
      fill-rule="evenodd"
      clip-rule="evenodd"
      d="M90.8555 165.592C90.8555 162.83 93.094 160.592 95.8555 160.592H254.805C257.566 160.592 259.805 162.83 259.805 165.592V298.271C259.805 301.033 257.566 303.271 254.805 303.271H95.8555C93.094 303.271 90.8555 301.033 90.8555 298.271V165.592Z"
      fill="white"
    />
  </g>
  <mask
    id="mask0_6_349"
    style="mask-type: alpha"
    maskUnits="userSpaceOnUse"
    x="90"
    y="160"
    width="170"
    height="144"
  >
    <path
      fill-rule="evenodd"
      clip-rule="evenodd"
      d="M90.8555 165.592C90.8555 162.83 93.094 160.592 95.8555 160.592H254.805C257.566 160.592 259.805 162.83 259.805 165.592V298.271C259.805 301.033 257.566 303.271 254.805 303.271H95.8555C93.094 303.271 90.8555 301.033 90.8555 298.271V165.592Z"
      fill="white"
    />
  </mask>
  <g mask="url(#mask0_6_349)">
    <g filter="url(#filter2_d_6_349)">
      <path
        d="M113.508 270.2C113.508 270.2 133.593 264.425 142.449 252.639C151.305 240.853 154.291 229.428 169.522 229.428C184.754 229.428 186.706 246.926 203.172 246.926C219.638 246.926 220.538 224.612 226.011 215.752C231.483 206.892 240.928 206.892 240.928 206.892"
        stroke="#8EEAF6"
        stroke-width="4.004"
        stroke-linecap="round"
      />
    </g>
    <path
      opacity="0.414737"
      fill-rule="evenodd"
      clip-rule="evenodd"
      d="M113.508 268.982C113.508 268.982 133.593 263.232 142.449 251.497C151.305 239.761 154.291 228.386 169.522 228.386C184.754 228.386 186.706 245.808 203.172 245.808C219.638 245.808 220.538 223.591 226.011 214.769C231.483 205.947 240.928 205.947 240.928 205.947V280.349C240.928 282.05 239.549 283.429 237.848 283.429H116.588C114.887 283.429 113.508 282.05 113.508 280.349V268.982Z"
      fill="#CEF9FF"
    />
    <rect
      x="104.07"
      y="174.765"
      width="52.8556"
      height="5.66939"
      rx="2.83469"
      fill="#8EEAF6"
    />
    <path
      fill-rule="evenodd"
      clip-rule="evenodd"
      d="M104.07 191.773C104.07 190.208 105.339 188.939 106.905 188.939H125.776C127.341 188.939 128.61 190.208 128.61 191.773C128.61 193.339 127.341 194.608 125.776 194.608H106.905C105.339 194.608 104.07 193.339 104.07 191.773Z"
      fill="#8EEAF6"
      fill-opacity="0.401934"
    />
    <ellipse
      cx="227.241"
      cy="178.072"
      rx="3.30348"
      ry="3.30714"
      fill="#8EEAF6"
      fill-opacity="0.451705"
    />
    <ellipse
      cx="236.68"
      cy="178.072"
      rx="3.30348"
      ry="3.30714"
      fill="#8EEAF6"
      fill-opacity="0.451705"
    />
    <ellipse
      cx="246.118"
      cy="178.072"
      rx="3.30348"
      ry="3.30714"
      fill="#8EEAF6"
      fill-opacity="0.451705"
    />
  </g>
  <g filter="url(#filter3_d_6_349)">
    <path
      fill-rule="evenodd"
      clip-rule="evenodd"
      d="M286.232 122.721C286.232 118.588 289.583 115.237 293.717 115.237H518.929C523.063 115.237 526.414 118.588 526.414 122.721V273.237C526.414 277.371 523.063 280.721 518.929 280.721H293.717C289.583 280.721 286.232 277.371 286.232 273.237V122.721Z"
      fill="white"
    />
  </g>
  <path
    fill-rule="evenodd"
    clip-rule="evenodd"
    d="M326.852 200.101V259.287H318.021V200.101H326.852Z"
    fill="#E7E4FF"
  />
  <path
    fill-rule="evenodd"
    clip-rule="evenodd"
    d="M326.852 214.245V259.287H318.021V214.245H326.852Z"
    fill="#C7C1FF"
  />
  <path
    fill-rule="evenodd"
    clip-rule="evenodd"
    d="M326.852 242.533V259.287H318.021V242.533H326.852Z"
    fill="#8478FF"
  />
  <path
    fill-rule="evenodd"
    clip-rule="evenodd"
    d="M348.043 185.957V259.287H339.213V185.957H348.043Z"
    fill="#E7E4FF"
  />
  <path
    fill-rule="evenodd"
    clip-rule="evenodd"
    d="M348.043 207.173V259.287H339.213V207.173H348.043Z"
    fill="#C7C1FF"
  />
  <path
    fill-rule="evenodd"
    clip-rule="evenodd"
    d="M348.043 242.533V259.287H339.213V242.533H348.043Z"
    fill="#8478FF"
  />
  <path
    fill-rule="evenodd"
    clip-rule="evenodd"
    d="M369.236 196.565V259.287H360.406V196.565H369.236Z"
    fill="#E7E4FF"
  />
  <path
    fill-rule="evenodd"
    clip-rule="evenodd"
    d="M369.236 217.781V259.287H360.406V217.781H369.236Z"
    fill="#C7C1FF"
  />
  <path
    fill-rule="evenodd"
    clip-rule="evenodd"
    d="M369.236 246.069V259.287H360.406V246.069H369.236Z"
    fill="#8478FF"
  />
  <path
    fill-rule="evenodd"
    clip-rule="evenodd"
    d="M390.428 178.885V259.287H381.598V178.885H390.428Z"
    fill="#E7E4FF"
  />
  <path
    fill-rule="evenodd"
    clip-rule="evenodd"
    d="M390.428 200.101V259.287H381.598V200.101H390.428Z"
    fill="#C7C1FF"
  />
  <path
    fill-rule="evenodd"
    clip-rule="evenodd"
    d="M390.428 228.389V259.287H381.598V228.389H390.428Z"
    fill="#8478FF"
  />
  <path
    fill-rule="evenodd"
    clip-rule="evenodd"
    d="M411.621 164.741V259.287H402.791V164.741H411.621Z"
    fill="#E7E4FF"
  />
  <path
    fill-rule="evenodd"
    clip-rule="evenodd"
    d="M411.621 193.029V259.287H402.791V193.029H411.621Z"
    fill="#C7C1FF"
  />
  <path
    fill-rule="evenodd"
    clip-rule="evenodd"
    d="M411.621 235.461V259.287H402.791V235.461H411.621Z"
    fill="#8478FF"
  />
  <path
    fill-rule="evenodd"
    clip-rule="evenodd"
    d="M432.815 185.957V259.287H423.984V185.957H432.815Z"
    fill="#E7E4FF"
  />
  <path
    fill-rule="evenodd"
    clip-rule="evenodd"
    d="M432.815 207.173V259.287H423.984V207.173H432.815Z"
    fill="#C7C1FF"
  />
  <path
    fill-rule="evenodd"
    clip-rule="evenodd"
    d="M432.815 239.704V259.287H423.984V239.704H432.815Z"
    fill="#8478FF"
  />
  <path
    fill-rule="evenodd"
    clip-rule="evenodd"
    d="M454.006 193.029V259.287H445.176V193.029H454.006Z"
    fill="#E7E4FF"
  />
  <path
    fill-rule="evenodd"
    clip-rule="evenodd"
    d="M454.006 207.173V259.287H445.176V207.173H454.006Z"
    fill="#C7C1FF"
  />
  <path
    fill-rule="evenodd"
    clip-rule="evenodd"
    d="M454.006 234.753V259.287H445.176V234.753H454.006Z"
    fill="#8478FF"
  />
  <path
    fill-rule="evenodd"
    clip-rule="evenodd"
    d="M475.199 178.885V259.287H466.369V178.885H475.199Z"
    fill="#E7E4FF"
  />
  <path
    fill-rule="evenodd"
    clip-rule="evenodd"
    d="M475.199 207.173V259.287H466.369V207.173H475.199Z"
    fill="#C7C1FF"
  />
  <path
    fill-rule="evenodd"
    clip-rule="evenodd"
    d="M475.199 241.825V259.287H466.369V241.825H475.199Z"
    fill="#8478FF"
  />
  <path
    fill-rule="evenodd"
    clip-rule="evenodd"
    d="M496.391 193.029V259.287H487.561V193.029H496.391Z"
    fill="#E7E4FF"
  />
  <path
    fill-rule="evenodd"
    clip-rule="evenodd"
    d="M496.391 207.173V259.287H487.561V207.173H496.391Z"
    fill="#C7C1FF"
  />
  <path
    fill-rule="evenodd"
    clip-rule="evenodd"
    d="M496.391 241.825V259.287H487.561V241.825H496.391Z"
    fill="#8478FF"
  />
  <path
    opacity="0.57573"
    fill-rule="evenodd"
    clip-rule="evenodd"
    d="M315.195 145.646C315.195 144.475 316.145 143.525 317.317 143.525H387.954C389.125 143.525 390.075 144.475 390.075 145.646C390.075 146.818 389.125 147.768 387.954 147.768H317.317C316.145 147.768 315.195 146.818 315.195 145.646Z"
    fill="#8C81FF"
  />
  <rect
    x="315.195"
    y="131.502"
    width="39.5593"
    height="4.2432"
    rx="2.1216"
    fill="#8478FF"
  />
  <path
    fill-rule="evenodd"
    clip-rule="evenodd"
    d="M559.038 449.882L570.48 540.29L564.481 540.21L553.038 450.728L559.038 449.882Z"
    fill="#BFE7FF"
  />
  <path
    fill-rule="evenodd"
    clip-rule="evenodd"
    d="M481.615 464.093C476.399 464.093 472.17 459.864 472.17 454.648C472.17 449.431 476.399 445.203 481.615 445.203H519.377C525.099 445.203 529.881 440.849 530.417 435.153L536.455 370.96C536.99 365.264 541.772 360.91 547.494 360.91H571.194C577.653 360.91 582.744 366.408 582.249 372.848L576.025 453.855C575.581 459.632 570.764 464.093 564.97 464.093H481.615Z"
    fill="#91D6FF"
  />
  <path
    fill-rule="evenodd"
    clip-rule="evenodd"
    d="M472.172 454.567C472.224 454.568 472.276 454.569 472.328 454.569H555.458C561.251 454.569 566.068 450.109 566.513 444.332L572.733 363.614C572.801 362.734 572.764 361.872 572.634 361.038C572.082 360.954 571.517 360.91 570.94 360.91H547.352C541.631 360.91 536.85 365.262 536.313 370.957L530.28 434.916C529.742 440.611 524.961 444.963 519.241 444.963H481.591C476.388 444.963 472.17 449.181 472.17 454.384C472.17 454.445 472.171 454.506 472.172 454.567Z"
    fill="#BFE7FF"
  />
  <path
    fill-rule="evenodd"
    clip-rule="evenodd"
    d="M546.274 345.34C558.472 342.498 559.275 325.746 550.001 319.935C559.565 299.875 537.448 279.958 522.298 292.241C512.366 287.987 504.113 304.586 513.354 317.478C509.479 339.613 517.366 345.335 531.582 345.578L546.274 345.34Z"
    fill="#422851"
  />
  <path
    fill-rule="evenodd"
    clip-rule="evenodd"
    d="M546.121 341.339C546.121 341.339 540.187 339.946 539.981 330.217C539.776 320.489 539.92 317.169 539.92 317.169L526.85 316.933C526.85 316.933 526.707 327.775 526.705 331.696C526.7 342.229 519.365 341.339 519.365 341.339C519.365 341.339 520.889 349.88 532.733 350.546C541.98 351.067 546.121 341.339 546.121 341.339Z"
    fill="url(#paint0_linear_6_349)"
  />
  <path
    fill-rule="evenodd"
    clip-rule="evenodd"
    d="M542.968 312.311C548.799 312.085 547.848 320.625 541.791 320.614C541.791 320.614 538.273 332.746 526.059 332.746C516.139 332.746 515.494 318.606 515.404 315.785C515.307 312.777 515.295 302.896 515.295 302.896L543.195 302.883L542.968 312.311Z"
    fill="url(#paint1_linear_6_349)"
  />
  <path
    d="M528.414 324.596C528.414 324.596 525.505 327.06 522.135 324.752"
    stroke="#F77B7B"
    stroke-width="1.5"
    stroke-linecap="round"
  />
  <path
    d="M526.492 327.45C525.587 327.868 524.715 327.898 523.937 327.482"
    stroke="#F49494"
    stroke-linecap="round"
  />
  <path
    d="M542.373 316.904C542.313 315.534 542.73 314.446 544.127 314.227"
    stroke="#F77B7B"
    stroke-linecap="round"
  />
  <path
    fill-rule="evenodd"
    clip-rule="evenodd"
    d="M543.89 311.256C543.89 311.256 540.694 315.546 540.047 315.569C539.4 315.592 539.173 309.989 539.173 309.989C535.252 309.689 525.331 307.712 522.899 303.107C521.198 307.171 517.947 308.975 515.81 308.629L515.405 317.262L514.408 299.906H544.672L543.89 311.256Z"
    fill="#422851"
  />
  <path
    fill-rule="evenodd"
    clip-rule="evenodd"
    d="M486.402 512.891C486.402 512.891 491.633 523.462 487.345 526.793C483.05 530.125 471.706 536.368 471.706 536.368L501.76 534.478L495.079 511.424L486.402 512.891Z"
    fill="url(#paint2_linear_6_349)"
  />
  <path
    fill-rule="evenodd"
    clip-rule="evenodd"
    d="M498.854 522.951C497.371 523.125 498.955 528.121 495.744 528.501C492.539 528.88 490.981 524.147 487.345 525.647C483.708 527.148 470.444 534.906 469.922 538.078C469.393 541.249 474.335 542.182 481.112 541.466C487.889 540.75 489.138 538.337 494.226 539.309C499.307 540.28 503.113 538.732 502.946 535.017C502.778 531.303 500.337 522.778 498.854 522.951Z"
    fill="#222D4E"
  />
  <path
    fill-rule="evenodd"
    clip-rule="evenodd"
    d="M485.685 526.417L486.345 527.407C486.669 527.893 486.51 528.551 486.001 528.835L477.035 533.841C476.744 534.003 476.392 534.01 476.095 533.86L474.703 533.153C476.889 531.569 478.676 530.379 480.652 529.21C482.168 528.313 483.847 527.388 485.685 526.417Z"
    fill="white"
    fill-opacity="0.540975"
  />
  <path
    fill-rule="evenodd"
    clip-rule="evenodd"
    d="M531.675 419.725C522.576 420.131 471.937 431.338 462.736 433.242C453.536 435.146 445.757 445.448 452.773 457.377C460.653 470.769 480.984 508.8 485.921 517.373C488.364 521.616 500.69 519.237 497.794 512.115C492.397 498.838 489.891 465.485 476.13 453.324C476.13 453.324 522.407 461.382 542.396 452.152C556.924 445.442 553.638 418.742 531.675 419.725Z"
    fill="url(#paint3_linear_6_349)"
  />
  <path
    fill-rule="evenodd"
    clip-rule="evenodd"
    d="M467.208 365.893C467.208 365.893 467.311 358.486 464.722 354.615C462.132 350.744 462.029 346.632 460.069 346.766C458.109 346.901 460.05 356.459 460.05 356.459C460.05 356.459 457.563 355.508 455.777 354.306C453.99 353.103 448.573 347.176 447.308 348.226C445.161 350.016 448.618 360.111 450.501 362.13C452.39 364.148 462.71 370.787 462.71 370.787L467.208 365.893Z"
    fill="url(#paint4_linear_6_349)"
  />
  <path
    fill-rule="evenodd"
    clip-rule="evenodd"
    d="M523.122 361.454C518.889 371.276 511.14 389.32 507.945 394.703C503.941 401.444 497.628 404.414 490.236 399.413C482.468 394.157 461.081 373.657 460.454 369.014C459.832 364.37 465.067 358.799 469.804 361.683C474.54 364.568 494.222 380.956 494.222 380.956C494.222 380.956 502.165 360.583 508.555 348.782C514.088 338.572 529.564 346.523 523.122 361.454Z"
    fill="#6A5EE3"
  />
  <path
    fill-rule="evenodd"
    clip-rule="evenodd"
    d="M494.141 380.966C494.141 380.966 492.007 388.206 491.509 387.787C491.01 387.368 491.89 379.074 491.89 379.074L494.141 380.966Z"
    fill="black"
    fill-opacity="0.302803"
  />
  <path
    fill-rule="evenodd"
    clip-rule="evenodd"
    d="M565.42 349.62C565.42 349.62 555.221 383.791 554.918 390.259C554.616 396.728 563.26 415.74 561.789 420.545C558.395 431.65 515.072 436.431 513.417 421.493C512.645 414.526 514.251 408.273 512.4 400.064C510.556 391.855 503.142 379.657 507.347 368.188C511.552 356.719 510.425 346.109 513.433 344.103C516.441 342.098 523.472 339.968 523.472 339.968C526.891 345.002 538.434 344.929 543.941 339.613C543.941 339.613 557.624 342.269 565.42 349.62Z"
    fill="#7367F0"
  />
  <path
    fill-rule="evenodd"
    clip-rule="evenodd"
    d="M556.28 355.154C549.481 365.949 549.501 384.745 545.85 387.206C542.199 389.668 527.987 387.252 527.987 389.202C527.987 391.151 547.626 409.016 544.402 417.557C542.714 422.029 543.172 426.029 545.776 429.559L546.626 429.373C554.364 427.624 560.585 424.482 561.788 420.545C563.26 415.74 553.619 396.728 553.921 390.259C554.177 384.768 562.284 359.316 564.729 351.748C562.738 348.234 559.922 349.37 556.28 355.154Z"
    fill="black"
    fill-opacity="0.199355"
  />
  <path
    fill-rule="evenodd"
    clip-rule="evenodd"
    d="M544.688 383.794C544.688 383.794 536.097 376.187 533.467 375.304C530.837 374.421 515.434 373.36 515.532 375.355C515.642 377.493 523.915 377.37 524.772 378.421C525.629 379.472 525.824 386.659 529.064 387.465C532.298 388.272 541.993 389.663 541.993 389.663L544.688 383.794Z"
    fill="url(#paint5_linear_6_349)"
  />
  <path
    fill-rule="evenodd"
    clip-rule="evenodd"
    d="M567.542 351.583C576.593 364.364 584.32 383.833 587.287 391.423C590.253 399.013 587.261 410.462 574.218 408.214C561.198 405.973 540.482 393.792 538.19 390.239C535.898 386.686 539.38 380.221 543.765 381.067C547.828 381.85 567.978 390.423 567.978 390.423C567.978 390.423 555.015 367.432 551.849 361.269C546.561 350.976 559.569 340.322 567.542 351.583Z"
    fill="#6A5EE3"
  />
  <path
    fill-rule="evenodd"
    clip-rule="evenodd"
    d="M567.772 390.265C567.772 390.265 574.562 393.641 573.734 392.225C572.906 390.81 565.181 385.837 565.181 385.837L567.772 390.265Z"
    fill="black"
    fill-opacity="0.302803"
  />
  <path
    fill-rule="evenodd"
    clip-rule="evenodd"
    d="M235.062 509.194C235.062 509.194 234.926 517.906 240.272 521C245.618 524.095 253.901 529.844 253.901 529.844L222.393 530.913L223.291 509.116L235.062 509.194Z"
    fill="#F8CFCF"
  />
  <path
    fill-rule="evenodd"
    clip-rule="evenodd"
    d="M221.292 518.794L220.779 532.926H228.098L228.599 531.105C228.599 531.105 231.355 530.992 232.947 531.779C234.63 532.61 234.856 533.014 234.856 533.014L258.07 533.063C258.07 533.063 259.215 528.495 252.139 525.191C245.063 521.887 239.91 517.197 238.932 516.717C237.946 516.233 235.957 515.96 234.556 517.096C233.156 518.232 232.048 521.219 228.874 521.312C224.789 521.433 222.442 516.404 221.292 518.794Z"
    fill="#4B4B4B"
  />
  <path
    d="M241.131 518.25L238.725 520.577"
    stroke="white"
    stroke-width="2"
    stroke-linecap="round"
  />
  <path
    d="M244.639 520.014L242.232 522.342"
    stroke="white"
    stroke-width="2"
    stroke-linecap="round"
  />
  <path
    d="M248.149 521.779L245.742 524.107"
    stroke="white"
    stroke-width="2"
    stroke-linecap="round"
  />
  <path
    fill-rule="evenodd"
    clip-rule="evenodd"
    d="M212 321C212 321 220.753 417.38 221.026 424.079C221.298 430.779 218.214 442.342 218.274 454.874C218.334 467.406 219.4 511.575 219.4 511.575L238.71 511.984C238.71 511.984 246.825 432.167 246.913 420.198C247 408.229 247.744 322.152 247.744 322.152L212 321Z"
    fill="#383838"
  />
  <path
    opacity="0.283552"
    fill-rule="evenodd"
    clip-rule="evenodd"
    d="M225.919 427.079L225.94 427.318C226.231 431.404 223.693 444.846 218.327 467.645L218.274 454.874C218.215 442.565 221.189 431.192 221.037 424.443L221.026 424.079C220.934 421.822 219.879 409.379 218.521 393.872L219.155 396.143C222.878 409.595 225.132 419.908 225.919 427.079Z"
    fill="white"
    fill-opacity="0.192499"
  />
  <path
    fill-rule="evenodd"
    clip-rule="evenodd"
    d="M188.478 507.966L184.754 530.525L198.482 530.456L198.916 507.613L188.478 507.966Z"
    fill="#F8CFCF"
  />
  <path
    fill-rule="evenodd"
    clip-rule="evenodd"
    d="M187.001 517.724C185.657 518.015 184.683 519.182 184.638 520.556L184.527 523.91C182.585 526.064 181.668 532.287 181.571 532.977C181.565 533.02 181.561 533.061 181.566 533.105C181.851 536.154 201.82 536.116 203.695 533.249C203.78 533.118 203.786 532.963 203.761 532.809C203.551 531.538 202.435 525.385 200.29 523.707L200.277 520.384C200.272 519.031 199.362 517.849 198.055 517.498L195.992 516.944C193.985 514.017 191.25 514.121 188.907 517.31L187.001 517.724Z"
    fill="#4B4B4B"
  />
  <path
    d="M189.686 519.748H195.243"
    stroke="white"
    stroke-width="2"
    stroke-linecap="round"
  />
  <path
    d="M189.686 522.393H195.243"
    stroke="white"
    stroke-width="2"
    stroke-linecap="round"
  />
  <path
    d="M190.57 525.037H194.36"
    stroke="white"
    stroke-width="2"
    stroke-linecap="round"
  />
  <path
    fill-rule="evenodd"
    clip-rule="evenodd"
    d="M195.401 322.265C195.401 322.265 189.268 388.331 189.351 400.982C189.434 413.635 191.239 419.191 188.671 428.267C186.102 437.343 183.912 509.786 183.912 509.786L202.903 511.864C202.903 511.864 215.036 434.346 216.355 423.599C217.674 412.851 233.98 321.353 233.98 321.353L195.401 322.265Z"
    fill="#2E2E2E"
  />
  <path
    opacity="0.283552"
    fill-rule="evenodd"
    clip-rule="evenodd"
    d="M200.53 367.105L199.372 371.298C195.98 383.673 192.849 396.76 193.669 415.455L193.709 416.309C193.91 420.358 191.334 443.861 185.98 486.816L185.471 489.835C184.946 492.915 184.478 495.542 184.068 497.717L184.185 493.913C184.867 472.914 186.704 435.215 188.67 428.267C191.238 419.191 189.434 413.635 189.35 400.982C189.292 392.126 192.28 357.097 194.078 336.877L195.401 322.265L203.417 322.076L203.437 324.326C203.578 345.099 202.609 359.358 200.53 367.105Z"
    fill="white"
    fill-opacity="0.192499"
  />
  <path
    fill-rule="evenodd"
    clip-rule="evenodd"
    d="M288.834 240.566C288.834 240.566 287.249 231.828 287.819 230.058C288.306 228.529 292.908 226.323 292.908 226.323C292.908 226.323 300.912 213.818 302.664 215.091C304.089 216.123 298.496 225.343 298.496 225.343C298.496 225.343 303.596 230.636 303.525 233.002C303.454 235.368 295.2 242.774 295.2 242.774L288.834 240.566Z"
    fill="#F8CFCF"
  />
  <path
    fill-rule="evenodd"
    clip-rule="evenodd"
    d="M293.08 226.198C293.08 226.198 296.625 225.721 297.189 226.812C297.67 227.742 294.725 230.379 294.725 231.12C294.725 231.861 294.767 237.471 295.004 237.522C295.241 237.573 298.555 228.367 297.848 226.42C297.266 224.821 293.08 226.198 293.08 226.198Z"
    fill="#F28585"
  />
  <path
    fill-rule="evenodd"
    clip-rule="evenodd"
    d="M246.546 251.684C237.261 243.662 223.318 258.124 238.865 271.569C244.797 276.699 263.428 289.493 267.996 292.307C275.267 296.785 281.242 292.744 283.697 285.697C285.78 279.723 298.239 247.743 296.653 243.046C295.62 239.982 290.071 237.001 287.286 239.412C283.216 242.935 270.766 273.839 270.766 273.839C270.766 273.839 257.104 260.805 246.546 251.684Z"
    fill="#877BFF"
  />
  <path
    fill-rule="evenodd"
    clip-rule="evenodd"
    d="M270.766 273.839C270.766 273.839 274.843 278.786 275.138 278.03C275.432 277.275 271.904 270.918 271.904 270.918L270.766 273.839Z"
    fill="black"
    fill-opacity="0.159856"
  />
  <path
    d="M286.205 241.393C289.445 239.893 292.984 241.748 294.934 244.723"
    stroke="#5386BF"
    stroke-linecap="round"
  />
  <path
    fill-rule="evenodd"
    clip-rule="evenodd"
    d="M206.742 242.431C206.742 242.431 212.08 241.203 212.266 232.628C212.451 224.053 212.321 221.126 212.321 221.126L224.977 220.918C224.977 220.918 225.104 230.474 225.107 233.931C225.111 241.457 230.812 243.49 230.812 243.49C230.812 243.49 230.339 251.718 219.684 252.306C211.365 252.765 206.742 242.431 206.742 242.431Z"
    fill="#F8C5C5"
  />
  <path
    fill-rule="evenodd"
    clip-rule="evenodd"
    d="M236.251 211.881L235.969 219.986C238.36 217.23 239.976 213.814 240.454 209.433L236.251 211.881Z"
    fill="url(#paint6_linear_6_349)"
  />
  <path
    fill-rule="evenodd"
    clip-rule="evenodd"
    d="M211.159 216.791C205.914 216.592 206.769 224.12 212.219 224.11C212.219 224.11 218.075 235.654 227.269 235.683C231.697 235.698 233.143 231.831 234.471 229.116C235.799 226.401 236.773 222.34 236.854 219.853C236.941 217.202 236.952 208.493 236.952 208.493L210.955 208.481L211.159 216.791Z"
    fill="#F8CFCF"
  />
  <path
    fill-rule="evenodd"
    clip-rule="evenodd"
    d="M236.952 212.489H218.669C218.477 215.728 217.379 218.417 214.593 220.401C214.672 225.146 216.291 228.6 219.099 231.023C221.543 224.155 236.496 226.034 235.408 230.515C233.123 239.929 211.708 240.142 213.007 218.476C212.153 217.334 209.098 217.12 208.092 218.262C206.374 213.529 207.107 206.832 212.075 205.864C208.175 195.777 261.197 193.643 236.952 212.489Z"
    fill="#424242"
  />
  <path
    d="M225.236 230.099C225.236 230.099 227.619 231.815 230.754 229.939"
    stroke="#CC6969"
    stroke-linecap="round"
  />
  <path
    d="M211.977 221.089C212.03 219.881 211.655 218.922 210.398 218.729"
    stroke="#DE6767"
    stroke-linecap="round"
  />
  <path
    fill-rule="evenodd"
    clip-rule="evenodd"
    d="M209.089 241L224.192 250.796L231.002 242.887C231.002 242.887 245.348 247.327 248.01 252.518C251.85 260.008 246.79 320.022 248.996 323.643C253.697 331.36 247.447 336.658 226.757 338.604C206.067 340.55 187.712 338.957 191.042 328.658C194.374 318.359 181.519 251.147 192.852 247.445C196.393 246.288 209.089 241 209.089 241Z"
    fill="#7367F0"
  />
  <path
    fill-rule="evenodd"
    clip-rule="evenodd"
    d="M198.897 259.529C199.812 261.144 199.34 266.737 197.483 276.309C195.9 284.464 197.71 292.899 202.487 299.705L202.756 300.081C204.371 302.311 205.861 305.247 207.224 308.888C210.568 317.82 202.856 325.266 208.766 339.239L208.051 339.205C196.455 338.606 188.79 335.623 191.042 328.658C193.774 320.214 185.624 273.51 188.847 254.921C194.426 256.015 197.776 257.551 198.897 259.529Z"
    fill="black"
    fill-opacity="0.159856"
  />
  <path
    fill-rule="evenodd"
    clip-rule="evenodd"
    d="M209.089 241L222.598 249.795C220.618 252.093 219.556 254.766 219.155 257.709C213.963 253.656 208.567 247.992 206.895 241.902L209.089 241Z"
    fill="#5E54C7"
  />
  <path
    fill-rule="evenodd"
    clip-rule="evenodd"
    d="M225.26 249.566C227.544 251.109 229.366 253.839 230.85 256.944C232.628 253.376 233.309 248.664 233.309 243.639L231.078 242.759L225.26 249.566Z"
    fill="#5E54C7"
  />
  <path
    fill-rule="evenodd"
    clip-rule="evenodd"
    d="M222.598 249.794L222.774 249.893C223.584 250.344 224.594 250.211 225.259 249.566C230.352 268.207 233.934 288.724 235.017 309.576L229.702 318.39L223.485 310.141C224.295 288.47 224.289 267.339 222.598 249.794Z"
    fill="#CBC6FF"
  />
  <path
    d="M236.081 296.99C236.228 295.598 237.503 294.607 238.888 294.81L251.194 296.609C252.502 296.8 253.427 297.99 253.288 299.304L251.08 320.318C250.933 321.711 249.658 322.701 248.273 322.499L235.967 320.7C234.659 320.509 233.735 319.319 233.873 318.004L236.081 296.99Z"
    fill="#6182EC"
  />
  <path
    fill-rule="evenodd"
    clip-rule="evenodd"
    d="M237.549 296.567C237.7 295.128 239.053 294.128 240.473 294.407L253.34 296.93L262.145 296.783C263.624 296.758 264.792 298.033 264.637 299.504L262.432 320.486C262.302 321.724 261.268 322.671 260.023 322.692L250.616 322.849L237.318 320.241C236.066 319.995 235.208 318.834 235.342 317.565L237.549 296.567Z"
    fill="#96EFFA"
  />
  <path
    d="M239.872 301.487C239.97 300.561 240.835 299.913 241.751 300.081L247.657 301.161C248.48 301.312 249.048 302.071 248.96 302.902L248.708 305.297C248.611 306.223 247.746 306.871 246.829 306.703L240.924 305.622C240.101 305.472 239.533 304.713 239.621 303.881L239.872 301.487Z"
    fill="#74CFDB"
  />
  <path
    d="M252.356 297.631C252.402 297.192 252.796 296.873 253.235 296.919L253.752 296.974C254.191 297.02 254.51 297.414 254.464 297.853L251.916 322.097C251.87 322.536 251.476 322.855 251.037 322.809L250.52 322.755C250.08 322.708 249.762 322.315 249.808 321.875L252.356 297.631Z"
    fill="#EAEFFF"
  />
  <path
    d="M253.059 297.705C253.105 297.266 253.499 296.947 253.938 296.993L254.455 297.048C254.895 297.094 255.213 297.488 255.167 297.927L252.619 322.171C252.573 322.61 252.179 322.929 251.74 322.883L251.223 322.828C250.783 322.782 250.465 322.389 250.511 321.949L253.059 297.705Z"
    fill="#7AD2DD"
  />
  <path
    fill-rule="evenodd"
    clip-rule="evenodd"
    d="M222.89 306.414C222.89 306.414 227.476 305.498 229.353 304.034C231.23 302.569 236.915 301.534 236.915 301.534L235.096 305.34C235.096 305.34 249.028 304.04 249.358 305.406C249.689 306.772 245.659 308.256 245.659 308.256C245.659 308.256 243.672 311.944 241.748 314.082C239.928 316.105 230.884 315.864 227.714 314.602C224.975 313.511 221.996 314.057 221.996 314.057L222.89 306.414Z"
    fill="#F8CFCF"
  />
  <path
    fill-rule="evenodd"
    clip-rule="evenodd"
    d="M186.002 253.239C190.984 242.542 208.042 249.749 203.743 261.209C199.579 272.31 189.49 298.23 189.49 298.23C189.49 298.23 221.462 302.263 223.954 304.144C227.28 306.653 225.224 313.813 222.398 315.088C220.007 316.166 202.245 316.796 184.866 315.435C176.269 314.762 169.911 311.092 169.024 301.559C168.402 294.883 181.202 263.544 186.002 253.239Z"
    fill="#877BFF"
  />
  <path
    fill-rule="evenodd"
    clip-rule="evenodd"
    d="M189.502 298.224C189.502 298.224 186.845 303.243 187.604 303.345C188.364 303.448 192.225 298.591 192.225 298.591L189.502 298.224Z"
    fill="black"
    fill-opacity="0.159856"
  />
  <path
    d="M221.703 303.599C222.689 306.727 221.996 310.395 220.628 312.988"
    stroke="#5386BF"
    stroke-linecap="round"
  />
  <path
    fill-rule="evenodd"
    clip-rule="evenodd"
    d="M86.3628 443.346C94.6288 439.634 104.336 443.361 107.996 451.65L110.858 458.135C102.592 461.847 92.8847 458.12 89.2255 449.831L86.3628 443.346Z"
    fill="#02D3AF"
  />
  <path
    fill-rule="evenodd"
    clip-rule="evenodd"
    d="M98.1732 447.302C106.423 453.172 111.772 459.714 114.237 466.926C116.714 474.173 117.729 486.321 117.268 503.347C117.261 503.611 117.467 503.83 117.729 503.837C117.99 503.844 118.208 503.637 118.215 503.373C118.679 486.241 117.656 473.996 115.132 466.614C112.597 459.197 107.121 452.5 98.7191 446.521C98.5055 446.369 98.21 446.421 98.0593 446.636C97.9085 446.852 97.9595 447.15 98.1732 447.302Z"
    fill="#02B596"
  />
  <path
    fill-rule="evenodd"
    clip-rule="evenodd"
    d="M156.488 439.32C148.354 435.494 138.659 439.022 134.886 447.182L131.673 454.133C139.807 457.959 149.502 454.431 153.275 446.271L156.488 439.32Z"
    fill="#02D3AF"
  />
  <path
    d="M91.4961 423.385C99.34 421.718 107.05 426.725 108.718 434.569L110.067 440.919C102.223 442.586 94.5131 437.579 92.8458 429.735L91.4961 423.385Z"
    fill="#02D3AF"
  />
  <path
    fill-rule="evenodd"
    clip-rule="evenodd"
    d="M97.2643 428.452C103.31 432.672 107.399 437.223 109.544 442.099L109.676 442.406L109.809 442.729C112.007 448.185 115.645 462.475 120.705 485.545C120.761 485.802 121.014 485.966 121.27 485.91C121.525 485.854 121.686 485.599 121.63 485.342L121.003 482.496L120.271 479.202C115.7 458.761 112.418 446.281 110.41 441.715C108.187 436.662 103.981 431.981 97.8019 427.667C97.5865 427.517 97.2916 427.571 97.1431 427.787C96.9947 428.004 97.0489 428.301 97.2643 428.452Z"
    fill="#02B596"
  />
  <path
    fill-rule="evenodd"
    clip-rule="evenodd"
    d="M144.623 418.56C135.978 418.408 128.847 425.294 128.698 433.94L128.564 441.653C137.209 441.805 144.34 434.919 144.49 426.273L144.623 418.56Z"
    fill="#02D3AF"
  />
  <path
    fill-rule="evenodd"
    clip-rule="evenodd"
    d="M138.951 421.662C133.39 429.822 129.326 437.699 126.763 445.293C124.203 452.874 121.65 464.581 119.1 480.424C119.058 480.684 119.233 480.93 119.491 480.972C119.75 481.014 119.993 480.837 120.035 480.577L120.348 478.651L120.563 477.353C122.93 463.186 125.296 452.6 127.659 445.601C130.193 438.095 134.217 430.295 139.731 422.203C139.879 421.985 139.825 421.688 139.609 421.539C139.394 421.389 139.099 421.444 138.951 421.662Z"
    fill="#02B596"
  />
  <path
    fill-rule="evenodd"
    clip-rule="evenodd"
    d="M126.905 416.316C126.905 416.316 122.395 429.164 120.401 448.089C118.408 467.013 119.571 485.938 119.571 485.938L121.772 486.138C121.772 486.138 120.59 464.05 122.009 448.172C123.429 432.294 128.005 416.416 128.005 416.416L126.905 416.316Z"
    fill="#02B596"
  />
  <ellipse
    cx="129.201"
    cy="409.952"
    rx="7.26372"
    ry="11.1372"
    transform="rotate(14 129.201 409.952)"
    fill="#C2FFF4"
  />
  <ellipse
    cx="129.347"
    cy="410.625"
    rx="5.05298"
    ry="7.26093"
    transform="rotate(14 129.347 410.625)"
    fill="#02D3AF"
  />
  <path
    fill-rule="evenodd"
    clip-rule="evenodd"
    d="M128.726 417.005L132.783 404.341C133.025 403.588 132.615 402.781 131.869 402.538C131.122 402.294 130.321 402.707 130.08 403.46L126.022 416.124C125.781 416.877 126.191 417.685 126.937 417.928C127.684 418.171 128.484 417.758 128.726 417.005Z"
    fill="url(#paint7_linear_6_349)"
  />
  <path
    fill-rule="evenodd"
    clip-rule="evenodd"
    d="M104.95 403.586C104.95 403.586 110.778 415.892 114.739 434.505C118.7 453.117 119.521 472.06 119.521 472.06L117.354 472.489C117.354 472.489 116.22 450.399 113.149 434.756C110.077 419.113 103.867 403.801 103.867 403.801L104.95 403.586Z"
    fill="#02B596"
  />
  <ellipse
    rx="7.26372"
    ry="11.1372"
    transform="matrix(-0.939693 0.34202 0.34202 0.939693 102.001 397.496)"
    fill="#C2FFF4"
  />
  <ellipse
    rx="5.05298"
    ry="7.26093"
    transform="matrix(-0.939693 0.34202 0.34202 0.939693 101.927 398.181)"
    fill="#02D3AF"
  />
  <path
    fill-rule="evenodd"
    clip-rule="evenodd"
    d="M103.212 404.462L97.8523 392.291C97.5337 391.568 97.8566 390.722 98.5735 390.402C99.2905 390.082 100.13 390.409 100.449 391.132L105.808 403.303C106.126 404.026 105.804 404.872 105.087 405.192C104.37 405.512 103.53 405.185 103.212 404.462Z"
    fill="url(#paint8_linear_6_349)"
  />
  <path
    fill-rule="evenodd"
    clip-rule="evenodd"
    d="M152.02 441.348C140.792 445.742 132.964 450.819 128.537 456.599C124.111 462.378 121.186 471.341 119.744 483.49C119.713 483.752 119.898 483.99 120.157 484.021C120.417 484.053 120.653 483.866 120.684 483.604C122.108 471.611 124.982 462.803 129.287 457.183C133.591 451.563 141.282 446.575 152.362 442.239C152.606 442.143 152.727 441.867 152.632 441.621C152.538 441.375 152.264 441.253 152.02 441.348Z"
    fill="#02B596"
  />
  <path
    fill-rule="evenodd"
    clip-rule="evenodd"
    d="M121.93 476.595C116.599 457.598 95.5469 463.157 95.5469 463.157C95.5469 463.157 111.308 468.308 119.346 476.595H121.93Z"
    fill="#02B596"
  />
  <path
    fill-rule="evenodd"
    clip-rule="evenodd"
    d="M121.875 473.677C127.206 454.68 144.975 457.458 144.975 457.458C144.975 457.458 134.183 466.329 124.458 473.677H121.875Z"
    fill="#02B596"
  />
  <path
    fill-rule="evenodd"
    clip-rule="evenodd"
    d="M121.837 477.453C117.071 460.599 128.188 446.092 128.188 446.092C128.188 446.092 127.625 466.052 123.761 476.222L121.837 477.453Z"
    fill="#02B596"
  />
  <path
    fill-rule="evenodd"
    clip-rule="evenodd"
    d="M117.174 473.677C115.067 467.587 112.971 459.082 111.4 450.837C119.163 453.959 121.657 466.397 119.163 473.677H117.174Z"
    fill="#02D3AF"
  />
  <path
    fill-rule="evenodd"
    clip-rule="evenodd"
    d="M102.022 469.762C101.919 468.584 102.847 467.571 104.03 467.571H134.682C135.865 467.571 136.793 468.584 136.69 469.762L130.783 537.355C130.692 538.396 129.82 539.195 128.775 539.195H109.937C108.891 539.195 108.019 538.396 107.928 537.355L102.022 469.762Z"
    fill="#7569EC"
  />
  <mask
    id="mask1_6_349"
    style="mask-type: alpha"
    maskUnits="userSpaceOnUse"
    x="102"
    y="467"
    width="35"
    height="73"
  >
    <path
      fill-rule="evenodd"
      clip-rule="evenodd"
      d="M102.022 469.762C101.919 468.584 102.847 467.571 104.03 467.571H134.682C135.865 467.571 136.793 468.584 136.69 469.762L130.783 537.355C130.692 538.396 129.82 539.195 128.775 539.195H109.937C108.891 539.195 108.019 538.396 107.928 537.355L102.022 469.762Z"
      fill="white"
    />
  </mask>
  <g mask="url(#mask1_6_349)">
    <path
      fill-rule="evenodd"
      clip-rule="evenodd"
      d="M97.4082 463.099H110.353C102.331 493.552 126.478 514.488 110.353 544.941H97.4082V463.099Z"
      fill="#8175FF"
    />
  </g>
  <path
    fill-rule="evenodd"
    clip-rule="evenodd"
    d="M679.746 449.882L668.303 540.29L674.302 540.21L685.745 450.728L679.746 449.882Z"
    fill="#91D6FF"
  />
  <path
    fill-rule="evenodd"
    clip-rule="evenodd"
    d="M646.447 449.882L635.004 540.29L641.003 540.21L652.446 450.728L646.447 449.882Z"
    fill="#91D6FF"
  />
  <path
    fill-rule="evenodd"
    clip-rule="evenodd"
    d="M719.493 449.882L730.936 540.29L724.936 540.21L713.493 450.728L719.493 449.882Z"
    fill="#BFE7FF"
  />
  <path
    fill-rule="evenodd"
    clip-rule="evenodd"
    d="M642.07 464.093C636.854 464.093 632.625 459.864 632.625 454.648C632.625 449.431 636.854 445.203 642.07 445.203H679.833C685.554 445.203 690.336 440.849 690.872 435.153L696.91 370.96C697.445 365.264 702.227 360.91 707.949 360.91H731.649C738.108 360.91 743.199 366.408 742.705 372.848L736.48 453.855C736.036 459.632 731.219 464.093 725.425 464.093H642.07Z"
    fill="#91D6FF"
  />
  <path
    fill-rule="evenodd"
    clip-rule="evenodd"
    d="M632.627 454.567C632.679 454.568 632.731 454.569 632.783 454.569H715.913C721.706 454.569 726.523 450.109 726.968 444.332L733.188 363.614C733.256 362.734 733.219 361.872 733.089 361.038C732.537 360.954 731.972 360.91 731.395 360.91H707.807C702.086 360.91 697.305 365.262 696.768 370.957L690.735 434.916C690.197 440.611 685.416 444.963 679.696 444.963H642.046C636.843 444.963 632.625 449.181 632.625 454.384C632.625 454.445 632.626 454.506 632.627 454.567Z"
    fill="#BFE7FF"
  />
  <path
    fill-rule="evenodd"
    clip-rule="evenodd"
    d="M644.11 511.415C644.11 511.415 649.356 522.01 645.055 525.349C640.748 528.688 629.372 534.946 629.372 534.946L659.512 533.052L652.812 509.944L644.11 511.415Z"
    fill="url(#paint9_linear_6_349)"
  />
  <path
    fill-rule="evenodd"
    clip-rule="evenodd"
    d="M656.525 521.003C655.576 521.455 657.136 525.712 653.799 525.413C650.463 525.115 648.368 520.714 645.908 521C643.447 521.285 641.885 525.717 637.2 528.803C632.517 531.89 625.572 535.572 626.037 538.675C626.502 541.779 637.431 542.61 642.968 541.582C648.505 540.556 651.089 538.33 654.681 538.507C658.273 538.685 660.531 538.245 661.657 535.939C662.782 533.632 657.619 520.48 656.525 521.003Z"
    fill="#EEDFE8"
  />
  <path
    fill-rule="evenodd"
    clip-rule="evenodd"
    d="M656.258 535.167L655.951 535.149C651.499 534.774 648.445 537.574 644.208 538.363C639.97 539.153 628.795 539.426 627.01 536.775C626.925 536.65 626.847 536.521 626.774 536.391C626.174 537.128 625.892 537.917 626.037 538.836C626.502 541.789 637.432 542.58 642.969 541.603C648.506 540.626 651.091 538.507 654.683 538.676L655.322 538.7C658.545 538.788 660.601 538.294 661.66 536.232C661.917 535.729 661.859 534.649 661.601 533.283C660.098 534.311 658.202 535.226 656.258 535.167Z"
    fill="#EC7AA5"
  />
  <path
    fill-rule="evenodd"
    clip-rule="evenodd"
    d="M689.511 418.032C680.387 418.439 629.601 429.672 620.375 431.58C611.148 433.488 603.347 443.814 610.383 455.772C618.285 469.194 638.675 507.314 643.626 515.907C646.076 520.16 658.437 517.775 655.534 510.636C650.121 497.329 647.607 463.898 633.807 451.709C633.807 451.709 680.217 459.786 700.264 450.534C714.833 443.808 711.537 417.047 689.511 418.032Z"
    fill="#413C75"
  />
  <path
    fill-rule="evenodd"
    clip-rule="evenodd"
    d="M625.857 361.074C625.857 361.074 625.961 355.65 623.364 351.77C620.766 347.89 620.663 343.768 618.698 343.903C616.732 344.038 618.679 353.618 618.679 353.618C618.679 353.618 616.185 352.665 614.393 351.46C612.602 350.255 607.169 344.314 605.899 345.367C603.747 347.16 607.214 357.279 609.102 359.302C610.997 361.326 620.346 366.98 620.346 366.98L647.881 394.719L651.998 379.993L625.857 361.074Z"
    fill="url(#paint10_linear_6_349)"
  />
  <path
    fill-rule="evenodd"
    clip-rule="evenodd"
    d="M680.932 358.625C676.687 368.47 668.915 386.556 665.711 391.951C661.696 398.708 655.365 401.685 647.951 396.672C646.4 395.623 641.946 391.954 641.946 391.954C642.605 385.532 645.004 380.164 649.14 375.849L651.949 378.172C651.949 378.172 659.915 357.752 666.323 345.923C671.872 335.689 687.393 343.659 680.932 358.625Z"
    fill="#EA5455"
  />
  <path
    fill-rule="evenodd"
    clip-rule="evenodd"
    d="M651.867 378.183C651.867 378.183 649.728 385.44 649.228 385.019C648.727 384.599 649.61 376.286 649.61 376.286L651.867 378.183Z"
    fill="black"
    fill-opacity="0.159856"
  />
  <path
    fill-rule="evenodd"
    clip-rule="evenodd"
    d="M699.278 320.411V329.123L705.675 323.972C705.675 323.972 707.642 315.626 709.241 309.427C710.244 305.539 712.687 292.384 702.851 293C694.793 278.796 671.327 287.587 671.14 304.94C670.916 325.811 671.099 333.937 671.099 333.937C684.369 334.698 691.837 332.78 699.278 320.411Z"
    fill="#422851"
  />
  <path
    fill-rule="evenodd"
    clip-rule="evenodd"
    d="M705.814 336.997C705.814 336.997 699.864 335.6 699.657 325.85C699.451 316.099 699.596 312.77 699.596 312.77L686.488 312.534C686.488 312.534 686.345 323.401 686.343 327.332C686.337 336.889 679.309 337.672 679.309 337.672C679.309 337.672 680.51 345.558 692.388 346.225C701.661 346.748 705.814 336.997 705.814 336.997Z"
    fill="url(#paint11_linear_6_349)"
  />
  <path
    fill-rule="evenodd"
    clip-rule="evenodd"
    d="M702.65 307.901C708.498 307.675 707.544 316.235 701.47 316.224C701.47 316.224 697.942 328.384 685.692 328.384C675.744 328.384 675.097 314.211 675.007 311.384C674.91 308.369 674.898 298.465 674.898 298.465L702.878 298.452L702.65 307.901Z"
    fill="url(#paint12_linear_6_349)"
  />
  <path
    fill-rule="evenodd"
    clip-rule="evenodd"
    d="M703.103 307.845C700.68 308.245 700.974 309.849 700.315 309.709C696.969 308.997 683.425 309.936 681.681 302.488C679.511 307.141 678.98 308.285 674.202 309.534V295.899L704.424 293C704.424 293 703.955 307.704 703.103 307.845Z"
    fill="#422851"
  />
  <path
    d="M688.055 320.215C688.055 320.215 685.137 322.685 681.758 320.372"
    stroke="#F77B7B"
    stroke-width="1.5"
    stroke-linecap="round"
  />
  <path
    d="M686.129 323.076C685.221 323.494 684.347 323.525 683.567 323.107"
    stroke="#F49494"
    stroke-linecap="round"
  />
  <path
    d="M702.055 312.505C701.995 311.132 702.414 310.041 703.814 309.822"
    stroke="#F77B7B"
    stroke-linecap="round"
  />
  <path
    fill-rule="evenodd"
    clip-rule="evenodd"
    d="M704.484 336C697.016 340.574 688.382 342.251 680.345 337.284C667.23 363.145 663.961 394.002 667.116 428.106C686.241 435.678 702.315 434.189 716 425.534L704.484 336Z"
    fill="#FFE4F4"
  />
  <path
    fill-rule="evenodd"
    clip-rule="evenodd"
    d="M611.415 511.84C611.415 511.84 611.573 524.311 601.297 528.974C591.028 533.635 583.711 533.355 584.643 536.959C585.574 540.563 612.304 540.418 614.8 537.599C616.928 535.201 621.554 512.872 622.828 514.579L611.415 511.84Z"
    fill="url(#paint13_linear_6_349)"
  />
  <path
    fill-rule="evenodd"
    clip-rule="evenodd"
    d="M618.879 529.452C617.304 528.319 615.98 534.853 611.703 533.036C607.425 531.219 610.798 525.213 608.106 524.105C605.414 522.998 600.216 528.953 593.312 530.401C586.408 531.848 580.803 533.114 579.21 535.801C577.838 538.111 579.21 538.849 579.21 538.849C579.21 538.849 585.856 542.168 589.986 542.899C595.986 543.96 613.325 544.667 615.225 542.732C616.392 541.545 619.667 530.019 618.879 529.452Z"
    fill="#EEDFE8"
  />
  <path
    fill-rule="evenodd"
    clip-rule="evenodd"
    d="M578.835 536.073C577.533 538.196 579.587 539.3 579.833 539.422L580.824 539.844C582.704 540.626 586.946 542.302 590.081 542.901C595.829 544 613.628 544.651 615.543 542.762C615.879 542.43 616.295 541.217 616.697 539.641L615.476 539.774C609.598 540.397 596.477 541.524 590.002 539.998C584.254 538.644 581.108 536.417 579.673 535.117C579.324 535.416 579.042 535.734 578.835 536.073Z"
    fill="#EC7AA5"
  />
  <path
    fill-rule="evenodd"
    clip-rule="evenodd"
    d="M718.102 414.177C718.102 414.177 731.368 442.192 712.725 451.812C694.696 461.115 640.724 450.112 640.724 450.112C640.724 450.112 641.689 457.877 640.724 464.802C638.206 482.889 626.226 513.023 623.692 516.809C620.187 522.046 609.51 518.097 609.309 513.737C609.107 509.377 617.357 453.693 618.612 443.075C619.86 432.456 623.8 430.913 635.309 428.01C637.953 427.343 669.22 419.573 672.084 419.8C696.695 421.746 718.102 414.177 718.102 414.177Z"
    fill="#524D87"
  />
  <path
    fill-rule="evenodd"
    clip-rule="evenodd"
    d="M703.56 448.921C685.711 450.921 638.456 446.798 636.558 448.671C634.746 450.46 635.049 481.575 630.984 499.585L631.602 497.884C635.425 487.267 639.394 474.354 640.724 464.802C641.689 457.877 640.724 450.112 640.724 450.112L642.901 450.533C653.16 452.46 696.86 459.999 712.725 451.812C721.322 447.376 724.83 440.006 723.249 429.703C720.527 441.349 713.964 447.755 703.56 448.921Z"
    fill="white"
    fill-opacity="0.056108"
  />
  <path
    fill-rule="evenodd"
    clip-rule="evenodd"
    d="M704.157 336.021C691.788 376.537 684.371 433.979 722.999 423.986C702.48 386.206 730.375 369.202 724.052 349.676C721.89 343 704.318 335.497 704.157 336.021Z"
    fill="#EA5455"
  />
  <path
    fill-rule="evenodd"
    clip-rule="evenodd"
    d="M718.107 352.846C704.128 354.955 715.652 379.362 711.037 383.039C706.423 386.716 698.391 387.113 697.525 389.359C695.785 393.874 704.199 405.271 722.767 423.551L723 423.986C705.125 391.076 723.988 373.931 724.969 357.151C722.898 353.903 720.61 352.468 718.107 352.846Z"
    fill="black"
    fill-opacity="0.159856"
  />
  <path
    fill-rule="evenodd"
    clip-rule="evenodd"
    d="M681 337C676.28 348.838 674.011 358.127 671.894 375.503C670.129 389.975 671.013 419.84 671.013 419.84L665.18 420.987C665.18 420.987 661.01 374.848 662.404 368.907C664.744 358.938 666.329 353.113 669.418 344C671.12 338.998 681 337 681 337Z"
    fill="#EA5455"
  />
  <path
    fill-rule="evenodd"
    clip-rule="evenodd"
    d="M701.56 382.017C701.56 382.017 693.944 374.392 691.307 373.507C688.669 372.622 674.222 371.559 674.32 373.559C674.431 375.701 683.727 375.578 684.587 376.632C685.446 377.685 686.642 385.888 689.891 386.697C693.134 387.506 699.857 389.9 699.857 389.9L729.781 405.362L726.593 389.901L701.56 382.017Z"
    fill="url(#paint14_linear_6_349)"
  />
  <path
    fill-rule="evenodd"
    clip-rule="evenodd"
    d="M724.48 349.731C733.557 362.542 741.307 382.056 744.282 389.664C747.256 397.272 744.256 408.747 731.175 406.494C729.618 406.226 727.084 405.24 727.084 405.24C722.275 398.647 721.431 392.987 723.226 387.947L724.918 388.661C724.918 388.661 711.917 365.617 708.742 359.439C703.44 349.122 716.485 338.444 724.48 349.731Z"
    fill="#EA5455"
  />
  <path
    fill-rule="evenodd"
    clip-rule="evenodd"
    d="M724.917 388.661C724.917 388.661 731.521 391.887 730.69 390.468C729.86 389.049 722.402 384.182 722.402 384.182L724.917 388.661Z"
    fill="black"
    fill-opacity="0.159856"
  />
  <path
    fill-rule="evenodd"
    clip-rule="evenodd"
    d="M586.967 346.044C586.638 344.724 587.441 343.387 588.762 343.058L612.231 337.206C613.552 336.877 614.889 337.68 615.218 339.001L623.74 373.181C624.069 374.501 623.266 375.838 621.946 376.168L598.476 382.019C597.156 382.348 595.818 381.545 595.489 380.225L586.967 346.044Z"
    fill="url(#paint15_linear_6_349)"
  />
  <path
    fill-rule="evenodd"
    clip-rule="evenodd"
    d="M587.883 346.595C587.554 345.275 588.358 343.938 589.678 343.608L613.147 337.757C614.468 337.428 615.805 338.231 616.134 339.552L624.656 373.732C624.985 375.052 624.182 376.389 622.862 376.718L599.392 382.57C598.072 382.899 596.734 382.096 596.405 380.775L587.883 346.595Z"
    fill="#518DF8"
  />
  <path
    d="M588.884 346.896C588.588 345.708 589.311 344.504 590.499 344.208L612.571 338.705C613.76 338.408 614.963 339.131 615.26 340.32L622.965 371.223C623.261 372.411 622.538 373.615 621.349 373.911L599.277 379.414C598.089 379.71 596.885 378.987 596.589 377.799L588.884 346.896Z"
    fill="white"
  />
  <path
    fill-rule="evenodd"
    clip-rule="evenodd"
    d="M384.203 395.871H395.62V540.751H384.203L384.203 395.871Z"
    fill="#E9E9E9"
  />
  <path
    fill-rule="evenodd"
    clip-rule="evenodd"
    d="M272.375 400.634L362.564 400.634V427.542H287.403V540.751H272.375V400.634Z"
    fill="#D3D3D3"
  />
  <path
    fill-rule="evenodd"
    clip-rule="evenodd"
    d="M271.791 400.634H279.791V540.751H271.791V400.634Z"
    fill="#DBDBDB"
  />
  <path
    fill-rule="evenodd"
    clip-rule="evenodd"
    d="M664.43 400.634H680.43V540.751H664.43V400.634Z"
    fill="#E9E9E9"
  />
  <path
    fill-rule="evenodd"
    clip-rule="evenodd"
    d="M664.43 395.871H674.43V540.751H664.43L664.43 395.871Z"
    fill="#DBDBDB"
  />
  <path
    fill-rule="evenodd"
    clip-rule="evenodd"
    d="M532.006 400.634L671.006 400.634V427.19H550.713V540.751H532.006V400.634Z"
    fill="#D3D3D3"
  />
  <path
    fill-rule="evenodd"
    clip-rule="evenodd"
    d="M283.59 395.871L532.479 395.871V436.101H283.59V395.871Z"
    fill="#DBDBDB"
  />
  <path
    fill-rule="evenodd"
    clip-rule="evenodd"
    d="M526.771 400.634H538.188V436.101H526.771V400.634Z"
    fill="#E9E9E9"
  />
  <path
    fill-rule="evenodd"
    clip-rule="evenodd"
    d="M532.041 400.634H541.041V540.751H532.041V400.634Z"
    fill="#DBDBDB"
  />
  <path
    fill-rule="evenodd"
    clip-rule="evenodd"
    d="M533.477 403.015C533.477 399.07 536.675 395.871 540.62 395.871L685.746 395.871C689.691 395.871 692.889 399.07 692.889 403.015C692.889 406.96 689.691 410.158 685.746 410.158H540.62C536.675 410.158 533.477 406.96 533.477 403.015Z"
    fill="#E9E9E9"
  />
  <path
    fill-rule="evenodd"
    clip-rule="evenodd"
    d="M280.736 398.729H529.626V413.016H280.736V398.729Z"
    fill="#E9E9E9"
  />
  <path
    fill-rule="evenodd"
    clip-rule="evenodd"
    d="M259.805 403.015C259.805 399.07 263.003 395.871 266.948 395.871H543.412C547.358 395.871 550.556 399.07 550.556 403.015C550.556 406.96 547.358 410.158 543.412 410.158H266.948C263.003 410.158 259.805 406.96 259.805 403.015Z"
    fill="#DBDBDB"
  />
  <path
    fill-rule="evenodd"
    clip-rule="evenodd"
    d="M304.386 505.181L296.488 530.824L313.055 531.425C313.055 531.425 311.184 522.653 313.855 514.43C315.998 507.829 317.746 504.535 317.746 504.535L304.386 505.181Z"
    fill="#92691F"
  />
  <path
    fill-rule="evenodd"
    clip-rule="evenodd"
    d="M312.622 524.378C312.622 524.378 318.945 530.238 325.026 532.409C331.107 534.58 333.435 534.604 333.868 535.421L333.947 535.577C335.198 538.159 334.439 541.589 320.578 541.779C317.209 541.825 313.706 539.868 304.408 537.797L303.736 541.417C298.532 541.348 295.496 540.528 294.627 538.956C293.317 536.605 295.543 525.011 297.079 524.791C298.614 524.571 298.918 529.287 303.041 529.39C307.17 529.493 312.622 524.378 312.622 524.378Z"
    fill="#391B0B"
  />
  <path
    fill-rule="evenodd"
    clip-rule="evenodd"
    d="M324.88 532.356C324.692 532.519 324.466 532.691 324.2 532.854C323.275 533.421 321.883 533.872 320.01 533.445C319.059 533.227 317.998 532.619 316.957 531.852C315.91 531.082 314.86 530.137 313.928 529.221C312.994 528.305 312.175 527.416 311.589 526.755C311.296 526.425 311.061 526.152 310.899 525.961C310.874 525.931 310.85 525.903 310.828 525.877C310.966 525.771 311.097 525.668 311.222 525.568C311.24 525.59 311.26 525.613 311.281 525.638C311.44 525.826 311.673 526.096 311.963 526.424C312.544 527.078 313.355 527.959 314.278 528.865C315.201 529.771 316.232 530.699 317.253 531.449C318.279 532.204 319.272 532.763 320.122 532.957C321.852 533.352 323.112 532.935 323.938 532.428C324.087 532.337 324.221 532.243 324.342 532.15C324.522 532.222 324.701 532.291 324.88 532.356Z"
    fill="#81411E"
  />
  <path
    fill-rule="evenodd"
    clip-rule="evenodd"
    d="M266.629 424.913C266.629 424.913 332.422 430.174 341.487 430.455C350.552 430.735 357.478 443.674 350.458 455.617C342.574 469.024 321.153 507.621 316.965 516.545C313.423 524.09 297.325 520.998 300.222 509.473C303.681 495.679 310.126 464.733 323.895 452.558C323.895 452.558 290.408 464.699 271.546 452.924C260.785 446.207 266.629 424.913 266.629 424.913Z"
    fill="#7A3636"
  />
  <path
    fill-rule="evenodd"
    clip-rule="evenodd"
    d="M350.458 455.617L349.432 457.376C345.442 464.272 338.999 475.923 332.848 487.27L333.171 486.231C337.929 471.092 345.32 453.258 348.48 447.817C349.588 445.91 351.096 443.966 353.004 441.985C353.814 446.14 353.199 450.954 350.458 455.617Z"
    fill="white"
    fill-opacity="0.192499"
  />
  <path
    fill-rule="evenodd"
    clip-rule="evenodd"
    d="M375.987 505.48C375.987 505.48 380.385 525.038 386.11 527.131C388.314 527.937 369.218 530.238 369.218 530.238L364.424 511.474L375.987 505.48Z"
    fill="#92691F"
  />
  <path
    fill-rule="evenodd"
    clip-rule="evenodd"
    d="M366.46 523.631L366.141 540.142L372.723 540.192L372.79 536.48C372.79 536.48 377.92 539.556 381.394 540.638C386.066 542.097 404.525 541.333 406.61 539.11C408.696 536.877 408.741 533.324 404.459 532.887C400.178 532.451 393.098 531.151 390.05 528.818C386.363 526.007 384.96 521.547 383.889 521.543C382.25 521.537 382.123 526.784 373.804 526.858C370.637 526.886 366.46 523.631 366.46 523.631Z"
    fill="#391B0B"
  />
  <path
    fill-rule="evenodd"
    clip-rule="evenodd"
    d="M382.186 523.015C382.186 523.015 386.431 529.639 388.954 530.598C391.478 531.547 393.512 530.482 393.512 530.482C393.512 530.482 389.16 528.748 387.479 525.722C383.672 518.867 382.91 522.354 382.186 523.015Z"
    fill="#81411E"
  />
  <path
    fill-rule="evenodd"
    clip-rule="evenodd"
    d="M272.075 430.228C272.075 430.228 271.983 451.248 286.106 456.532C300.23 461.815 346.22 459.827 346.22 459.827C346.22 459.827 360.814 513.525 364.311 518.755C367.808 523.986 384.39 524.527 383.493 512.481C382.59 500.435 376.119 455.713 374.867 445.107C373.622 434.5 369.69 431.96 358.208 430.06C354.172 429.392 355.885 428.322 329.941 427.107C324.369 426.846 315.02 428.932 306.429 429.877C297.837 430.822 272.075 430.228 272.075 430.228Z"
    fill="#7A3636"
  />
  <path
    fill-rule="evenodd"
    clip-rule="evenodd"
    d="M317.977 430.681L317.977 428.24L319.127 428.068C323.309 427.447 327.111 426.975 329.94 427.107L332.923 427.252C355.756 428.407 354.333 429.419 358.207 430.06L358.953 430.186C369.616 432.033 373.474 434.614 374.78 444.419L375.146 447.37C376.874 460.962 382.644 501.158 383.493 512.481C383.56 513.387 383.529 514.222 383.411 514.99L380.05 498.062C375.096 472.966 372.32 458.096 371.722 453.452L371.597 452.487C370.478 444.244 367.55 434.016 358.101 434.683L357.285 434.752C350.632 435.258 338.016 433.982 319.436 430.923L317.977 430.681Z"
    fill="white"
    fill-opacity="0.192499"
  />
  <ellipse
    cx="385.32"
    cy="446.912"
    rx="3.77561"
    ry="6.61391"
    transform="rotate(13 385.32 446.912)"
    fill="white"
    fill-opacity="0.192499"
  />
  <path
    fill-rule="evenodd"
    clip-rule="evenodd"
    d="M282.263 402.315C282.263 402.315 297.654 405.878 297.498 407.277C297.345 408.682 290.569 408.898 290.569 408.898C290.569 408.898 303.095 416.987 302.098 418.565C301.101 420.143 292.934 421.921 289.545 420.648C286.154 419.375 277.367 410.113 277.367 410.113L282.263 402.315Z"
    fill="url(#paint16_linear_6_349)"
  />
  <path
    fill-rule="evenodd"
    clip-rule="evenodd"
    d="M282.402 356.716C277.247 363.079 259.669 382.513 259.669 382.513C259.669 382.513 277.247 395.033 281.673 397.681C288.931 402.021 281.55 413.537 276.227 412.258C269.014 410.52 250.806 397.959 242.25 392.875C233.695 387.792 236.968 379.585 243.298 372.095C248.161 366.343 258.731 354.557 266.168 344.211C273.568 333.917 292.406 344.37 282.402 356.716Z"
    fill="#EA5455"
  />
  <path
    fill-rule="evenodd"
    clip-rule="evenodd"
    d="M259.67 382.513C259.67 382.513 254.721 387.281 255.235 387.65C255.75 388.019 261.713 383.979 261.713 383.979L259.67 382.513Z"
    fill="black"
    fill-opacity="0.159856"
  />
  <path
    fill-rule="evenodd"
    clip-rule="evenodd"
    d="M313.093 310.007C317.416 310.481 317.109 318.089 311.847 318.486C310.771 325.821 306.936 329.315 302.259 329.719L302.518 340.813L281.833 340.801C281.833 340.801 287.658 332.964 287.368 322.235C287.077 311.506 287.562 301.427 287.562 301.427L314.355 301.908L313.093 310.007Z"
    fill="url(#paint17_linear_6_349)"
  />
  <path
    fill-rule="evenodd"
    clip-rule="evenodd"
    d="M304.63 289.313C320.567 293.336 313.992 310.328 313.992 310.328C309.177 309.671 304.543 315.514 302.786 321.244C297.705 326.467 291.124 326.458 286.748 323.416C286.748 323.416 280.727 304.793 282.696 298.592C284.666 292.391 290.104 285.647 304.63 289.313Z"
    fill="#2C272E"
  />
  <path
    fill-rule="evenodd"
    clip-rule="evenodd"
    d="M266.957 343.288C265.526 345.724 264.501 355.536 266.957 394.408C268.229 414.537 262.819 434.376 264.217 443.109C265.615 451.843 275.223 452.886 275.223 452.886L280.826 434.657L283.462 452.886C283.462 452.886 323.196 449.171 326.678 440.125C330.167 431.06 325.785 409.75 324.743 389.683C323.697 369.537 324.482 348.858 322.556 345.724C318.713 339.468 308.821 336.546 302.682 335.61C294.891 334.422 284.833 334.377 278.854 336.273C272.875 338.168 268.388 340.852 266.957 343.288Z"
    fill="#EA5455"
  />
  <path
    fill-rule="evenodd"
    clip-rule="evenodd"
    d="M307.387 357.131C310.523 380.265 314.716 396.498 319.966 405.83C322.137 409.688 324.342 411.279 326.582 410.602L326.05 405.475C325.52 400.287 325.017 394.942 324.744 389.683C324.553 386.016 324.424 382.331 324.327 378.737L307.387 357.131Z"
    fill="black"
    fill-opacity="0.159856"
  />
  <path
    fill-rule="evenodd"
    clip-rule="evenodd"
    d="M278.854 336.273C278.492 336.388 278.141 336.507 277.802 336.631C286.387 340.374 300.562 339.874 308.268 336.825C306.26 336.258 304.335 335.862 302.682 335.61C294.891 334.422 284.834 334.377 278.854 336.273Z"
    fill="#E5AA41"
  />
  <path
    fill-rule="evenodd"
    clip-rule="evenodd"
    d="M384.153 377.168C384.153 377.168 396.938 368.633 399.197 366.919C401.449 365.212 404.276 352.268 402.524 350.452C401.678 349.573 395.282 355.486 394.141 356.278C393.007 357.062 387.208 360.556 387.208 360.556C387.208 360.556 388.849 350.648 387.436 349.849C386.391 349.268 384.3 351.818 384.021 354.513C383.741 357.208 380.834 360.723 380.459 364.813C380.289 366.599 378.53 370.013 378.53 370.013L384.153 377.168Z"
    fill="url(#paint18_linear_6_349)"
  />
  <path
    fill-rule="evenodd"
    clip-rule="evenodd"
    d="M308.013 360.801C312.912 370.981 321.232 385.863 325.802 394.589C331.21 404.915 337.654 409.29 350.651 401.628C361.536 395.211 377.232 384.89 385.342 379.281C392.889 374.061 383.968 361.175 376.838 365.529C367.38 371.297 343.192 382.728 343.192 382.728C343.192 382.728 330.745 359.991 325.577 349.075C319.003 335.201 298.532 341.101 308.013 360.801Z"
    fill="#EA5455"
  />
  <path
    fill-rule="evenodd"
    clip-rule="evenodd"
    d="M343.193 382.728C343.193 382.728 345.469 390.744 346.006 390.427C346.543 390.111 345.629 381.579 345.629 381.579L343.193 382.728Z"
    fill="black"
    fill-opacity="0.159856"
  />
  <path
    fill-rule="evenodd"
    clip-rule="evenodd"
    d="M292.767 461.221L281.324 542.179L287.324 542.1L298.767 462.067L292.767 461.221Z"
    fill="#BFE7FF"
  />
  <path
    fill-rule="evenodd"
    clip-rule="evenodd"
    d="M330.928 461.221L342.371 542.179L336.372 542.1L324.929 462.067L330.928 461.221Z"
    fill="#91D6FF"
  />
  <path
    fill-rule="evenodd"
    clip-rule="evenodd"
    d="M257.882 461.221L246.439 542.179L252.439 542.1L263.882 462.067L257.882 461.221Z"
    fill="#BFE7FF"
  />
  <path
    fill-rule="evenodd"
    clip-rule="evenodd"
    d="M335.305 465.983C340.521 465.983 344.75 461.754 344.75 456.538C344.75 451.321 340.521 447.092 335.305 447.092H297.542C291.821 447.092 287.039 442.739 286.503 437.043L280.465 372.85C279.93 367.153 275.148 362.8 269.426 362.8H245.726C239.267 362.8 234.176 368.298 234.67 374.737L240.895 455.744C241.339 461.522 246.156 465.983 251.95 465.983H335.305Z"
    fill="#BFE7FF"
  />
  <path
    fill-rule="evenodd"
    clip-rule="evenodd"
    d="M344.748 456.457C344.696 456.458 344.644 456.458 344.592 456.458H292.609C286.816 456.458 281.999 451.998 281.554 446.222L275.246 364.363C278.19 366.121 280.264 369.21 280.607 372.847L286.64 436.806C287.178 442.501 291.959 446.853 297.679 446.853H335.329C340.532 446.853 344.75 451.071 344.75 456.274C344.75 456.335 344.749 456.396 344.748 456.457Z"
    fill="#91D6FF"
  />
  <path
    fill-rule="evenodd"
    clip-rule="evenodd"
    d="M558.98 394.543C558.98 394.13 558.646 393.796 558.234 393.796H474.098C473.685 393.796 473.351 394.13 473.351 394.543V395.64C473.351 396.052 473.685 396.386 474.098 396.386H558.234C558.646 396.386 558.98 396.052 558.98 395.64V394.543Z"
    fill="url(#paint19_linear_6_349)"
  />
  <path
    fill-rule="evenodd"
    clip-rule="evenodd"
    d="M558.988 394.543C558.988 394.13 558.654 393.796 558.242 393.796H525.915C525.503 393.796 525.168 394.13 525.168 394.543V395.64C525.168 396.052 525.503 396.386 525.915 396.386H558.242C558.654 396.386 558.988 396.052 558.988 395.64V394.543Z"
    fill="#518DF8"
  />
  <path
    fill-rule="evenodd"
    clip-rule="evenodd"
    d="M565.092 358.353C565.367 356.201 563.691 354.296 561.521 354.296H505.71C503.898 354.296 502.369 355.642 502.139 357.439L497.988 389.852C497.712 392.004 499.389 393.909 501.559 393.909H557.37C559.181 393.909 560.711 392.563 560.941 390.766L565.092 358.353Z"
    fill="#518DF8"
  />
  <path
    fill-rule="evenodd"
    clip-rule="evenodd"
    d="M563.393 358.353C563.668 356.201 561.991 354.296 559.822 354.296H505.19C503.379 354.296 501.849 355.642 501.619 357.439L497.468 389.852C497.193 392.004 498.869 393.909 501.039 393.909H555.671C557.482 393.909 559.011 392.563 559.242 390.766L563.393 358.353Z"
    fill="url(#paint20_linear_6_349)"
  />
  <path
    d="M561.443 359.821C561.691 357.884 560.182 356.17 558.229 356.17H506.471C504.84 356.17 503.464 357.381 503.257 358.999L499.517 388.236C499.269 390.173 500.778 391.887 502.731 391.887H554.489C556.12 391.887 557.496 390.675 557.703 389.058L561.443 359.821Z"
    fill="white"
  />
  <path
    fill-rule="evenodd"
    clip-rule="evenodd"
    d="M424.644 404.22C424.644 404.22 438.245 407.393 438.107 408.638C437.972 409.89 431.984 410.082 431.984 410.082C431.984 410.082 443.053 417.285 442.172 418.69C441.291 420.095 434.074 421.678 431.079 420.545C428.082 419.412 420.317 411.164 420.317 411.164L398.53 399.463L405.812 389.858L424.644 404.22Z"
    fill="url(#paint21_linear_6_349)"
  />
  <path
    fill-rule="evenodd"
    clip-rule="evenodd"
    d="M424.766 363.617C420.21 369.282 404.677 386.588 404.677 386.588L407.743 388.889L397.771 400.985C397.771 400.985 391.403 397.083 389.284 395.815C381.723 391.288 384.616 383.98 390.21 377.311C394.507 372.189 403.848 361.695 410.42 352.482C416.96 343.316 433.607 352.624 424.766 363.617Z"
    fill="#FFB66F"
  />
  <path
    fill-rule="evenodd"
    clip-rule="evenodd"
    d="M404.677 386.588C404.677 386.588 400.304 390.833 400.758 391.162C401.213 391.491 406.482 387.893 406.482 387.893L404.677 386.588Z"
    fill="black"
    fill-opacity="0.159856"
  />
  <path
    fill-rule="evenodd"
    clip-rule="evenodd"
    d="M407.125 387.623L394.127 400.491L400.626 404.744L409.555 389.459L407.125 387.623Z"
    fill="#FFEDC2"
  />
  <path
    fill-rule="evenodd"
    clip-rule="evenodd"
    d="M448.635 503.233L441.604 525.882L453.422 526.413C453.422 526.413 451.756 518.665 454.134 511.403C456.041 505.572 457.598 502.663 457.598 502.663L448.635 503.233Z"
    fill="url(#paint22_linear_6_349)"
  />
  <path
    fill-rule="evenodd"
    clip-rule="evenodd"
    d="M453.518 519.78C453.518 519.78 453.271 525.547 455.285 527.369C457.298 529.19 467.978 535.917 468.873 537.272C469.768 538.628 468.455 540.283 468.455 540.283C468.455 540.283 457.551 541.993 452.407 539.354C448.694 537.448 446.041 535.891 446.041 535.891L444.901 538.82L438.947 537.965C438.947 537.965 437.112 533.316 437.9 531.004C438.689 528.692 442.758 517.889 442.758 517.889C442.758 517.889 453.518 519.78 453.518 519.78Z"
    fill="#391B0B"
  />
  <path
    fill-rule="evenodd"
    clip-rule="evenodd"
    d="M414.247 426.031C423.136 426.898 466.92 437.326 475.935 439.178C484.95 441.03 492.572 451.051 485.698 462.654C477.976 475.679 456.149 516.158 456.149 516.158C456.014 516.191 455.882 516.249 455.746 516.249C451.306 516.249 447.348 515.641 443.537 512.985C443.537 512.985 449.328 470.54 462.811 458.712C462.811 458.712 427.993 471.231 410.581 457.571C400.309 449.513 404.451 425.075 414.247 426.031Z"
    fill="#33373E"
  />
  <path
    fill-rule="evenodd"
    clip-rule="evenodd"
    d="M482.573 442.255L480.182 472.278C480.379 471.928 480.573 471.582 480.766 471.24L483.044 442.636C482.889 442.506 482.732 442.379 482.573 442.255Z"
    fill="white"
    fill-opacity="0.192499"
  />
  <path
    fill-rule="evenodd"
    clip-rule="evenodd"
    d="M514.095 501.444C514.095 501.444 517.972 518.714 523.017 520.562C524.96 521.273 511.031 523.305 511.031 523.305L506.806 506.737L514.095 501.444Z"
    fill="url(#paint23_linear_6_349)"
  />
  <path
    fill-rule="evenodd"
    clip-rule="evenodd"
    d="M509.255 518.544L512.933 540.165L519.309 539.157L518.522 533.811C518.522 533.811 521.318 538.468 524.437 538.267C527.565 538.065 543.207 535.707 543.207 535.707C543.207 535.707 543.559 530.529 536.364 529.346C530.379 528.363 520.174 516.809 520.174 516.809L509.255 518.544Z"
    fill="#391B0B"
  />
  <path
    fill-rule="evenodd"
    clip-rule="evenodd"
    d="M421.704 423.171C421.704 423.171 408.872 450.35 426.905 459.682C444.344 468.708 490.748 457.063 490.748 457.063C490.748 457.063 489.815 464.596 490.748 471.314C493.184 488.861 505.166 510.449 506.256 514.007C506.805 515.798 520.169 513.151 520.169 511.026C520.169 508.901 513.351 460.537 512.137 450.236C510.93 439.934 507.118 438.438 495.986 435.622C493.428 434.975 460.282 427.436 457.511 427.656C433.705 429.544 421.704 423.171 421.704 423.171Z"
    fill="#42474F"
  />
  <path
    fill-rule="evenodd"
    clip-rule="evenodd"
    d="M457.511 427.656C460.282 427.436 493.428 434.975 495.986 435.622L497.814 436.091C507.309 438.575 510.828 440.428 512.051 449.547L512.38 452.165C513.382 459.804 516.09 477.769 518.233 492.725C515.815 487.228 513.814 481.129 512.23 474.427C508.538 458.808 509.328 445.982 508.337 443.736C507.345 441.49 458.857 434.32 450.526 432.84C446.899 432.196 444.854 430.599 444.389 428.048C448.415 428.161 452.789 428.031 457.511 427.656Z"
    fill="white"
    fill-opacity="0.192499"
  />
  <path
    fill-rule="evenodd"
    clip-rule="evenodd"
    d="M451.202 318.877C455.054 319.299 454.781 326.08 450.092 326.434C449.134 332.97 445.716 336.084 441.549 336.444L441.78 346.331L423.347 346.32C423.347 346.32 428.538 339.336 428.279 329.775C428.02 320.213 428.453 311.231 428.453 311.231L452.327 311.66L451.202 318.877Z"
    fill="url(#paint24_linear_6_349)"
  />
  <path
    fill-rule="evenodd"
    clip-rule="evenodd"
    d="M452.04 319.385C447.553 317.609 444.239 325.257 440.806 330.573C437.373 335.889 428.48 334.985 427.254 330.573C422.613 320.908 418.614 307.769 424.029 306.691C424.792 292.723 461.306 296.021 452.04 319.385Z"
    fill="#9E5229"
  />
  <path
    fill-rule="evenodd"
    clip-rule="evenodd"
    d="M427.016 301.156H434.929H435.04L435.115 301.239C442.144 309.095 443.718 320.664 440.433 331.099C440.179 331.427 439.903 331.727 439.608 332.001C443.286 321.471 441.877 309.618 434.817 301.656H426.428C426.615 301.483 426.811 301.316 427.016 301.156Z"
    fill="black"
    fill-opacity="0.199355"
  />
  <ellipse
    rx="4.4008"
    ry="4.40615"
    transform="matrix(-1 0 0 1 431.867 301.406)"
    fill="#FB9934"
  />
  <path
    fill-rule="evenodd"
    clip-rule="evenodd"
    d="M455.708 348.001C459.788 353.987 466.589 374.303 466.975 378.873C467.409 384.145 461.749 392.544 461.656 400.176C461.574 407.809 465.878 426.915 464.585 429.062C463.302 431.209 420.688 443.621 418.288 442.601C415.887 441.581 407.6 430.581 409.494 426.11C411.398 421.64 419.264 411.499 418.363 405.408C417.474 399.318 412.306 376.836 409.74 369.184C407.184 361.532 408.036 353.499 412.806 350.206C415.167 348.577 421.465 343.948 432.681 343.97C443.897 343.991 455.391 347.537 455.708 348.001Z"
    fill="#FF9F43"
  />
  <path
    fill-rule="evenodd"
    clip-rule="evenodd"
    d="M464.855 373.966L445.3 359.915L445.306 362.483C445.378 378.33 446.376 386.724 462.973 412.695L462.589 410.048C462.048 406.206 461.629 402.608 461.656 400.176C461.714 395.361 463.989 390.241 465.551 385.793L464.855 373.966Z"
    fill="black"
    fill-opacity="0.159856"
  />
  <path
    fill-rule="evenodd"
    clip-rule="evenodd"
    d="M443.043 343.532C443.043 343.532 443.515 346.106 441.449 346.106C439.382 346.106 425.522 346.562 423.646 345.748C421.769 344.934 422.332 343.532 422.332 343.532H443.043Z"
    fill="#FFF6E1"
  />
  <path
    fill-rule="evenodd"
    clip-rule="evenodd"
    d="M512.124 378.861C512.124 378.861 523.41 371.328 525.405 369.815C527.393 368.309 529.888 356.885 528.342 355.283C527.595 354.507 521.948 359.725 520.941 360.424C519.941 361.116 514.82 364.2 514.82 364.2C514.82 364.2 516.269 355.456 515.022 354.751C514.099 354.238 512.254 356.488 512.007 358.866C511.76 361.244 509.194 364.347 508.862 367.956C508.713 369.533 508.129 371.577 508.129 371.577L476.813 385.025L480.09 399.648L512.124 378.861Z"
    fill="url(#paint25_linear_6_349)"
  />
  <path
    fill-rule="evenodd"
    clip-rule="evenodd"
    d="M444.906 364.416C449.231 373.4 456.576 386.534 460.61 394.235C465.384 403.349 471.073 407.21 482.547 400.448C483.89 399.656 486.795 397.892 486.795 397.892L479.691 382.12L475.963 383.768C475.963 383.768 464.974 363.701 460.412 354.067C454.608 341.822 436.536 347.03 444.906 364.416Z"
    fill="#FFB66F"
  />
  <path
    fill-rule="evenodd"
    clip-rule="evenodd"
    d="M475.964 383.768C475.964 383.768 477.973 390.842 478.448 390.563C478.922 390.283 478.115 382.753 478.115 382.753L475.964 383.768Z"
    fill="black"
    fill-opacity="0.159856"
  />
  <path
    fill-rule="evenodd"
    clip-rule="evenodd"
    d="M479.591 381.423L484.539 401.058L491.9 397.077L482.24 379.894L479.591 381.423Z"
    fill="#FFEDC2"
  />
  <path
    fill-rule="evenodd"
    clip-rule="evenodd"
    d="M432.338 298.15C432.338 298.15 428.189 292.84 423.399 294.233C418.608 295.626 414.275 304.165 416.332 312.191C418.379 320.219 416.691 324.797 414.208 330.207C407.536 344.76 430.634 354 430.634 354C430.634 354 428.832 343.217 432.338 336.705C435.948 329.999 437.998 321.399 437.998 316.137C437.998 306.986 432.338 298.15 432.338 298.15Z"
    fill="#9E5229"
  />
  <path
    fill-rule="evenodd"
    clip-rule="evenodd"
    d="M431.657 461.221L443.1 542.179L437.1 542.1L425.657 462.067L431.657 461.221Z"
    fill="#91D6FF"
  />
  <path
    fill-rule="evenodd"
    clip-rule="evenodd"
    d="M464.955 461.221L476.398 542.179L470.399 542.1L458.956 462.067L464.955 461.221Z"
    fill="#91D6FF"
  />
  <path
    fill-rule="evenodd"
    clip-rule="evenodd"
    d="M391.91 461.221L380.467 542.179L386.466 542.1L397.909 462.067L391.91 461.221Z"
    fill="#BFE7FF"
  />
  <path
    fill-rule="evenodd"
    clip-rule="evenodd"
    d="M469.332 465.983C474.549 465.983 478.777 461.754 478.777 456.538C478.777 451.321 474.549 447.092 469.332 447.092H431.57C425.848 447.092 421.066 442.739 420.531 437.043L414.493 372.85C413.957 367.153 409.175 362.8 403.453 362.8H379.753C373.295 362.8 368.203 368.298 368.698 374.737L374.922 455.744C375.366 461.522 380.183 465.983 385.978 465.983H469.332Z"
    fill="#BFE7FF"
  />
  <path
    fill-rule="evenodd"
    clip-rule="evenodd"
    d="M478.776 456.457C478.724 456.458 478.672 456.458 478.619 456.458H426.636C420.843 456.458 416.026 451.998 415.581 446.222L409.274 364.363C412.218 366.121 414.292 369.21 414.635 372.847L420.668 436.806C421.205 442.501 425.986 446.853 431.707 446.853H469.357C474.56 446.853 478.777 451.071 478.777 456.274C478.777 456.335 478.777 456.396 478.776 456.457Z"
    fill="#91D6FF"
  />
  <defs>
    <filter
      id="filter0_dd_6_349"
      x="70.8555"
      y="83.0082"
      width="191.801"
      height="107.428"
      filterUnits="userSpaceOnUse"
      color-interpolation-filters="sRGB"
    >
      <feFlood flood-opacity="0" result="BackgroundImageFix" />
      <feColorMatrix
        in="SourceAlpha"
        type="matrix"
        values="0 0 0 0 0 0 0 0 0 0 0 0 0 0 0 0 0 0 127 0"
        result="hardAlpha"
      />
      <feOffset dx="8" dy="9" />
      <feGaussianBlur stdDeviation="14" />
      <feColorMatrix
        type="matrix"
        values="0 0 0 0 0.0755213 0 0 0 0 0.582569 0 0 0 0 0.878793 0 0 0 0.229458 0"
      />
      <feBlend
        mode="normal"
        in2="BackgroundImageFix"
        result="effect1_dropShadow_6_349"
      />
      <feColorMatrix
        in="SourceAlpha"
        type="matrix"
        values="0 0 0 0 0 0 0 0 0 0 0 0 0 0 0 0 0 0 127 0"
        result="hardAlpha"
      />
      <feOffset dy="2" />
      <feGaussianBlur stdDeviation="7.5" />
      <feColorMatrix
        type="matrix"
        values="0 0 0 0 0.503982 0 0 0 0 0.700178 0 0 0 0 1 0 0 0 0.233829 0"
      />
      <feBlend
        mode="normal"
        in2="effect1_dropShadow_6_349"
        result="effect2_dropShadow_6_349"
      />
      <feBlend
        mode="normal"
        in="SourceGraphic"
        in2="effect2_dropShadow_6_349"
        result="shape"
      />
    </filter>
    <filter
      id="filter1_dd_6_349"
      x="70.8555"
      y="141.592"
      width="224.949"
      height="198.68"
      filterUnits="userSpaceOnUse"
      color-interpolation-filters="sRGB"
    >
      <feFlood flood-opacity="0" result="BackgroundImageFix" />
      <feColorMatrix
        in="SourceAlpha"
        type="matrix"
        values="0 0 0 0 0 0 0 0 0 0 0 0 0 0 0 0 0 0 127 0"
        result="hardAlpha"
      />
      <feOffset dx="8" dy="9" />
      <feGaussianBlur stdDeviation="14" />
      <feColorMatrix
        type="matrix"
        values="0 0 0 0 0.0755213 0 0 0 0 0.582569 0 0 0 0 0.878793 0 0 0 0.229458 0"
      />
      <feBlend
        mode="normal"
        in2="BackgroundImageFix"
        result="effect1_dropShadow_6_349"
      />
      <feColorMatrix
        in="SourceAlpha"
        type="matrix"
        values="0 0 0 0 0 0 0 0 0 0 0 0 0 0 0 0 0 0 127 0"
        result="hardAlpha"
      />
      <feOffset dy="2" />
      <feGaussianBlur stdDeviation="7.5" />
      <feColorMatrix
        type="matrix"
        values="0 0 0 0 0.503982 0 0 0 0 0.700178 0 0 0 0 1 0 0 0 0.233829 0"
      />
      <feBlend
        mode="normal"
        in2="effect1_dropShadow_6_349"
        result="effect2_dropShadow_6_349"
      />
      <feBlend
        mode="normal"
        in="SourceGraphic"
        in2="effect2_dropShadow_6_349"
        result="shape"
      />
    </filter>
    <filter
      id="filter2_d_6_349"
      x="96.5059"
      y="202.89"
      width="161.424"
      height="97.3127"
      filterUnits="userSpaceOnUse"
      color-interpolation-filters="sRGB"
    >
      <feFlood flood-opacity="0" result="BackgroundImageFix" />
      <feColorMatrix
        in="SourceAlpha"
        type="matrix"
        values="0 0 0 0 0 0 0 0 0 0 0 0 0 0 0 0 0 0 127 0"
        result="hardAlpha"
      />
      <feOffset dy="13" />
      <feGaussianBlur stdDeviation="7.5" />
      <feColorMatrix
        type="matrix"
        values="0 0 0 0 0 0 0 0 0 0 0 0 0 0 0 0 0 0 0.144395 0"
      />
      <feBlend
        mode="normal"
        in2="BackgroundImageFix"
        result="effect1_dropShadow_6_349"
      />
      <feBlend
        mode="normal"
        in="SourceGraphic"
        in2="effect1_dropShadow_6_349"
        result="shape"
      />
    </filter>
    <filter
      id="filter3_d_6_349"
      x="276.232"
      y="105.237"
      width="272.182"
      height="197.485"
      filterUnits="userSpaceOnUse"
      color-interpolation-filters="sRGB"
    >
      <feFlood flood-opacity="0" result="BackgroundImageFix" />
      <feColorMatrix
        in="SourceAlpha"
        type="matrix"
        values="0 0 0 0 0 0 0 0 0 0 0 0 0 0 0 0 0 0 127 0"
        result="hardAlpha"
      />
      <feOffset dx="6" dy="6" />
      <feGaussianBlur stdDeviation="8" />
      <feColorMatrix
        type="matrix"
        values="0 0 0 0 0.70188 0 0 0 0 0.70188 0 0 0 0 0.70188 0 0 0 0.208725 0"
      />
      <feBlend
        mode="normal"
        in2="BackgroundImageFix"
        result="effect1_dropShadow_6_349"
      />
      <feBlend
        mode="normal"
        in="SourceGraphic"
        in2="effect1_dropShadow_6_349"
        result="shape"
      />
    </filter>
    <linearGradient
      id="paint0_linear_6_349"
      x1="554.831"
      y1="311.939"
      x2="543.751"
      y2="361.416"
      gradientUnits="userSpaceOnUse"
    >
      <stop stop-color="#FFAFAF" />
      <stop offset="1" stop-color="#F07777" />
    </linearGradient>
    <linearGradient
      id="paint1_linear_6_349"
      x1="553.971"
      y1="302.545"
      x2="547.323"
      y2="335.064"
      gradientUnits="userSpaceOnUse"
    >
      <stop stop-color="#FDC6C6" />
      <stop offset="1" stop-color="#FAB2B2" />
    </linearGradient>
    <linearGradient
      id="paint2_linear_6_349"
      x1="506.96"
      y1="505.352"
      x2="505.367"
      y2="535.133"
      gradientUnits="userSpaceOnUse"
    >
      <stop stop-color="#FDC6C6" />
      <stop offset="1" stop-color="#FAB2B2" />
    </linearGradient>
    <linearGradient
      id="paint3_linear_6_349"
      x1="475.89"
      y1="543.704"
      x2="427.815"
      y2="451.427"
      gradientUnits="userSpaceOnUse"
    >
      <stop stop-color="#28324F" />
      <stop offset="1" stop-color="#222735" />
    </linearGradient>
    <linearGradient
      id="paint4_linear_6_349"
      x1="470.77"
      y1="340.915"
      x2="468.618"
      y2="369.518"
      gradientUnits="userSpaceOnUse"
    >
      <stop stop-color="#FDC6C6" />
      <stop offset="1" stop-color="#FAB2B2" />
    </linearGradient>
    <linearGradient
      id="paint5_linear_6_349"
      x1="549.733"
      y1="370.46"
      x2="549.102"
      y2="388.93"
      gradientUnits="userSpaceOnUse"
    >
      <stop stop-color="#FDC6C6" />
      <stop offset="1" stop-color="#FAB2B2" />
    </linearGradient>
    <linearGradient
      id="paint6_linear_6_349"
      x1="242.336"
      y1="202.269"
      x2="232.447"
      y2="203.194"
      gradientUnits="userSpaceOnUse"
    >
      <stop stop-color="#4D63A0" />
      <stop offset="1" stop-color="#222735" />
    </linearGradient>
    <linearGradient
      id="paint7_linear_6_349"
      x1="127.011"
      y1="401.433"
      x2="127.011"
      y2="417.998"
      gradientUnits="userSpaceOnUse"
    >
      <stop stop-color="#FE62BE" />
      <stop offset="1" stop-color="#FDB3A8" />
    </linearGradient>
    <linearGradient
      id="paint8_linear_6_349"
      x1="103.289"
      y1="388.795"
      x2="105.02"
      y2="405.27"
      gradientUnits="userSpaceOnUse"
    >
      <stop stop-color="#FE62BE" />
      <stop offset="1" stop-color="#FDB3A8" />
    </linearGradient>
    <linearGradient
      id="paint9_linear_6_349"
      x1="664.727"
      y1="503.858"
      x2="663.131"
      y2="533.708"
      gradientUnits="userSpaceOnUse"
    >
      <stop stop-color="#FDC6C6" />
      <stop offset="1" stop-color="#FAB2B2" />
    </linearGradient>
    <linearGradient
      id="paint10_linear_6_349"
      x1="660.093"
      y1="331.529"
      x2="655.853"
      y2="392.079"
      gradientUnits="userSpaceOnUse"
    >
      <stop stop-color="#FDC6C6" />
      <stop offset="1" stop-color="#FAB2B2" />
    </linearGradient>
    <linearGradient
      id="paint11_linear_6_349"
      x1="714.443"
      y1="307.528"
      x2="703.218"
      y2="357.065"
      gradientUnits="userSpaceOnUse"
    >
      <stop stop-color="#FFAFAF" />
      <stop offset="1" stop-color="#F07777" />
    </linearGradient>
    <linearGradient
      id="paint12_linear_6_349"
      x1="713.685"
      y1="298.112"
      x2="707.025"
      y2="330.709"
      gradientUnits="userSpaceOnUse"
    >
      <stop stop-color="#FDC6C6" />
      <stop offset="1" stop-color="#FAB2B2" />
    </linearGradient>
    <linearGradient
      id="paint13_linear_6_349"
      x1="629.45"
      y1="505.061"
      x2="627.889"
      y2="538.334"
      gradientUnits="userSpaceOnUse"
    >
      <stop stop-color="#FDC6C6" />
      <stop offset="1" stop-color="#FAB2B2" />
    </linearGradient>
    <linearGradient
      id="paint14_linear_6_349"
      x1="739.378"
      y1="364.401"
      x2="737.871"
      y2="403.785"
      gradientUnits="userSpaceOnUse"
    >
      <stop stop-color="#FDC6C6" />
      <stop offset="1" stop-color="#FAB2B2" />
    </linearGradient>
    <linearGradient
      id="paint15_linear_6_349"
      x1="586.221"
      y1="334.275"
      x2="598.146"
      y2="382.102"
      gradientUnits="userSpaceOnUse"
    >
      <stop stop-color="#9FF6EC" />
      <stop offset="1" stop-color="#7D9DFF" />
    </linearGradient>
    <linearGradient
      id="paint16_linear_6_349"
      x1="291.949"
      y1="390.304"
      x2="303.7"
      y2="416.424"
      gradientUnits="userSpaceOnUse"
    >
      <stop stop-color="#FDC6C6" />
      <stop offset="1" stop-color="#A47070" />
    </linearGradient>
    <linearGradient
      id="paint17_linear_6_349"
      x1="322.015"
      y1="291.839"
      x2="318.539"
      y2="338.739"
      gradientUnits="userSpaceOnUse"
    >
      <stop stop-color="#FDC6C6" />
      <stop offset="1" stop-color="#A47070" />
    </linearGradient>
    <linearGradient
      id="paint18_linear_6_349"
      x1="407.317"
      y1="343.095"
      x2="404.967"
      y2="375.735"
      gradientUnits="userSpaceOnUse"
    >
      <stop stop-color="#FDC6C6" />
      <stop offset="1" stop-color="#A47070" />
    </linearGradient>
    <linearGradient
      id="paint19_linear_6_349"
      x1="552.736"
      y1="393.207"
      x2="552.736"
      y2="396.386"
      gradientUnits="userSpaceOnUse"
    >
      <stop stop-color="#9FF6EC" />
      <stop offset="1" stop-color="#7D9DFF" />
    </linearGradient>
    <linearGradient
      id="paint20_linear_6_349"
      x1="559.029"
      y1="345.282"
      x2="559.029"
      y2="393.909"
      gradientUnits="userSpaceOnUse"
    >
      <stop stop-color="#9FF6EC" />
      <stop offset="1" stop-color="#7D9DFF" />
    </linearGradient>
    <linearGradient
      id="paint21_linear_6_349"
      x1="422.208"
      y1="368.874"
      x2="442.753"
      y2="415.819"
      gradientUnits="userSpaceOnUse"
    >
      <stop stop-color="#FDC6C6" />
      <stop offset="1" stop-color="#FFCCA1" />
    </linearGradient>
    <linearGradient
      id="paint22_linear_6_349"
      x1="460.365"
      y1="496.881"
      x2="457.668"
      y2="525.059"
      gradientUnits="userSpaceOnUse"
    >
      <stop stop-color="#FDC6C6" />
      <stop offset="1" stop-color="#FAB2B2" />
    </linearGradient>
    <linearGradient
      id="paint23_linear_6_349"
      x1="526.04"
      y1="496.123"
      x2="523.808"
      y2="522.105"
      gradientUnits="userSpaceOnUse"
    >
      <stop stop-color="#FDC6C6" />
      <stop offset="1" stop-color="#FAB2B2" />
    </linearGradient>
    <linearGradient
      id="paint24_linear_6_349"
      x1="459.153"
      y1="302.686"
      x2="456.055"
      y2="344.483"
      gradientUnits="userSpaceOnUse"
    >
      <stop stop-color="#FDC6C6" />
      <stop offset="1" stop-color="#FFCCA1" />
    </linearGradient>
    <linearGradient
      id="paint25_linear_6_349"
      x1="537.824"
      y1="343.73"
      x2="534.833"
      y2="397.407"
      gradientUnits="userSpaceOnUse"
    >
      <stop stop-color="#FDC6C6" />
      <stop offset="1" stop-color="#FFCCA1" />
    </linearGradient>
  </defs>
</svg>
