<svg width="31" height="30" viewBox="0 0 31 30" fill="none" xmlns="http://www.w3.org/2000/svg">
<rect x="0.65625" width="30" height="30" rx="6" fill="#DB3236"/>
<path fill-rule="evenodd" clip-rule="evenodd" d="M20.3236 9.75H10.9902C9.99857 9.75 9.24023 10.5083 9.24023 11.5V18.5C9.24023 19.4917 9.99857 20.25 10.9902 20.25H20.3236C21.3152 20.25 22.0736 19.4917 22.0736 18.5V11.5C22.0736 10.5083 21.3152 9.75 20.3236 9.75ZM10.9902 10.9167H20.3236C20.5569 10.9167 20.7319 11.0333 20.8486 11.2667L15.6569 14.8833L10.4652 11.2667C10.5819 11.0333 10.7569 10.9167 10.9902 10.9167ZM10.4069 18.5C10.4069 18.85 10.6402 19.0833 10.9902 19.0833H20.3236C20.6736 19.0833 20.9069 18.85 20.9069 18.5V12.6083L16.0069 16.05C15.8902 16.1083 15.7736 16.1667 15.6569 16.1667C15.5402 16.1667 15.4236 16.1083 15.3069 16.05L10.4069 12.6083V18.5Z" fill="black"/>
<mask id="mask0_6_317" style="mask-type:alpha" maskUnits="userSpaceOnUse" x="9" y="9" width="14" height="12">
<path fill-rule="evenodd" clip-rule="evenodd" d="M20.3236 9.75H10.9902C9.99857 9.75 9.24023 10.5083 9.24023 11.5V18.5C9.24023 19.4917 9.99857 20.25 10.9902 20.25H20.3236C21.3152 20.25 22.0736 19.4917 22.0736 18.5V11.5C22.0736 10.5083 21.3152 9.75 20.3236 9.75ZM10.9902 10.9167H20.3236C20.5569 10.9167 20.7319 11.0333 20.8486 11.2667L15.6569 14.8833L10.4652 11.2667C10.5819 11.0333 10.7569 10.9167 10.9902 10.9167ZM10.4069 18.5C10.4069 18.85 10.6402 19.0833 10.9902 19.0833H20.3236C20.6736 19.0833 20.9069 18.85 20.9069 18.5V12.6083L16.0069 16.05C15.8902 16.1083 15.7736 16.1667 15.6569 16.1667C15.5402 16.1667 15.4236 16.1083 15.3069 16.05L10.4069 12.6083V18.5Z" fill="white"/>
</mask>
<g mask="url(#mask0_6_317)">
<rect x="8.65625" y="8" width="14" height="14" fill="white"/>
</g>
</svg>
