<svg width="728" height="582" viewBox="0 0 728 582" fill="none" xmlns="http://www.w3.org/2000/svg">
<path opacity="0.150019" fill-rule="evenodd" clip-rule="evenodd" d="M524.947 240.08C521.03 236.173 521.03 229.827 524.947 225.92L615.439 135.65C619.342 131.756 625.661 131.756 629.564 135.65L720.056 225.92C723.973 229.827 723.973 236.173 720.056 240.08L629.564 330.35C625.661 334.244 619.342 334.244 615.439 330.35L524.947 240.08Z" fill="#BFE7FF"/>
<g opacity="0.0375744" filter="url(#filter0_f_13_4073)">
<path fill-rule="evenodd" clip-rule="evenodd" d="M215.964 76.1557C212.048 72.2485 212.048 65.9034 215.964 61.9962L266.385 11.6991C270.288 7.80542 276.607 7.80542 280.51 11.6991L330.931 61.9962C334.848 65.9034 334.848 72.2485 330.931 76.1557L280.51 126.453C276.607 130.346 270.288 130.346 266.385 126.453L215.964 76.1557Z" fill="#7367F0"/>
</g>
<path opacity="0.0659412" fill-rule="evenodd" clip-rule="evenodd" d="M268.439 245.149C264.522 241.242 264.522 234.897 268.439 230.99L456.478 43.4129C460.381 39.5193 466.699 39.5192 470.602 43.4129L658.641 230.99C662.558 234.897 662.558 241.242 658.641 245.149L470.602 432.726C466.699 436.62 460.381 436.62 456.478 432.726L268.439 245.149Z" fill="#7367F0"/>
<path opacity="0.0895647" fill-rule="evenodd" clip-rule="evenodd" d="M143.744 240.969C139.509 236.733 132.633 236.742 128.387 240.988L8.45181 360.923C4.20577 365.169 4.19732 372.045 8.43294 376.28L128.074 495.921C132.309 500.157 139.185 500.148 143.431 495.902L263.366 375.967C267.612 371.721 267.62 364.845 263.385 360.61L143.744 240.969ZM62.1931 368.535L135.999 294.729L209.624 368.354L135.818 442.16L62.1931 368.535Z" fill="#7367F0"/>
<path fill-rule="evenodd" clip-rule="evenodd" d="M201.293 347L201.292 490.767L201.439 490.625L201.405 497.757L284.073 579.951H273.053L201.292 508.567L201.293 579.912H192.588L192.588 511.289L123.608 579.951H111.5L192.588 499.308L192.588 347H201.293Z" fill="url(#paint0_linear_13_4073)"/>
<path fill-rule="evenodd" clip-rule="evenodd" d="M217.613 492.4C217.613 489.639 215.375 487.4 212.613 487.4H182.355C179.594 487.4 177.355 489.639 177.355 492.4V499.814C177.355 502.575 179.594 504.814 182.355 504.814H212.613C215.375 504.814 217.613 502.575 217.613 499.814V492.4Z" fill="#C8DAFF"/>
<path fill-rule="evenodd" clip-rule="evenodd" d="M129.25 144H281.801C284.655 144 286.967 146.304 286.967 149.146V403.6C286.967 406.363 284.781 408.618 282.038 408.741L281.781 408.747L129.23 408.156C126.385 408.145 124.084 405.844 124.084 403.009V149.146C124.084 146.304 126.397 144 129.25 144Z" fill="#AFA7FF"/>
<path fill-rule="evenodd" clip-rule="evenodd" d="M121.777 144H274.329C277.182 144 279.495 146.304 279.495 149.146V403.6C279.495 406.363 277.309 408.618 274.565 408.741L274.309 408.747L121.757 408.156C118.912 408.145 116.611 405.844 116.611 403.009V149.146C116.611 146.304 118.924 144 121.777 144Z" fill="#D5D1FF"/>
<path fill-rule="evenodd" clip-rule="evenodd" d="M129.141 149.317H266.755C270.019 149.317 272.665 151.953 272.665 155.204V395.436C272.665 398.688 270.019 401.323 266.755 401.323H129.141C125.877 401.323 123.23 398.688 123.23 395.436V155.204C123.23 151.953 125.877 149.317 129.141 149.317Z" fill="white"/>
<path fill-rule="evenodd" clip-rule="evenodd" d="M172.33 393.88H213.958C216.316 393.88 218.228 395.784 218.228 398.133V411.957H172.33C169.972 411.957 168.061 410.052 168.061 407.703V398.133C168.061 395.784 169.972 393.88 172.33 393.88Z" fill="#A7C3FF"/>
<path fill-rule="evenodd" clip-rule="evenodd" d="M217.16 407.703H221.43V411.957H217.16V407.703Z" fill="#A7C3FF"/>
<path fill-rule="evenodd" clip-rule="evenodd" d="M170.195 393.88H211.823C214.181 393.88 216.093 395.784 216.093 398.133V407.703C216.093 410.052 214.181 411.957 211.823 411.957H170.195C167.837 411.957 165.926 410.052 165.926 407.703V398.133C165.926 395.784 167.837 393.88 170.195 393.88Z" fill="#C8DAFF"/>
<rect x="349.771" y="175" width="67.6534" height="77.7504" rx="6" fill="#91D6FF"/>
<rect x="344.5" y="175" width="67.6534" height="77.7504" rx="6" fill="#E3F4FF"/>
<path fill-rule="evenodd" clip-rule="evenodd" d="M352.408 188.173C352.408 185.964 354.199 184.173 356.408 184.173H400.246C402.456 184.173 404.246 185.964 404.246 188.173V240.014C404.246 242.224 402.456 244.014 400.246 244.014H356.408C354.199 244.014 352.408 242.224 352.408 240.014V188.173Z" fill="white"/>
<path d="M352.408 188.173C352.408 185.964 354.199 184.173 356.408 184.173H357.68V244.014H356.408C354.199 244.014 352.408 242.224 352.408 240.014V188.173Z" fill="#91D6FF"/>
<path fill-rule="evenodd" clip-rule="evenodd" d="M394.763 227.879C395.073 227.879 395.267 227.544 395.112 227.275L377.804 197.118C377.648 196.845 377.253 196.848 377.102 197.124L360.501 227.281C360.353 227.55 360.547 227.879 360.854 227.879H394.763Z" fill="#83F2D5"/>
<path opacity="0.44687" fill-rule="evenodd" clip-rule="evenodd" d="M396.94 216.134C397.25 216.134 397.444 215.798 397.289 215.529L387.904 199.279C387.747 199.008 387.354 199.011 387.202 199.286L378.201 215.536C378.052 215.804 378.246 216.134 378.553 216.134H396.94Z" fill="#63CBE8"/>
<rect x="446.771" y="175" width="67.6534" height="77.7504" rx="6" fill="#91D6FF"/>
<rect x="441.5" y="175" width="67.6534" height="77.7504" rx="6" fill="#E3F4FF"/>
<path fill-rule="evenodd" clip-rule="evenodd" d="M449.408 188.173C449.408 185.964 451.199 184.173 453.408 184.173H497.246C499.456 184.173 501.246 185.964 501.246 188.173V240.014C501.246 242.224 499.456 244.014 497.246 244.014H453.408C451.199 244.014 449.408 242.224 449.408 240.014V188.173Z" fill="white"/>
<rect x="461.709" y="203.829" width="25.9191" height="25.7712" rx="0.4032" fill="#83F2D5"/>
<rect opacity="0.44687" x="475.766" y="193.782" width="19.7688" height="19.656" rx="0.4032" fill="#63CBE8"/>
<path d="M449.408 188.173C449.408 185.964 451.199 184.173 453.408 184.173H454.68V244.014H453.408C451.199 244.014 449.408 242.224 449.408 240.014V188.173Z" fill="#91D6FF"/>
<rect x="542.771" y="175" width="67.6534" height="77.7504" rx="6" fill="#91D6FF"/>
<rect x="537.5" y="175" width="67.6534" height="77.7504" rx="6" fill="#E3F4FF"/>
<path fill-rule="evenodd" clip-rule="evenodd" d="M545.408 188.173C545.408 185.964 547.199 184.173 549.408 184.173H593.246C595.456 184.173 597.246 185.964 597.246 188.173V240.014C597.246 242.224 595.456 244.014 593.246 244.014H549.408C547.199 244.014 545.408 242.224 545.408 240.014V188.173Z" fill="white"/>
<ellipse cx="571.985" cy="216.714" rx="18.2313" ry="18.1272" fill="#83F2D5"/>
<ellipse opacity="0.44687" cx="580.771" cy="202.3" rx="9.44511" ry="9.3912" fill="#63CBE8"/>
<path d="M545.408 188.173C545.408 185.964 547.199 184.173 549.408 184.173H550.68V244.014H549.408C547.199 244.014 545.408 242.224 545.408 240.014V188.173Z" fill="#91D6FF"/>
<g filter="url(#filter1_dd_13_4073)">
<path fill-rule="evenodd" clip-rule="evenodd" d="M103.5 319.389C103.5 316.413 105.913 314 108.889 314H254.981C257.957 314 260.369 316.413 260.369 319.389V366.9C260.369 369.876 257.957 372.289 254.981 372.289H108.889C105.913 372.289 103.5 369.876 103.5 366.9V319.389Z" fill="white"/>
</g>
<path opacity="0.465472" d="M154.615 348.149C154.615 347.173 155.406 346.383 156.382 346.383H185.75C186.726 346.383 187.517 347.173 187.517 348.149C187.517 349.124 186.726 349.915 185.75 349.915H156.382C155.406 349.915 154.615 349.124 154.615 348.149Z" fill="#FFBF29"/>
<path d="M154.615 338.14C154.615 337.164 155.406 336.373 156.382 336.373H174C174.975 336.373 175.766 337.164 175.766 338.14C175.766 339.115 174.975 339.906 174 339.906H156.382C155.406 339.906 154.615 339.115 154.615 338.14Z" fill="#FFBF29"/>
<path d="M212.343 336.535C212.847 335.425 214.154 334.935 215.261 335.441C215.627 335.608 215.94 335.872 216.166 336.204L216.247 336.331L220.567 343.695C220.609 343.765 220.699 343.788 220.769 343.747L220.787 343.734L220.804 343.718L223.103 341.113C223.909 340.199 225.302 340.114 226.213 340.922C226.273 340.975 226.33 341.031 226.384 341.09L226.462 341.181L229.834 345.331C229.885 345.394 229.977 345.403 230.04 345.352L230.058 345.335L230.072 345.315L235.398 336.691C236.038 335.654 237.396 335.334 238.431 335.975C238.591 336.075 238.738 336.194 238.867 336.331L238.961 336.436L241.442 339.408C241.807 339.845 241.749 340.494 241.313 340.859C240.902 341.204 240.301 341.172 239.928 340.8L239.865 340.73L237.384 337.758C237.374 337.746 237.362 337.736 237.349 337.728C237.291 337.692 237.219 337.701 237.172 337.745L237.147 337.775L231.821 346.4C231.692 346.609 231.529 346.795 231.339 346.95C230.428 347.693 229.102 347.586 228.321 346.727L228.239 346.632L224.867 342.483C224.862 342.476 224.857 342.471 224.851 342.465C224.8 342.42 224.727 342.417 224.673 342.452L224.643 342.478L222.344 345.083C222.191 345.257 222.011 345.406 221.811 345.523C220.797 346.121 219.501 345.813 218.859 344.842L218.795 344.739L214.474 337.376C214.459 337.349 214.436 337.329 214.408 337.316C214.347 337.288 214.276 337.306 214.235 337.356L214.214 337.389L210.004 346.647C209.847 346.992 209.605 347.29 209.301 347.513L209.184 347.593L204.192 350.782C203.714 351.088 203.078 350.947 202.773 350.467C202.484 350.014 202.594 349.421 203.01 349.098L203.087 349.044L208.078 345.855C208.094 345.845 208.108 345.832 208.119 345.817L208.133 345.792L212.343 336.535Z" fill="#FFBF29"/>
<ellipse cx="132.583" cy="343.733" rx="12.0443" ry="12.0698" fill="#FFBF29"/>
<g filter="url(#filter2_dd_13_4073)">
<path fill-rule="evenodd" clip-rule="evenodd" d="M103.5 171C103.5 166.582 107.082 163 111.5 163H251.977C256.395 163 259.977 166.582 259.977 171V287.215C259.977 291.633 256.395 295.215 251.977 295.215H111.5C107.082 295.215 103.5 291.633 103.5 287.215V171Z" fill="white"/>
</g>
<mask id="mask0_13_4073" style="mask-type:alpha" maskUnits="userSpaceOnUse" x="103" y="163" width="157" height="133">
<path fill-rule="evenodd" clip-rule="evenodd" d="M103.5 171C103.5 166.582 107.082 163 111.5 163H251.977C256.395 163 259.977 166.582 259.977 171V287.215C259.977 291.633 256.395 295.215 251.977 295.215H111.5C107.082 295.215 103.5 291.633 103.5 287.215V171Z" fill="white"/>
</mask>
<g mask="url(#mask0_13_4073)">
<path opacity="0.414737" fill-rule="evenodd" clip-rule="evenodd" d="M124.434 263.043C124.434 263.043 142.994 257.736 151.178 246.904C159.362 236.073 162.121 225.574 176.197 225.574C190.273 225.574 192.077 241.654 207.293 241.654C222.509 241.654 223.341 221.147 228.399 213.005C233.456 204.862 242.184 204.862 242.184 204.862V274.617C242.184 275.589 241.396 276.377 240.424 276.377H126.194C125.222 276.377 124.434 275.589 124.434 274.617V263.043Z" fill="#FFE3B5"/>
<g filter="url(#filter3_d_13_4073)">
<path d="M124.434 264.167C124.434 264.167 142.994 258.837 151.178 247.959C159.362 237.08 162.121 226.535 176.197 226.535C190.273 226.535 192.077 242.685 207.293 242.685C222.509 242.685 223.341 222.09 228.399 213.912C233.456 205.734 242.184 205.734 242.184 205.734" stroke="#FFBF29" stroke-width="2.64" stroke-linecap="round"/>
</g>
<rect x="115.711" y="176.082" width="48.8444" height="5.23279" rx="2.61639" fill="#FFBF29"/>
<path opacity="0.465472" d="M115.711 191.78C115.711 190.335 116.882 189.164 118.327 189.164H135.772C137.217 189.164 138.389 190.335 138.389 191.78C138.389 193.225 137.217 194.397 135.772 194.397H118.327C116.882 194.397 115.711 193.225 115.711 191.78Z" fill="#FFBF29"/>
<ellipse cx="229.535" cy="179.134" rx="3.05278" ry="3.05246" fill="white"/>
<ellipse cx="238.258" cy="179.134" rx="3.05278" ry="3.05246" fill="white"/>
<ellipse cx="246.981" cy="179.134" rx="3.05278" ry="3.05246" fill="white"/>
</g>
<path fill-rule="evenodd" clip-rule="evenodd" d="M470.068 566.984C470.068 566.092 469.371 565.355 468.48 565.306L428.455 563.108H416.181L375.993 565.307C375.103 565.356 374.405 566.092 374.405 566.984V569.965H470.068V566.984Z" fill="#BFE7FF"/>
<path fill-rule="evenodd" clip-rule="evenodd" d="M426.791 494.996H417.68V563.565H426.791V494.996Z" fill="#BFE7FF"/>
<rect width="13.6662" height="15.9994" rx="0.84" transform="matrix(-1 0 0 1 429.068 553.966)" fill="#91D6FF"/>
<path fill-rule="evenodd" clip-rule="evenodd" d="M433.625 490.808C433.625 490.344 433.249 489.968 432.785 489.968H411.688C411.224 489.968 410.848 490.344 410.848 490.808V498.085C410.848 498.428 411.057 498.737 411.375 498.865L416.392 500.878C416.491 500.918 416.597 500.939 416.705 500.939H427.768C427.876 500.939 427.982 500.918 428.081 500.878L433.098 498.865C433.416 498.737 433.625 498.428 433.625 498.085V490.808Z" fill="#91D6FF"/>
<rect width="9.11077" height="9.14254" rx="2.1" transform="matrix(-1 0 0 1 472.346 569.965)" fill="#91D6FF"/>
<rect width="9.11077" height="9.14254" rx="2.1" transform="matrix(-1 0 0 1 381.238 569.965)" fill="#91D6FF"/>
<rect width="9.11077" height="9.14254" rx="2.1" transform="matrix(-1 0 0 1 426.791 569.965)" fill="#91D6FF"/>
<path fill-rule="evenodd" clip-rule="evenodd" d="M433.17 484.482C433.17 480.443 429.895 477.168 425.856 477.168L368.509 477.168C364.469 477.168 361.195 480.443 361.195 484.482C361.195 488.522 364.469 491.796 368.509 491.796H425.856C429.895 491.796 433.17 488.522 433.17 484.482Z" fill="#BFE7FF"/>
<path fill-rule="evenodd" clip-rule="evenodd" d="M468.701 409.513H455.946C455.946 409.513 455.946 427.798 455.946 446.084C455.946 464.369 435.447 482.654 435.447 482.654H452.302C452.302 482.654 468.701 467.082 468.701 446.084C468.701 427.798 468.701 409.513 468.701 409.513Z" fill="#91D6FF"/>
<path fill-rule="evenodd" clip-rule="evenodd" d="M463.234 409.513H450.479C450.479 409.513 450.479 427.798 450.479 446.084C450.479 464.369 429.98 482.654 429.98 482.654H445.013C445.013 482.654 463.234 467.51 463.234 446.084C463.234 427.798 463.234 409.513 463.234 409.513Z" fill="#BFE7FF"/>
<path fill-rule="evenodd" clip-rule="evenodd" d="M500.588 391.4C500.588 386.761 496.827 383 492.188 383H426.504C421.865 383 418.104 386.761 418.104 391.4V428.415C418.104 433.054 421.865 436.815 426.504 436.815H492.188C496.827 436.815 500.588 433.054 500.588 428.415V391.4Z" fill="#BFE7FF"/>
<path fill-rule="evenodd" clip-rule="evenodd" d="M500.982 388.907C500.982 385.645 498.338 383 495.076 383C491.814 383 489.169 385.645 489.169 388.907V430.909C489.169 434.171 491.814 436.815 495.076 436.815C498.338 436.815 500.982 434.171 500.982 430.909L500.982 388.907Z" fill="#91D6FF"/>
<path fill-rule="evenodd" clip-rule="evenodd" d="M477.812 484.482C477.812 480.443 474.538 477.168 470.498 477.168L414.974 477.168C410.934 477.168 407.66 480.443 407.66 484.482C407.66 488.522 410.934 491.796 414.974 491.796H470.498C474.538 491.796 477.812 488.522 477.812 484.482Z" fill="#91D6FF"/>
<path fill-rule="evenodd" clip-rule="evenodd" d="M377.61 534.415C377.61 534.415 382.856 545.01 378.555 548.349C374.248 551.688 362.872 557.946 362.872 557.946L393.012 556.052L386.312 532.944L377.61 534.415Z" fill="url(#paint1_linear_13_4073)"/>
<path fill-rule="evenodd" clip-rule="evenodd" d="M390.025 544.003C389.076 544.455 390.636 548.712 387.299 548.413C383.963 548.115 381.868 543.714 379.408 544C376.947 544.285 375.385 548.717 370.7 551.803C366.017 554.89 359.072 558.572 359.537 561.675C360.002 564.779 370.931 565.61 376.468 564.582C382.005 563.556 384.589 561.33 388.181 561.507C391.773 561.685 394.031 561.245 395.157 558.939C396.282 556.632 391.119 543.48 390.025 544.003Z" fill="#EEDFE8"/>
<path fill-rule="evenodd" clip-rule="evenodd" d="M389.758 558.167L389.451 558.149C384.999 557.774 381.945 560.574 377.708 561.363C373.47 562.153 362.295 562.426 360.51 559.775C360.425 559.65 360.347 559.521 360.274 559.391C359.674 560.128 359.392 560.917 359.537 561.836C360.002 564.789 370.932 565.58 376.469 564.603C382.006 563.626 384.591 561.507 388.183 561.676L388.822 561.7C392.045 561.788 394.101 561.294 395.16 559.232C395.417 558.729 395.359 557.649 395.101 556.283C393.598 557.311 391.702 558.226 389.758 558.167Z" fill="#EC7AA5"/>
<path fill-rule="evenodd" clip-rule="evenodd" d="M423.011 441.032C413.887 441.439 363.101 452.672 353.875 454.58C344.648 456.488 336.847 466.814 343.883 478.772C351.785 492.194 372.175 530.314 377.126 538.907C379.576 543.16 391.937 540.775 389.034 533.636C383.621 520.329 381.107 486.898 367.307 474.709C367.307 474.709 413.717 482.786 433.764 473.534C448.333 466.808 445.037 440.047 423.011 441.032Z" fill="#413C75"/>
<path fill-rule="evenodd" clip-rule="evenodd" d="M359.357 384.074C359.357 384.074 359.461 378.65 356.864 374.77C354.266 370.89 354.163 366.768 352.198 366.903C350.232 367.038 352.179 376.618 352.179 376.618C352.179 376.618 349.685 375.665 347.893 374.46C346.102 373.255 340.669 367.314 339.399 368.367C337.247 370.16 340.714 380.279 342.602 382.302C344.497 384.326 353.846 389.98 353.846 389.98L381.381 417.719L385.498 402.993L359.357 384.074Z" fill="url(#paint2_linear_13_4073)"/>
<path fill-rule="evenodd" clip-rule="evenodd" d="M414.432 381.625C410.187 391.47 402.415 409.556 399.211 414.951C395.196 421.708 388.865 424.685 381.451 419.672C379.9 418.623 375.446 414.954 375.446 414.954C376.105 408.532 378.504 403.164 382.64 398.849L385.449 401.172C385.449 401.172 393.415 380.752 399.823 368.923C405.372 358.689 420.893 366.659 414.432 381.625Z" fill="#EA5455"/>
<path fill-rule="evenodd" clip-rule="evenodd" d="M385.367 401.183C385.367 401.183 383.228 408.44 382.728 408.019C382.227 407.599 383.11 399.286 383.11 399.286L385.367 401.183Z" fill="black" fill-opacity="0.159856"/>
<path fill-rule="evenodd" clip-rule="evenodd" d="M432.778 343.411V352.123L439.175 346.972C439.175 346.972 441.142 338.626 442.741 332.427C443.744 328.539 446.187 315.384 436.351 316C428.293 301.796 404.827 310.587 404.64 327.94C404.416 348.811 404.599 356.937 404.599 356.937C417.869 357.698 425.337 355.78 432.778 343.411Z" fill="#422851"/>
<path fill-rule="evenodd" clip-rule="evenodd" d="M439.314 359.997C439.314 359.997 433.364 358.6 433.157 348.85C432.951 339.099 433.096 335.77 433.096 335.77L419.988 335.534C419.988 335.534 419.845 346.401 419.843 350.332C419.837 359.889 412.809 360.672 412.809 360.672C412.809 360.672 414.01 368.558 425.888 369.225C435.161 369.748 439.314 359.997 439.314 359.997Z" fill="url(#paint3_linear_13_4073)"/>
<path fill-rule="evenodd" clip-rule="evenodd" d="M436.15 330.901C441.998 330.675 441.044 339.235 434.97 339.224C434.97 339.224 431.442 351.384 419.192 351.384C409.244 351.384 408.597 337.211 408.507 334.384C408.41 331.369 408.398 321.465 408.398 321.465L436.378 321.452L436.15 330.901Z" fill="url(#paint4_linear_13_4073)"/>
<path fill-rule="evenodd" clip-rule="evenodd" d="M436.603 330.845C434.18 331.245 434.474 332.849 433.815 332.709C430.469 331.997 416.925 332.936 415.181 325.488C413.011 330.141 412.48 331.285 407.702 332.534V318.899L437.924 316C437.924 316 437.455 330.704 436.603 330.845Z" fill="#422851"/>
<path d="M421.555 343.215C421.555 343.215 418.637 345.685 415.258 343.372" stroke="#F77B7B" stroke-width="1.5" stroke-linecap="round"/>
<path d="M419.629 346.076C418.721 346.494 417.847 346.525 417.067 346.107" stroke="#F49494" stroke-linecap="round"/>
<path d="M435.555 335.505C435.495 334.132 435.914 333.041 437.314 332.822" stroke="#F77B7B" stroke-linecap="round"/>
<path fill-rule="evenodd" clip-rule="evenodd" d="M437.984 359C430.516 363.574 421.882 365.251 413.845 360.284C400.73 386.145 397.461 417.002 400.616 451.106C419.741 458.678 435.815 457.189 449.5 448.534L437.984 359Z" fill="#FFE4F4"/>
<path fill-rule="evenodd" clip-rule="evenodd" d="M344.915 534.84C344.915 534.84 345.073 547.311 334.797 551.974C324.528 556.635 317.211 556.355 318.143 559.959C319.074 563.563 345.804 563.418 348.3 560.599C350.428 558.201 355.054 535.872 356.328 537.579L344.915 534.84Z" fill="url(#paint5_linear_13_4073)"/>
<path fill-rule="evenodd" clip-rule="evenodd" d="M352.379 552.452C350.804 551.319 349.48 557.853 345.203 556.036C340.925 554.219 344.298 548.213 341.606 547.105C338.914 545.998 333.716 551.953 326.812 553.401C319.908 554.848 314.303 556.114 312.71 558.801C311.338 561.111 312.71 561.849 312.71 561.849C312.71 561.849 319.356 565.168 323.486 565.899C329.486 566.96 346.825 567.667 348.725 565.732C349.892 564.545 353.167 553.019 352.379 552.452Z" fill="#EEDFE8"/>
<path fill-rule="evenodd" clip-rule="evenodd" d="M312.335 559.073C311.033 561.196 313.087 562.3 313.333 562.422L314.324 562.844C316.204 563.626 320.446 565.302 323.581 565.901C329.329 567 347.128 567.651 349.043 565.762C349.379 565.43 349.795 564.217 350.197 562.641L348.976 562.774C343.098 563.397 329.977 564.524 323.502 562.998C317.754 561.644 314.608 559.417 313.173 558.117C312.824 558.416 312.542 558.734 312.335 559.073Z" fill="#EC7AA5"/>
<path fill-rule="evenodd" clip-rule="evenodd" d="M451.602 437.177C451.602 437.177 464.868 465.192 446.225 474.812C428.196 484.115 374.224 473.112 374.224 473.112C374.224 473.112 375.189 480.877 374.224 487.802C371.706 505.889 359.726 536.023 357.192 539.809C353.687 545.046 343.01 541.097 342.809 536.737C342.607 532.377 350.857 476.693 352.112 466.075C353.36 455.456 357.3 453.913 368.809 451.01C371.453 450.343 402.72 442.573 405.584 442.8C430.195 444.746 451.602 437.177 451.602 437.177Z" fill="#524D87"/>
<path fill-rule="evenodd" clip-rule="evenodd" d="M437.06 471.921C419.211 473.921 371.956 469.798 370.058 471.671C368.246 473.46 368.549 504.575 364.484 522.585L365.102 520.884C368.925 510.267 372.894 497.354 374.224 487.802C375.189 480.877 374.224 473.112 374.224 473.112L376.401 473.533C386.66 475.46 430.36 482.999 446.225 474.812C454.822 470.376 458.33 463.006 456.749 452.703C454.027 464.349 447.464 470.755 437.06 471.921Z" fill="white" fill-opacity="0.056108"/>
<path fill-rule="evenodd" clip-rule="evenodd" d="M437.657 359.021C425.288 399.537 417.871 456.979 456.499 446.986C435.98 409.206 463.875 392.202 457.552 372.676C455.39 366 437.818 358.497 437.657 359.021Z" fill="#EA5455"/>
<path fill-rule="evenodd" clip-rule="evenodd" d="M451.607 375.846C437.628 377.955 449.152 402.362 444.537 406.039C439.923 409.716 431.891 410.113 431.025 412.359C429.285 416.874 437.699 428.271 456.267 446.551L456.5 446.986C438.625 414.076 457.488 396.931 458.469 380.151C456.398 376.903 454.11 375.468 451.607 375.846Z" fill="black" fill-opacity="0.159856"/>
<path fill-rule="evenodd" clip-rule="evenodd" d="M414.5 360C409.78 371.838 407.511 381.127 405.394 398.503C403.629 412.975 404.513 442.84 404.513 442.84L398.68 443.987C398.68 443.987 394.51 397.848 395.904 391.907C398.244 381.938 399.829 376.113 402.918 367C404.62 361.998 414.5 360 414.5 360Z" fill="#EA5455"/>
<path fill-rule="evenodd" clip-rule="evenodd" d="M435.06 405.017C435.06 405.017 427.444 397.392 424.807 396.507C422.169 395.622 407.722 394.559 407.82 396.559C407.931 398.701 417.227 398.578 418.087 399.632C418.946 400.685 420.142 408.888 423.391 409.697C426.634 410.506 433.357 412.9 433.357 412.9L463.281 428.362L460.093 412.901L435.06 405.017Z" fill="url(#paint6_linear_13_4073)"/>
<path fill-rule="evenodd" clip-rule="evenodd" d="M457.98 372.731C467.057 385.542 474.807 405.056 477.782 412.664C480.756 420.272 477.756 431.747 464.675 429.494C463.118 429.226 460.584 428.24 460.584 428.24C455.775 421.647 454.931 415.987 456.726 410.947L458.418 411.661C458.418 411.661 445.417 388.617 442.242 382.439C436.94 372.122 449.985 361.444 457.98 372.731Z" fill="#EA5455"/>
<path fill-rule="evenodd" clip-rule="evenodd" d="M458.417 411.661C458.417 411.661 465.021 414.887 464.19 413.468C463.36 412.049 455.902 407.182 455.902 407.182L458.417 411.661Z" fill="black" fill-opacity="0.159856"/>
<path fill-rule="evenodd" clip-rule="evenodd" d="M288.639 432.555H300.639V580.135H288.639V432.555Z" fill="#DBDBDB"/>
<path fill-rule="evenodd" clip-rule="evenodd" d="M286.639 432.555H294.639V580.135H286.639V432.555Z" fill="#EFEFEF"/>
<path fill-rule="evenodd" clip-rule="evenodd" d="M211.475 432.555H223.475V580.135H211.475V432.555Z" fill="#DBDBDB"/>
<path fill-rule="evenodd" clip-rule="evenodd" d="M209.475 432.555H217.475V580.135H209.475L209.475 432.555Z" fill="#EFEFEF"/>
<path fill-rule="evenodd" clip-rule="evenodd" d="M493.133 432.555H505.133V580.135H493.133V432.555Z" fill="#DBDBDB"/>
<path fill-rule="evenodd" clip-rule="evenodd" d="M491.133 432.555H499.133V580.135H491.133L491.133 432.555Z" fill="#EFEFEF"/>
<path fill-rule="evenodd" clip-rule="evenodd" d="M410.971 432.555L422.971 432.555V580.135H410.971V432.555Z" fill="#DBDBDB"/>
<path fill-rule="evenodd" clip-rule="evenodd" d="M408.971 432.555H416.971V580.135H408.971V432.555Z" fill="#EFEFEF"/>
<path fill-rule="evenodd" clip-rule="evenodd" d="M292.268 429.68C292.268 428.752 293.02 428 293.948 428H506.951C507.879 428 508.631 428.752 508.631 429.68V445.32C508.631 446.248 507.879 447 506.951 447H293.948C293.02 447 292.268 446.248 292.268 445.32V429.68Z" fill="#DBDBDB"/>
<path fill-rule="evenodd" clip-rule="evenodd" d="M200.977 429.68C200.977 428.752 201.729 428 202.657 428H414.747C415.675 428 416.427 428.752 416.427 429.68V445.32C416.427 446.248 415.675 447 414.747 447H202.657C201.729 447 200.977 446.248 200.977 445.32V429.68Z" fill="#DBDBDB"/>
<rect x="182.5" y="428" width="338" height="9.76056" rx="4.88028" fill="#EFEFEF"/>
<path fill-rule="evenodd" clip-rule="evenodd" d="M258.855 396.469V392.281L264.139 392.281L264.139 390.06C264.139 388.833 265.125 387.839 266.34 387.839C267.556 387.839 268.542 388.833 268.542 390.06V394.692C268.542 395.674 267.753 396.469 266.781 396.469H258.855Z" fill="#02B596"/>
<path fill-rule="evenodd" clip-rule="evenodd" d="M244.199 398.881V394.883C244.199 393.656 245.185 392.662 246.401 392.662C247.617 392.662 248.602 393.656 248.602 394.883L248.602 397.103H251.243L251.244 386.887C251.244 384.188 253.412 382 256.087 382C258.762 382 260.93 384.188 260.93 386.887V412.208H251.244L251.243 401.545L246.841 401.546C245.382 401.546 244.199 400.353 244.199 398.881Z" fill="#02D3AF"/>
<path fill-rule="evenodd" clip-rule="evenodd" d="M244.619 405.269H266.983L265.384 426.79C265.34 427.378 264.854 427.834 264.269 427.834H247.334C246.749 427.834 246.263 427.378 246.219 426.79L244.619 405.269Z" fill="url(#paint7_linear_13_4073)"/>
<path fill-rule="evenodd" clip-rule="evenodd" d="M244.618 405.269H266.982C267.6 405.269 268.101 405.774 268.101 406.398V410.91C268.101 411.533 267.6 412.039 266.982 412.039H244.618C244.001 412.039 243.5 411.533 243.5 410.91V406.398C243.5 405.774 244.001 405.269 244.618 405.269Z" fill="#FFB3A4"/>
<path fill-rule="evenodd" clip-rule="evenodd" d="M317.174 427.027C317.174 426.195 317.849 425.52 318.681 425.52H423.938C424.77 425.52 425.445 426.195 425.445 427.027C425.445 427.86 424.77 428.535 423.938 428.535H318.681C317.849 428.535 317.174 427.86 317.174 427.027Z" fill="#8F84FF"/>
<path fill-rule="evenodd" clip-rule="evenodd" d="M388.496 427.027C388.496 426.195 389.171 425.52 390.004 425.52H423.937C424.77 425.52 425.445 426.195 425.445 427.027C425.445 427.86 424.77 428.535 423.937 428.535H390.004C389.171 428.535 388.496 427.86 388.496 427.027Z" fill="#7367F0"/>
<path fill-rule="evenodd" clip-rule="evenodd" d="M312.019 384.056C311.743 381.905 313.42 380 315.589 380H381.858C383.67 380 385.199 381.346 385.429 383.144L390.344 421.593C390.619 423.745 388.942 425.65 386.773 425.65H320.505C318.693 425.65 317.163 424.303 316.934 422.506L312.019 384.056Z" fill="#7367F0"/>
<path fill-rule="evenodd" clip-rule="evenodd" d="M312.019 384.056C311.743 381.905 313.42 380 315.589 380H379.524C381.335 380 382.865 381.346 383.095 383.144L388.01 421.593C388.285 423.745 386.608 425.65 384.439 425.65H320.505C318.693 425.65 317.163 424.303 316.934 422.506L312.019 384.056Z" fill="#B1A9FF"/>
<ellipse cx="348.815" cy="403.551" rx="4.64831" ry="5.07496" transform="rotate(-37 348.815 403.551)" fill="white"/>
<path fill-rule="evenodd" clip-rule="evenodd" d="M438.5 418C438.5 417.448 438.948 417 439.5 417H485C488.038 417 490.5 419.462 490.5 422.5C490.5 425.538 488.038 428 485 428H439.5C438.948 428 438.5 427.552 438.5 427V418Z" fill="#F16B79"/>
<path d="M438.5 420.2C438.5 419.648 438.948 419.2 439.5 419.2L465.533 419.2C467.356 419.2 468.833 420.677 468.833 422.5C468.833 424.323 467.356 425.8 465.533 425.8H439.5C438.948 425.8 438.5 425.352 438.5 424.8V420.2Z" fill="#EAEFFF"/>
<rect width="131.195" height="198.348" rx="7.68" transform="matrix(-1 0 0 1 673.5 382)" fill="#91D6FF"/>
<rect width="95.7932" height="198.348" rx="7.68" transform="matrix(-1 0 0 1 638.098 382)" fill="#BFE7FF"/>
<path fill-rule="evenodd" clip-rule="evenodd" d="M629.768 523.304C629.768 519.062 626.329 515.624 622.088 515.624H558.314C554.072 515.624 550.634 519.062 550.634 523.304V564.316C550.634 568.558 554.072 571.996 558.314 571.996H622.088C626.329 571.996 629.768 568.558 629.768 564.316V523.304Z" fill="#E3F4FF"/>
<path d="M602.697 515.624H577.708V522.223C577.708 524.344 579.427 526.063 581.548 526.063H598.857C600.978 526.063 602.697 524.344 602.697 522.223V515.624Z" fill="#91D6FF"/>
<path fill-rule="evenodd" clip-rule="evenodd" d="M629.768 403.226C629.768 402.121 628.872 401.226 627.768 401.226H558.314C554.072 401.226 550.634 404.664 550.634 408.906V439.044C550.634 443.285 554.072 446.724 558.314 446.724H627.768C628.872 446.724 629.768 445.828 629.768 444.724V403.226Z" fill="#91D6FF"/>
<path fill-rule="evenodd" clip-rule="evenodd" d="M612.414 398.032C612.414 393.79 608.976 390.352 604.734 390.352H540.961C536.719 390.352 533.281 393.79 533.281 398.032V439.044C533.281 443.286 536.719 446.724 540.961 446.724H604.734C608.976 446.724 612.414 443.286 612.414 439.044V398.032Z" fill="#E3F4FF"/>
<path fill-rule="evenodd" clip-rule="evenodd" d="M629.768 460.668C629.768 456.426 626.329 452.988 622.088 452.988H558.314C554.072 452.988 550.634 456.426 550.634 460.668V501.68C550.634 505.922 554.072 509.36 558.314 509.36H622.088C626.329 509.36 629.768 505.922 629.768 501.68V460.668Z" fill="#E3F4FF"/>
<path d="M602.697 452.988H577.708V459.587C577.708 461.708 579.427 463.427 581.548 463.427H598.857C600.978 463.427 602.697 461.708 602.697 459.587V452.988Z" fill="#91D6FF"/>
<path d="M585.342 390.352H560.352V396.951C560.352 399.072 562.071 400.791 564.192 400.791H581.502C583.623 400.791 585.342 399.072 585.342 396.951V390.352Z" fill="#91D6FF"/>
<path fill-rule="evenodd" clip-rule="evenodd" d="M612.861 360.677H619.901L627.5 381.354H620.46L612.861 360.677Z" fill="#7367F0"/>
<path fill-rule="evenodd" clip-rule="evenodd" d="M593.925 340.633C594.004 340.264 594.33 340 594.707 340H626.512C627.02 340 627.4 340.469 627.294 340.967L618.835 380.72C618.756 381.09 618.43 381.354 618.052 381.354H586.248C585.739 381.354 585.36 380.885 585.465 380.387L593.925 340.633Z" fill="#A7C3FF"/>
<path fill-rule="evenodd" clip-rule="evenodd" d="M592.165 340.633C592.244 340.264 592.57 340 592.948 340H624.752C625.261 340 625.64 340.469 625.534 340.967L617.075 380.72C616.996 381.09 616.67 381.354 616.292 381.354H584.488C583.979 381.354 583.6 380.885 583.706 380.387L592.165 340.633Z" fill="url(#paint8_linear_13_4073)"/>
<path d="M593.903 342.293C593.973 341.961 594.267 341.723 594.607 341.723H622.211C622.669 341.723 623.011 342.145 622.916 342.593L615.339 378.199C615.268 378.532 614.974 378.769 614.634 378.769H587.03C586.572 378.769 586.23 378.347 586.326 377.899L593.903 342.293Z" fill="#B3FFEB"/>
<mask id="mask1_13_4073" style="mask-type:alpha" maskUnits="userSpaceOnUse" x="586" y="341" width="37" height="38">
<path d="M593.903 342.293C593.973 341.961 594.267 341.723 594.607 341.723H622.211C622.669 341.723 623.011 342.145 622.916 342.593L615.339 378.199C615.268 378.532 614.974 378.769 614.634 378.769H587.03C586.572 378.769 586.23 378.347 586.326 377.899L593.903 342.293Z" fill="white"/>
</mask>
<g mask="url(#mask1_13_4073)">
<ellipse cx="602.752" cy="352.385" rx="3.85" ry="3.76923" fill="white"/>
<ellipse cx="591.477" cy="380.654" rx="17.875" ry="17.5" fill="#6DE9C9"/>
<ellipse cx="619.527" cy="375.539" rx="21.175" ry="20.4615" fill="#83F2D5"/>
</g>
<path fill-rule="evenodd" clip-rule="evenodd" d="M114.116 297.293C102.393 294.58 101.621 278.588 110.534 273.041C101.342 253.892 122.598 234.879 137.159 246.605C146.704 242.544 154.637 258.389 145.755 270.695C149.479 291.826 141.899 297.287 128.236 297.519L114.116 297.293Z" fill="#422851"/>
<path fill-rule="evenodd" clip-rule="evenodd" d="M114.262 293.474C114.262 293.474 119.965 292.143 120.162 282.857C120.36 273.57 120.221 270.4 120.221 270.4L132.783 270.175C132.783 270.175 132.92 280.525 132.922 284.268C132.927 294.323 139.977 293.474 139.977 293.474C139.977 293.474 138.512 301.626 127.129 302.262C118.242 302.76 114.262 293.474 114.262 293.474Z" fill="url(#paint9_linear_13_4073)"/>
<path fill-rule="evenodd" clip-rule="evenodd" d="M117.294 265.763C111.69 265.548 112.604 273.7 118.425 273.689C118.425 273.689 121.807 285.27 133.545 285.27C143.079 285.27 143.699 271.772 143.785 269.08C143.878 266.208 143.89 256.776 143.89 256.776L117.076 256.764L117.294 265.763Z" fill="url(#paint10_linear_13_4073)"/>
<path d="M131.281 277.49C131.281 277.49 134.077 279.843 137.315 277.64" stroke="#F77B7B" stroke-width="1.5" stroke-linecap="round"/>
<path d="M133.127 280.215C133.997 280.614 134.834 280.643 135.582 280.245" stroke="#F49494" stroke-linecap="round"/>
<path d="M117.866 270.148C117.923 268.84 117.522 267.801 116.18 267.593" stroke="#F77B7B" stroke-linecap="round"/>
<path fill-rule="evenodd" clip-rule="evenodd" d="M116.408 264.756C116.408 264.756 119.479 268.852 120.101 268.873C120.723 268.895 120.941 263.546 120.941 263.546C124.709 263.26 134.245 261.373 136.582 256.977C138.217 260.856 141.342 262.579 143.395 262.248L143.784 270.489L144.742 253.922H115.656L116.408 264.756Z" fill="#422851"/>
<path fill-rule="evenodd" clip-rule="evenodd" d="M189.552 298.329C189.552 298.329 187.878 288.988 188.48 287.097C188.994 285.462 193.852 283.104 193.852 283.104C193.852 283.104 202.303 269.736 204.152 271.097C205.656 272.201 199.751 282.057 199.751 282.057C199.751 282.057 205.136 287.714 205.061 290.243C204.986 292.772 196.272 300.689 196.272 300.689L189.552 298.329Z" fill="url(#paint11_linear_13_4073)"/>
<path fill-rule="evenodd" clip-rule="evenodd" d="M194.035 282.97C194.035 282.97 197.778 282.46 198.373 283.627C198.881 284.621 195.772 287.439 195.772 288.232C195.772 289.024 195.816 295.021 196.066 295.076C196.316 295.13 199.815 285.289 199.069 283.207C198.455 281.499 194.035 282.97 194.035 282.97Z" fill="#F28585"/>
<path fill-rule="evenodd" clip-rule="evenodd" d="M145.05 297.224C139.433 294.889 132.632 301.592 136.775 307.991C143.395 318.223 167.833 345.088 179.097 345.128C189.215 345.163 198.51 304.919 198.297 301.711C198.084 298.503 189.871 294.49 186.888 296.756C183.897 299.021 174.438 325.569 174.438 325.569C174.438 325.569 150.755 299.598 145.05 297.224Z" fill="#7367F0"/>
<path fill-rule="evenodd" clip-rule="evenodd" d="M174.438 325.569C174.438 325.569 177.634 331.072 177.929 330.249C178.224 329.426 175.597 322.333 175.597 322.333L174.438 325.569Z" fill="black" fill-opacity="0.302803"/>
<path fill-rule="evenodd" clip-rule="evenodd" d="M137.846 553.709C137.846 553.709 136.726 562.915 140.903 566.431C145.079 569.946 128.967 568.677 128.967 568.677L128.85 553.562L137.846 553.709Z" fill="url(#paint12_linear_13_4073)"/>
<path fill-rule="evenodd" clip-rule="evenodd" d="M128.813 561.868C130.248 561.945 130.019 566.26 131.944 566.08C133.868 565.899 137.122 561.598 139.912 563.044C142.808 564.549 158.68 574.602 159.614 577.186C160.66 580.066 153.891 580.281 149.052 580.071C144.207 579.86 141.974 577.68 139.622 577.734C137.265 577.788 136.708 579.257 134.945 579.662C133.157 580.073 128.683 580.011 128.268 578.724C127.835 577.388 127.384 561.79 128.813 561.868Z" fill="#222D4E"/>
<path fill-rule="evenodd" clip-rule="evenodd" d="M112.5 366C112.5 366 122.13 458.719 122.916 467.191C123.702 475.663 122.13 481.797 121.486 490.548C120.841 499.298 123.943 554.332 123.943 554.332C128.503 557.086 133.93 557.627 140.829 554.415C140.829 554.415 147.165 485.856 147.103 470.241C147.066 460.926 148.031 367.046 148.031 367.046L112.5 366Z" fill="#2B256A"/>
<path fill-rule="evenodd" clip-rule="evenodd" d="M127.889 467.952C128.68 473.818 126.555 484.928 121.514 501.283L121.451 498.594C121.378 495.038 121.376 492.265 121.474 490.726L121.486 490.548C122.109 482.089 123.599 476.075 122.988 468.031L122.855 466.544C122.525 463.116 121.499 453.058 120.213 440.553L120.919 442.596C124.824 454.002 127.147 462.454 127.889 467.952Z" fill="white" fill-opacity="0.0771689"/>
<path fill-rule="evenodd" clip-rule="evenodd" d="M141.595 564.068L140.947 565.056C140.635 565.533 140.784 566.175 141.275 566.465L150.841 572.116C151.135 572.289 151.496 572.301 151.8 572.147L153.077 571.503C149.357 568.797 145.63 566.376 141.595 564.068Z" fill="white" fill-opacity="0.540975"/>
<path fill-rule="evenodd" clip-rule="evenodd" d="M96.9589 555.204L97.7676 569.234L87.4004 569.508L89.349 555.204H96.9589Z" fill="url(#paint13_linear_13_4073)"/>
<path fill-rule="evenodd" clip-rule="evenodd" d="M87.3035 564.367C94.6508 569.908 97.4701 562.975 98.0964 563.663C99.2881 564.97 101.544 577.991 100.316 579.816C99.2334 581.432 84.5004 581.459 83.6856 579.937C82.6155 577.921 86.4864 563.751 87.3035 564.367Z" fill="#222D4E"/>
<path fill-rule="evenodd" clip-rule="evenodd" d="M90.5776 568.806C90.6568 568.322 91.0746 567.967 91.5645 567.967H93.6388C94.1288 567.967 94.5466 568.322 94.6257 568.806L95.2417 572.569C95.3414 573.178 94.8716 573.73 94.2549 573.73H90.9485C90.3317 573.73 89.862 573.178 89.9616 572.569L90.5776 568.806Z" fill="white" fill-opacity="0.540975"/>
<path fill-rule="evenodd" clip-rule="evenodd" d="M106.591 363C106.591 363 96.2663 372.305 93.5556 385.673C89.0369 407.957 91.311 449.115 91.1772 458.14C91.0495 467.165 87.8042 472.611 86.0635 485.372C84.3229 498.132 86.0453 555.162 86.0453 555.162C90.6604 557.947 95.6646 558.146 101.167 554.995L133.485 365.977L106.591 363Z" fill="#38308B"/>
<path fill-rule="evenodd" clip-rule="evenodd" d="M99.713 371.305L103.746 371.86C100.203 378.639 98.4124 394.097 98.3755 418.235L98.3749 419C98.3749 455.496 91.7866 468.353 89.136 484.064L89.0569 484.541C87.4692 494.284 86.28 509.898 85.4891 531.38L85.4087 526.054C85.1886 509.824 85.1838 491.821 86.0635 485.372C87.8042 472.611 91.0495 467.166 91.1772 458.14L91.183 457.243C91.1807 446.663 89.1725 407.289 93.5556 385.673C94.7004 380.027 97.2033 375.106 99.713 371.305Z" fill="white" fill-opacity="0.0771689"/>
<path fill-rule="evenodd" clip-rule="evenodd" d="M95.5 300.703C95.5 300.703 105.388 333.837 105.681 340.109C105.973 346.381 97.5934 364.816 99.0202 369.475C102.31 380.243 144.309 384.879 148.814 370.395C150.739 364.209 147.038 357.576 148.833 349.617C150.621 341.657 155.875 329.828 151.799 318.708C147.722 307.587 148.814 297.299 145.898 295.354C142.982 293.409 136.166 291.344 136.166 291.344C132.852 296.226 121.662 296.155 116.322 291C116.322 291 103.058 293.575 95.5 300.703Z" fill="#7367F0"/>
<path fill-rule="evenodd" clip-rule="evenodd" d="M104.36 306.069C110.951 316.537 110.931 334.762 114.471 337.149C118.011 339.536 131.788 337.193 131.788 339.084C131.788 340.974 112.749 358.297 115.874 366.578C117.511 370.914 117.067 374.793 114.543 378.215L113.719 378.036C106.217 376.339 100.186 373.293 99.0198 369.475C97.593 364.816 105.973 346.381 105.68 340.109C105.432 334.802 98.3152 310.264 96.1309 302.838C98.0612 299.345 100.804 300.422 104.36 306.069Z" fill="black" fill-opacity="0.0564904"/>
<path fill-rule="evenodd" clip-rule="evenodd" d="M125.216 360.039C125.216 360.039 131.65 357.187 133.732 357.195C135.815 357.203 137.408 357.271 137.408 357.271L137.414 360.155C137.414 360.155 147.986 361.116 149.101 361.078C150.223 361.041 145.023 368.862 141.522 370.278C137.654 371.842 124.51 367.203 124.51 367.203L125.216 360.039Z" fill="url(#paint14_linear_13_4073)"/>
<path fill-rule="evenodd" clip-rule="evenodd" d="M96.0645 299.761C87.9583 305.675 67.2651 356.417 77.0942 363.534C85.4731 369.602 121.071 370.394 123.705 368.458C125.899 366.841 127.132 361.922 125.068 359.235C122.329 355.652 91.4412 350.477 91.4412 350.477C91.4412 350.477 102.547 323.908 104.865 319.251C112.816 303.266 107.548 291.386 96.0645 299.761Z" fill="#7367F0"/>
<path fill-rule="evenodd" clip-rule="evenodd" d="M91.4844 350.445C91.4844 350.445 87.9492 355.983 88.677 356.121C89.4048 356.259 94.1493 350.95 94.1493 350.95L91.4844 350.445Z" fill="black" fill-opacity="0.302803"/>
<defs>
<filter id="filter0_f_13_4073" x="204.872" y="0.623963" width="137.151" height="136.904" filterUnits="userSpaceOnUse" color-interpolation-filters="sRGB">
<feFlood flood-opacity="0" result="BackgroundImageFix"/>
<feBlend mode="normal" in="SourceGraphic" in2="BackgroundImageFix" result="shape"/>
<feGaussianBlur stdDeviation="4.07742" result="effect1_foregroundBlur_13_4073"/>
</filter>
<filter id="filter1_dd_13_4073" x="85.5" y="297" width="206.869" height="108.289" filterUnits="userSpaceOnUse" color-interpolation-filters="sRGB">
<feFlood flood-opacity="0" result="BackgroundImageFix"/>
<feColorMatrix in="SourceAlpha" type="matrix" values="0 0 0 0 0 0 0 0 0 0 0 0 0 0 0 0 0 0 127 0" result="hardAlpha"/>
<feOffset dx="7" dy="8"/>
<feGaussianBlur stdDeviation="12.5"/>
<feColorMatrix type="matrix" values="0 0 0 0 0.0755213 0 0 0 0 0.582569 0 0 0 0 0.878793 0 0 0 0.229458 0"/>
<feBlend mode="normal" in2="BackgroundImageFix" result="effect1_dropShadow_13_4073"/>
<feColorMatrix in="SourceAlpha" type="matrix" values="0 0 0 0 0 0 0 0 0 0 0 0 0 0 0 0 0 0 127 0" result="hardAlpha"/>
<feOffset dy="2"/>
<feGaussianBlur stdDeviation="7"/>
<feColorMatrix type="matrix" values="0 0 0 0 0.503982 0 0 0 0 0.700178 0 0 0 0 1 0 0 0 0.233829 0"/>
<feBlend mode="normal" in2="effect1_dropShadow_13_4073" result="effect2_dropShadow_13_4073"/>
<feBlend mode="normal" in="SourceGraphic" in2="effect2_dropShadow_13_4073" result="shape"/>
</filter>
<filter id="filter2_dd_13_4073" x="83.5" y="144" width="212.477" height="188.215" filterUnits="userSpaceOnUse" color-interpolation-filters="sRGB">
<feFlood flood-opacity="0" result="BackgroundImageFix"/>
<feColorMatrix in="SourceAlpha" type="matrix" values="0 0 0 0 0 0 0 0 0 0 0 0 0 0 0 0 0 0 127 0" result="hardAlpha"/>
<feOffset dx="8" dy="9"/>
<feGaussianBlur stdDeviation="14"/>
<feColorMatrix type="matrix" values="0 0 0 0 0.0755213 0 0 0 0 0.582569 0 0 0 0 0.878793 0 0 0 0.229458 0"/>
<feBlend mode="normal" in2="BackgroundImageFix" result="effect1_dropShadow_13_4073"/>
<feColorMatrix in="SourceAlpha" type="matrix" values="0 0 0 0 0 0 0 0 0 0 0 0 0 0 0 0 0 0 127 0" result="hardAlpha"/>
<feOffset dy="2"/>
<feGaussianBlur stdDeviation="7.5"/>
<feColorMatrix type="matrix" values="0 0 0 0 0.503982 0 0 0 0 0.700178 0 0 0 0 1 0 0 0 0.233829 0"/>
<feBlend mode="normal" in2="effect1_dropShadow_13_4073" result="effect2_dropShadow_13_4073"/>
<feBlend mode="normal" in="SourceGraphic" in2="effect2_dropShadow_13_4073" result="shape"/>
</filter>
<filter id="filter3_d_13_4073" x="116.113" y="203.414" width="134.391" height="75.0731" filterUnits="userSpaceOnUse" color-interpolation-filters="sRGB">
<feFlood flood-opacity="0" result="BackgroundImageFix"/>
<feColorMatrix in="SourceAlpha" type="matrix" values="0 0 0 0 0 0 0 0 0 0 0 0 0 0 0 0 0 0 127 0" result="hardAlpha"/>
<feOffset dy="6"/>
<feGaussianBlur stdDeviation="3.5"/>
<feColorMatrix type="matrix" values="0 0 0 0 0 0 0 0 0 0 0 0 0 0 0 0 0 0 0.144395 0"/>
<feBlend mode="normal" in2="BackgroundImageFix" result="effect1_dropShadow_13_4073"/>
<feBlend mode="normal" in="SourceGraphic" in2="effect1_dropShadow_13_4073" result="shape"/>
</filter>
<linearGradient id="paint0_linear_13_4073" x1="73.4904" y1="157.402" x2="73.4904" y2="579.951" gradientUnits="userSpaceOnUse">
<stop stop-color="#A2FFEA"/>
<stop offset="1" stop-color="#8CA5FF"/>
</linearGradient>
<linearGradient id="paint1_linear_13_4073" x1="398.227" y1="526.858" x2="396.631" y2="556.708" gradientUnits="userSpaceOnUse">
<stop stop-color="#FDC6C6"/>
<stop offset="1" stop-color="#FAB2B2"/>
</linearGradient>
<linearGradient id="paint2_linear_13_4073" x1="393.593" y1="354.529" x2="389.353" y2="415.079" gradientUnits="userSpaceOnUse">
<stop stop-color="#FDC6C6"/>
<stop offset="1" stop-color="#FAB2B2"/>
</linearGradient>
<linearGradient id="paint3_linear_13_4073" x1="447.943" y1="330.528" x2="436.718" y2="380.065" gradientUnits="userSpaceOnUse">
<stop stop-color="#FFAFAF"/>
<stop offset="1" stop-color="#F07777"/>
</linearGradient>
<linearGradient id="paint4_linear_13_4073" x1="447.185" y1="321.112" x2="440.525" y2="353.709" gradientUnits="userSpaceOnUse">
<stop stop-color="#FDC6C6"/>
<stop offset="1" stop-color="#FAB2B2"/>
</linearGradient>
<linearGradient id="paint5_linear_13_4073" x1="362.95" y1="528.061" x2="361.389" y2="561.334" gradientUnits="userSpaceOnUse">
<stop stop-color="#FDC6C6"/>
<stop offset="1" stop-color="#FAB2B2"/>
</linearGradient>
<linearGradient id="paint6_linear_13_4073" x1="472.878" y1="387.401" x2="471.371" y2="426.785" gradientUnits="userSpaceOnUse">
<stop stop-color="#FDC6C6"/>
<stop offset="1" stop-color="#FAB2B2"/>
</linearGradient>
<linearGradient id="paint7_linear_13_4073" x1="268.739" y1="408.373" x2="247.713" y2="408.373" gradientUnits="userSpaceOnUse">
<stop stop-color="#F16B79"/>
<stop offset="1" stop-color="#F69D88"/>
</linearGradient>
<linearGradient id="paint8_linear_13_4073" x1="586.58" y1="330.59" x2="586.58" y2="381.354" gradientUnits="userSpaceOnUse">
<stop stop-color="#9FF6EC"/>
<stop offset="1" stop-color="#7D9DFF"/>
</linearGradient>
<linearGradient id="paint9_linear_13_4073" x1="105.891" y1="265.408" x2="116.403" y2="312.669" gradientUnits="userSpaceOnUse">
<stop stop-color="#FFAFAF"/>
<stop offset="1" stop-color="#F07777"/>
</linearGradient>
<linearGradient id="paint10_linear_13_4073" x1="106.719" y1="256.44" x2="113.026" y2="287.5" gradientUnits="userSpaceOnUse">
<stop stop-color="#FDC6C6"/>
<stop offset="1" stop-color="#FAB2B2"/>
</linearGradient>
<linearGradient id="paint11_linear_13_4073" x1="184.593" y1="270.663" x2="195.866" y2="300.016" gradientUnits="userSpaceOnUse">
<stop stop-color="#FDC6C6"/>
<stop offset="1" stop-color="#FAB2B2"/>
</linearGradient>
<linearGradient id="paint12_linear_13_4073" x1="126.644" y1="549.829" x2="128.06" y2="568.083" gradientUnits="userSpaceOnUse">
<stop stop-color="#FDC6C6"/>
<stop offset="1" stop-color="#FAB2B2"/>
</linearGradient>
<linearGradient id="paint13_linear_13_4073" x1="85.6065" y1="551.722" x2="87.1178" y2="568.714" gradientUnits="userSpaceOnUse">
<stop stop-color="#FDC6C6"/>
<stop offset="1" stop-color="#FAB2B2"/>
</linearGradient>
<linearGradient id="paint14_linear_13_4073" x1="118.947" y1="357.043" x2="120.704" y2="372.045" gradientUnits="userSpaceOnUse">
<stop stop-color="#FDC6C6"/>
<stop offset="1" stop-color="#FAB2B2"/>
</linearGradient>
</defs>
</svg>
