<svg
  width="31"
  height="30"
  viewBox="0 0 31 30"
  fill="none"
  xmlns="http://www.w3.org/2000/svg"
>
  <rect x="0.65625" width="30" height="30" rx="6" fill="#00ACEE" />
  <path
    fill-rule="evenodd"
    clip-rule="evenodd"
    d="M21.768 9.27683C21.9426 9.1595 22.2336 9.1595 22.4083 9.27683C22.5829 9.39415 22.6993 9.6288 22.6411 9.86345C22.4665 10.6847 22.059 11.4473 21.4769 12.0926V12.3859C21.4769 15.6124 20.0799 18.3109 17.577 19.7188C16.2964 20.4814 14.8994 20.8334 13.4442 20.8334C11.989 20.8334 10.4173 20.4227 8.96213 19.6014C8.72929 19.4841 8.61288 19.1908 8.67108 18.9562C8.72929 18.7215 9.02033 18.5455 9.25317 18.5455C10.2427 18.5455 11.2323 18.3695 12.1054 17.9589C9.95167 16.6096 9.36958 14.7324 9.31138 13.2659C9.25317 11.5647 9.83525 10.1568 9.89346 10.0981C9.95167 9.92212 10.1263 9.74613 10.3591 9.74613C10.592 9.74613 10.7666 9.80479 10.883 9.98078C11.8725 11.3887 13.386 12.2686 15.074 12.3859C15.074 11.4473 15.4815 10.5674 16.2382 9.98078C17.4606 8.86619 19.265 8.92485 20.4292 9.98078C20.8949 9.80479 21.3605 9.57014 21.768 9.27683ZM20.2546 12.034C20.2546 11.858 20.3128 11.6233 20.4292 11.506C20.4874 11.418 20.5456 11.3447 20.6038 11.2714C20.662 11.198 20.7202 11.1247 20.7784 11.0367C20.7202 11.066 20.6475 11.0807 20.5747 11.0954C20.5019 11.11 20.4292 11.1247 20.371 11.154C20.1964 11.2127 19.9635 11.154 19.7889 10.978C19.0904 10.1568 17.7516 10.0394 16.9367 10.8021C16.471 11.2127 16.2382 11.7993 16.2382 12.3859V12.9726C16.2382 13.2659 15.9471 13.5592 15.6561 13.5592C13.7352 13.6179 11.9308 12.8552 10.6502 11.5647C10.3009 13.0312 10.1845 15.9057 13.5606 17.4309C13.7352 17.4896 13.9098 17.6656 13.9098 17.9002C13.9098 18.1349 13.8516 18.3109 13.6188 18.4282C12.9785 18.8975 12.28 19.1908 11.5233 19.4255C13.4442 19.8948 15.3651 19.6601 16.9949 18.7215C19.0904 17.4896 20.3128 15.2017 20.3128 12.3859C20.3128 12.2686 20.3128 12.1513 20.2546 12.034Z"
    fill="black"
  />
  <mask
    id="mask0_6_320"
    style="mask-type: alpha"
    maskUnits="userSpaceOnUse"
    x="8"
    y="9"
    width="15"
    height="12"
  >
    <path
      fill-rule="evenodd"
      clip-rule="evenodd"
      d="M21.768 9.27683C21.9426 9.1595 22.2336 9.1595 22.4083 9.27683C22.5829 9.39415 22.6993 9.6288 22.6411 9.86345C22.4665 10.6847 22.059 11.4473 21.4769 12.0926V12.3859C21.4769 15.6124 20.0799 18.3109 17.577 19.7188C16.2964 20.4814 14.8994 20.8334 13.4442 20.8334C11.989 20.8334 10.4173 20.4227 8.96213 19.6014C8.72929 19.4841 8.61288 19.1908 8.67108 18.9562C8.72929 18.7215 9.02033 18.5455 9.25317 18.5455C10.2427 18.5455 11.2323 18.3695 12.1054 17.9589C9.95167 16.6096 9.36958 14.7324 9.31138 13.2659C9.25317 11.5647 9.83525 10.1568 9.89346 10.0981C9.95167 9.92212 10.1263 9.74613 10.3591 9.74613C10.592 9.74613 10.7666 9.80479 10.883 9.98078C11.8725 11.3887 13.386 12.2686 15.074 12.3859C15.074 11.4473 15.4815 10.5674 16.2382 9.98078C17.4606 8.86619 19.265 8.92485 20.4292 9.98078C20.8949 9.80479 21.3605 9.57014 21.768 9.27683ZM20.2546 12.034C20.2546 11.858 20.3128 11.6233 20.4292 11.506C20.4874 11.418 20.5456 11.3447 20.6038 11.2714C20.662 11.198 20.7202 11.1247 20.7784 11.0367C20.7202 11.066 20.6475 11.0807 20.5747 11.0954C20.5019 11.11 20.4292 11.1247 20.371 11.154C20.1964 11.2127 19.9635 11.154 19.7889 10.978C19.0904 10.1568 17.7516 10.0394 16.9367 10.8021C16.471 11.2127 16.2382 11.7993 16.2382 12.3859V12.9726C16.2382 13.2659 15.9471 13.5592 15.6561 13.5592C13.7352 13.6179 11.9308 12.8552 10.6502 11.5647C10.3009 13.0312 10.1845 15.9057 13.5606 17.4309C13.7352 17.4896 13.9098 17.6656 13.9098 17.9002C13.9098 18.1349 13.8516 18.3109 13.6188 18.4282C12.9785 18.8975 12.28 19.1908 11.5233 19.4255C13.4442 19.8948 15.3651 19.6601 16.9949 18.7215C19.0904 17.4896 20.3128 15.2017 20.3128 12.3859C20.3128 12.2686 20.3128 12.1513 20.2546 12.034Z"
      fill="white"
    />
  </mask>
  <g mask="url(#mask0_6_320)">
    <rect x="8.65625" y="8" width="14" height="14" fill="white" />
  </g>
</svg>
